<svg version="1.1" xmlns="http://www.w3.org/2000/svg" xmlns:xlink="http://www.w3.org/1999/xlink" x="0px" y="0px"
	 viewBox="0 0 18 13" style="enable-background:new 0 0 18 13;" xml:space="preserve">
<style type="text/css">
	.st0{fill:#046CB5;}
</style>
<path id="arrow" class="st0" d="M1.9994189,12.0001507c-0.2255859,0-0.4526367-0.0761719-0.6396484-0.2314453
	c-0.4243164-0.3535156-0.4814453-0.984375-0.1279297-1.4091797l3.2163086-3.859375L1.2318407,2.6407759
	C0.8783251,2.2159712,0.935454,1.5851119,1.3597704,1.2315962c0.4238281-0.3525391,1.0541991-0.2968751,1.408203,0.1279297
	l4.2836914,5.140625l-4.2836914,5.140625C2.5702195,11.8780804,2.2860398,12.0001507,1.9994189,12.0001507z M6.9994187,12.0001507
	c-0.2255859,0-0.4526367-0.0761719-0.6396484-0.2314453c-0.4243164-0.3535156-0.4814453-0.984375-0.1279297-1.4091797
	l3.2158208-3.859375L6.2318406,2.6407759C5.878325,2.2159712,5.9354539,1.5851119,6.3597703,1.2315962
	c0.4238281-0.3525391,1.0541992-0.2968751,1.4082031,0.1279297l4.2832036,5.140625l-4.2832036,5.140625
	C7.5702195,11.8780804,7.2860398,12.0001507,6.9994187,12.0001507z M11.9984426,12.0001507
	c-0.2255859,0-0.4521484-0.0761719-0.6396484-0.2314453c-0.4238281-0.3535156-0.4814453-0.984375-0.1279297-1.4091797
	l3.2167969-3.859375l-3.2167969-3.8593748c-0.3535156-0.4248047-0.2958984-1.0556641,0.1279297-1.4091797
	c0.4257812-0.3535157,1.0556641-0.2949219,1.4091797,0.1279297l4.2832022,5.140625l-4.2832022,5.140625
	C12.5697317,11.8780804,12.285552,12.0001507,11.9984426,12.0001507z"/>
</svg>
