<svg version="1.1" id="Layer_1" xmlns="http://www.w3.org/2000/svg" xmlns:xlink="http://www.w3.org/1999/xlink" x="0px" y="0px"
	 viewBox="0 0 120 100" style="enable-background:new 0 0 120 100;" xml:space="preserve">
<style type="text/css">
	.st0{fill:#FFFFFF;}
</style>
<path id="Fill-11" class="st0" d="M75.4685287,32.7547569c-2.9195328,0-5.2951431-2.4024887-5.2951431-5.3541927
	c0-2.9525585,2.3756104-5.3550472,5.2951431-5.3550472c2.9186783,0,5.2942886,2.4024887,5.2942886,5.3550472
	C80.7628174,30.3522682,78.387207,32.7547569,75.4685287,32.7547569 M64.1420135,21.5057278
	c-2.9186783,0-5.2942886-2.4024887-5.2942886-5.3541908c0-2.9525595,2.3756104-5.3550491,5.2942886-5.3550491
	c2.9195251,0,5.2951355,2.4024897,5.2951355,5.3550491C69.437149,19.1032391,67.0615387,21.5057278,64.1420135,21.5057278
	 M67.9019928,2.8564503c-11.8153687,0-21.3923645,9.6862125-21.3923645,21.6343956l1.0590286,1.0521584l13.2844391,2.6089802
	l15.1534195-15.3257189l2.6916199,2.7220774L65.2713623,29.1261749c1.2216949,0.4806709,2.2688599,1.3477592,2.9652786,2.4941673
	l9.0135956,12.3328934c7.1293716-3.5086288,12.0441132-10.9045944,12.0441132-19.462389
	C89.2943497,12.5426626,79.716507,2.8564503,67.9019928,2.8564503 M43.9676208,25.1863174
	c0,4.1803646-3.3507652,7.5681839-7.4835129,7.5681839c-4.1335983,0-7.4843616-3.3878193-7.4843616-7.5681839
	s3.3507633-7.5681839,7.4843616-7.5681839C40.6168556,17.6181335,43.9676208,21.0059509,43.9676208,25.1863174
	 M75.1842804,48.0318947l-9.488884-12.9840622c-0.8887405-1.4617157-2.3425674-2.4787445-4.0073586-2.8060455
	c0,0-10.9867821-2.6932259-14.5569725-0.8376312C43.5608673,33.2597504,40.4312286,35.0478325,41.75,41.8834419
	l1.8108673,12.2035141c0.8700981,3.1470566-0.4015808,6.4980316-3.1296387,8.2484894l-6.9861908,4.4819603
	c-2.7678776,1.7753067-4.4453773,4.8598175-4.4453773,8.1748047v19.3827057c0,1.9552307,1.3538609,3.6440048,3.2457085,4.0484161
	c2.5408211,0.5432129,4.8842354-1.279213,5.0130157-3.8196487l0.7218323-14.2649918
	c0.1669006-3.3098526,1.9969025-6.302681,4.8494987-7.9331818l10.0336533-5.7354736l3.7066002,13.5281372
	c0.7404709,2.7006607,2.6009674,4.943779,5.1011238,6.1510239l16.6479149,8.0394287
	c1.7063065,0.8233871,3.7489548,0.327301,4.8994827-1.1892548c1.5444946-2.0383453,0.9429626-4.8966522-1.2182999-6.0824738
	l-10.6826248-5.8614273c-3.1398087-1.7230377-5.0706253-5.0705872-5.0062408-8.6828842l0.01017-0.5852051
	c0.2007904-11.3972549-3.1372643-22.5700264-9.5456543-31.9469299c1.7834015-0.2818909,3.5947647,0.4523926,4.8452644,1.8429909
	l8.4713783,10.19944c1.0378418,1.2500839,2.833107,1.5259743,4.1912079,0.6434631
	C75.8984985,51.6784706,76.2865219,49.5407333,75.1842804,48.0318947z M64.1418457,14.4020214
	c-0.9539719,0-1.7300262,0.7848358-1.7300262,1.7496014s0.7760544,1.7496014,1.7300262,1.7496014
	s1.7300262-0.7848358,1.7300262-1.7496014S65.0958176,14.4020214,64.1418457,14.4020214 M75.4685287,25.6509628
	c-0.9539719,0-1.7300262,0.7848358-1.7300262,1.7496014s0.7760544,1.7496014,1.7300262,1.7496014
	s1.7300262-0.7848358,1.7300262-1.7496014S76.4225006,25.6509628,75.4685287,25.6509628"/>
</svg>
