<?xml version="1.0" encoding="utf-8"?>
<!-- Generator: Adobe Illustrator 23.0.1, SVG Export Plug-In . SVG Version: 6.00 Build 0)  -->
<svg version="1.1" id="Layer_1" xmlns="http://www.w3.org/2000/svg" xmlns:xlink="http://www.w3.org/1999/xlink" x="0px" y="0px"
	 viewBox="0 0 250 190" style="enable-background:new 0 0 250 190;" xml:space="preserve">
<style type="text/css">
	.st0{fill:url(#SVGID_1_);}
</style>
<linearGradient id="SVGID_1_" gradientUnits="userSpaceOnUse" x1="120.6433029" y1="20.9533348" x2="128.6242828" y2="181.2381134">
	<stop  offset="0" style="stop-color:#026BB5"/>
	<stop  offset="0.9986448" style="stop-color:#00A5E9"/>
</linearGradient>
<path class="st0" d="M197.4065857,179.6669922h-27.6459961c-1.3349609,0-2.4208984-1.1210938-2.4208984-2.5V43.7753906h-4.7539062
	c-0.7705078,0-1.46875-0.4648438-1.7783203-1.1835938c-0.3188477-0.7392578-0.1699219-1.5927734,0.3789062-2.1738281
	l20.7905273-21.9794922c0.3632812-0.3857422,0.8735352-0.6064453,1.3994141-0.6064453c0.0004883,0,0.0009766,0,0.0014648,0
	c0.5258789,0,1.0361328,0.2216797,1.3999023,0.6083984l20.7895508,21.9785156
	c0.5483398,0.5810547,0.6962891,1.4345703,0.3774414,2.1738281c-0.3095703,0.71875-1.0078125,1.1826172-1.7783203,1.1826172
	h-4.3388672v133.3916016C199.8274841,178.5458984,198.7415466,179.6669922,197.4065857,179.6669922z M170.3396912,176.6669922
	h26.487793V40.7753906h4.9472656l-18.3984375-19.4511719l-18.3984375,19.4511719h5.3618164V176.6669922z M203.3836365,42.4765625
	c0.0004883,0,0.0009766,0.0009766,0.0009766,0.0009766L203.3836365,42.4765625z M182.5955505,20.5
	c0.0009766,0.0009766,0.0024414,0.0019531,0.003418,0.0029297L182.5955505,20.5z M156.1551208,179.6669922h-27.6464844
	c-1.3349609,0-2.4208984-1.0556641-2.4208984-2.3525391V63.2509766c0-1.3789062,1.121582-2.5,2.5-2.5h27.4882812
	c1.378418,0,2.5,1.1210938,2.5,2.5v114.0634766C158.5760193,178.6113281,157.4900818,179.6669922,156.1551208,179.6669922z
	 M129.087738,176.6669922h26.4882812V63.7509766H129.087738V176.6669922z M115.1106873,179.6669922H87.4646912
	c-1.3349609,0-2.4208984-1.0556641-2.4208984-2.3525391V93.2509766c0-1.3789062,1.121582-2.5,2.5-2.5h27.487793
	c1.378418,0,2.5,1.1210938,2.5,2.5v84.0634766C117.5315857,178.6113281,116.4456482,179.6669922,115.1106873,179.6669922z
	 M88.0437927,176.6669922h26.487793V93.7509766h-26.487793V176.6669922z M74.0667419,179.6669922H46.4202614
	c-1.3349609,0-2.4208984-1.0556641-2.4208984-2.3525391v-54.0634766c0-1.3789062,1.121582-2.5,2.5-2.5h27.4882774
	c1.378418,0,2.5,1.1210938,2.5,2.5v54.0634766C76.4876404,178.6113281,75.4017029,179.6669922,74.0667419,179.6669922z
	 M46.9993629,176.6669922h26.4882774v-52.9160156H46.9993629V176.6669922z"/>
</svg>
