<?xml version="1.0" encoding="utf-8"?>
<!-- Generator: Adobe Illustrator 23.0.3, SVG Export Plug-In . SVG Version: 6.00 Build 0)  -->
<svg version="1.1" id="Layer_1" xmlns="http://www.w3.org/2000/svg" xmlns:xlink="http://www.w3.org/1999/xlink" x="0px" y="0px"
	 viewBox="0 0 250 190" style="enable-background:new 0 0 250 190;" xml:space="preserve">
<style type="text/css">
	.st0{fill:url(#SVGID_1_);}
	.st1{enable-background:new    ;}
	.st2{clip-path:url(#SVGID_3_);}
	.st3{fill:#B3D6F2;}
</style>
<linearGradient id="SVGID_1_" gradientUnits="userSpaceOnUse" x1="61.493" y1="50.9617" x2="179.6164" y2="169.0851">
	<stop  offset="0" style="stop-color:#026BB5"/>
	<stop  offset="0.9986" style="stop-color:#00A5E9"/>
</linearGradient>
<path class="st0" d="M219.7,106.1c0.7-0.4,1-1.3,0.6-2c-0.4-0.7-1.3-1-2-0.6l-26.7,14.2v-8.4l28.1-14.9c0.7-0.4,1-1.3,0.6-2
	c-0.4-0.7-1.3-1-2-0.6l-26.7,14.2v-7c0-0.9-0.2-1.9-0.5-2.7L217.8,82c0.9-0.5,1.4-1.3,1.3-2.3s-0.6-1.8-1.5-2.2L164.3,55
	c-2.1-0.9-4.4-0.8-6.4,0.3l-21,11.2V37.3V23.4c0-7.1-9.8-12.6-22.2-12.6s-22.2,5.5-22.2,12.6v13.8v28c-2.6-0.6-5.5-0.9-8.6-0.9
	c-12.5,0-22.2,5.5-22.2,12.6V84c-2.9-0.8-6.3-1.3-9.8-1.3c-12.5,0-22.2,5.5-22.2,12.6v12.5v1.4v11.1v1.4v10v2.4v11.4
	c0,7.1,9.8,12.6,22.2,12.6c2.4,0,4.8-0.2,7-0.6c0.8-0.2,1.4-0.9,1.2-1.7c-0.2-0.8-0.9-1.4-1.7-1.2c-2.1,0.4-4.3,0.6-6.5,0.6
	c-10.4,0-19.2-4.4-19.2-9.6v-5c3.8,3.7,10.9,6.2,19.2,6.2c2.4,0,4.8-0.2,7-0.6c0.8-0.2,1.4-0.9,1.2-1.7c-0.1-0.8-0.9-1.4-1.7-1.2
	c-2.1,0.4-4.3,0.6-6.5,0.6c-10.4,0-19.2-4.4-19.2-9.6v-2.4V128c3.8,3.7,10.9,6.2,19.2,6.2c2.4,0,4.8-0.2,7-0.6
	c0.8-0.2,1.4-0.9,1.2-1.7c-0.1-0.8-0.9-1.4-1.7-1.2c-2.1,0.4-4.3,0.6-6.5,0.6c-10.4,0-19.2-4.4-19.2-9.6v-1.4v-4.7
	c3.8,3.7,10.9,6.2,19.2,6.2c2.4,0,4.8-0.2,7-0.6c0.8-0.2,1.4-0.9,1.2-1.7c-0.1-0.8-0.9-1.4-1.7-1.2c-2.1,0.4-4.3,0.6-6.5,0.6
	c-10.4,0-19.2-4.4-19.2-9.6v-1.4v-6.1c3.8,3.7,10.9,6.2,19.2,6.2c5.5,0,10.4-1.1,14.3-2.9c0,0.2-0.1,0.4-0.1,0.6
	c0,1,0.6,1.8,1.5,2.2l52.2,22.8c1,0.4,2,0.6,3,0.6c1.2,0,2.4-0.3,3.5-0.9l24.6-13c0.1,0.3,0.1,0.7,0.1,1.1v8.8l-26.1,13.9
	c-1.2,0.6-2.6,0.7-3.9,0.1l-54.1-23.7c-0.8-0.3-1.6,0-2,0.8c-0.3,0.8,0,1.6,0.8,2l54.1,23.7c1,0.4,2,0.6,3,0.6
	c1.2,0,2.4-0.3,3.5-0.9l24.7-13.1v8.4l-26.1,13.9c-1.2,0.6-2.6,0.7-3.9,0.1l-54.1-23.7c-0.8-0.3-1.6,0-2,0.8c-0.3,0.8,0,1.6,0.8,2
	l54.1,23.7c1,0.4,2,0.6,3,0.6c1.2,0,2.4-0.3,3.5-0.9l24.7-13.1v8l-26.1,13.9c-1.2,0.6-2.6,0.7-3.9,0.1l-54.1-23.7
	c-0.8-0.3-1.6,0-2,0.8c-0.3,0.8,0,1.6,0.8,2l54.1,23.7c1,0.4,2,0.6,3,0.6c1.2,0,2.4-0.3,3.5-0.9l24.7-13.1v8.1l-26.1,13.9
	c-1.2,0.6-2.6,0.7-3.9,0.1l-54.1-23.7c-0.8-0.3-1.6,0-2,0.8c-0.3,0.8,0,1.6,0.8,2l54.1,23.7c1,0.4,2,0.6,3,0.6
	c1.2,0,2.4-0.3,3.5-0.9l24.8-13.1c0.2,0.6,0.6,1.2,1.1,1.5c0.4,0.2,0.8,0.4,1.3,0.4c0.4,0,0.8-0.1,1.2-0.3l32.9-17.6
	c2.1-1.1,3.5-3.2,3.9-5.5l28.2-15c0.7-0.4,1-1.3,0.6-2c-0.4-0.7-1.3-1-2-0.6l-26.7,14.2v-8.1l28.1-14.9c0.7-0.4,1-1.3,0.6-2
	c-0.4-0.7-1.3-1-2-0.6L191.5,129v-8L219.7,106.1z M114.6,13.9c10.4,0,19.2,4.4,19.2,9.6s-8.8,9.6-19.2,9.6s-19.2-4.4-19.2-9.6
	S104.2,13.9,114.6,13.9z M95.4,29.8c3.8,3.7,10.9,6.2,19.2,6.2s15.4-2.5,19.2-6.2v7.4c0,5.2-8.8,9.6-19.2,9.6s-19.2-4.4-19.2-9.6
	V29.8z M95.4,43.7c3.8,3.7,10.9,6.2,19.2,6.2s15.4-2.5,19.2-6.2v6.1c0,5.2-8.8,9.6-19.2,9.6s-19.2-4.4-19.2-9.6V43.7z M95.4,56.1
	c3.8,3.7,10.9,6.2,19.2,6.2s15.4-2.5,19.2-6.2v6.1c0,2-1.4,4.1-4.1,5.8c-0.1,0.1-0.2,0.2-0.3,0.2c-1.3,0-2.5,0.3-3.7,0.9l-3.6,1.9
	c-0.1,0-0.2,0-0.3,0c-2.3,0.5-4.7,0.7-7.2,0.7c-5.2,0-9.9-1.1-13.4-2.8c-0.8-0.5-1.6-1-2.5-1.5c-2.1-1.5-3.3-3.4-3.3-5.3V56.1z
	 M105.3,73.6c2.8,0.7,6,1.1,9.3,1.1c0.2,0,0.3,0,0.5,0l-9.1,4.8v-2.7C106,75.7,105.8,74.7,105.3,73.6z M83.8,67.3
	c5.2,0,9.9,1.1,13.4,2.8c0.8,0.5,1.6,1,2.5,1.5c2.1,1.5,3.3,3.4,3.3,5.3c0,5.2-8.8,9.6-19.2,9.6s-19.2-4.4-19.2-9.6
	S73.4,67.3,83.8,67.3z M64.6,83.3c3.8,3.7,10.9,6.2,19.2,6.2c3.1,0,6-0.3,8.6-1c0,0.5,0.2,0.9,0.5,1.3L74,99.8v-4.5
	c0-4.3-3.7-8.1-9.4-10.3V83.3z M32.6,95.4c0-5.2,8.8-9.6,19.2-9.6S71,90.2,71,95.4s-8.8,9.6-19.2,9.6S32.6,100.6,32.6,95.4z
	 M124.8,127.8c-1.2,0.6-2.6,0.7-3.9,0.1l-51.3-22.4l26.3-14c0.1,0,0.1-0.1,0.1-0.1l52.2,22.9c0.3,0.1,0.6,0.3,0.9,0.5L124.8,127.8z
	 M188.5,142.8c0,1.7-0.9,3.2-2.4,4l-32.2,17.2v-45.4c0-3-1.8-5.7-4.5-6.9L96.1,88.2l31.2-16.5c1.2-0.6,2.6-0.7,3.9-0.2l54.6,23.2
	c1.7,0.7,2.7,2.3,2.7,4.1V142.8z M189.4,93.6c-0.7-0.7-1.5-1.3-2.4-1.7l-51-21.6l23.4-12.4c1.2-0.6,2.6-0.7,3.9-0.2l52.3,22.1
	L189.4,93.6z"/>
<g>
	<g>
		<g class="st1">
			<defs>
				<polygon id="SVGID_2_" class="st1" points="159.2,99.6 132.3,105.2 124.7,84.2 151.6,78.6 				"/>
			</defs>
			<clipPath id="SVGID_3_">
				<use xlink:href="#SVGID_2_"  style="overflow:visible;"/>
			</clipPath>
			<g class="st2">
				<g>
					<g>
						<g>
							<path class="st3" d="M127.9,93c0.1,0.3,0.3,0.6,0.5,1c0.5,0.8,1.2,1.4,2.1,1.9c1,0.5,2.1,0.8,3.2,0.9c1.1,0.1,2.2,0,3.2-0.3
								c1-0.3,2.1-0.7,3-1.2c1-0.5,1.9-1.1,2.6-1.8c0.5-0.4,1.1-0.9,1.8-1.3c0.6-0.4,1.3-0.8,2-1c0.6-0.2,1.3-0.4,2-0.4
								c0.6,0,1.2,0.1,1.8,0.4c0.5,0.3,0.9,0.6,1.1,1c0.1,0.2,0.2,0.3,0.2,0.5c0,0.1,0.1,0.2,0.1,0.3c0,0.2,0.1,0.3,0.1,0.5
								c0,0.5-0.1,0.9-0.3,1.5c-0.5,1.1-1.4,2.3-2.6,2.9c-0.6,0.3-1.3,0.6-2,0.7c-0.7,0.1-1.4,0.1-2.1,0c-0.7-0.1-1.4-0.3-2-0.6
								l-0.6-0.3L139,101l0.6,0.3c1.1,0.6,2.4,0.9,3.7,1.1c1.3,0.1,2.6,0,3.9-0.3c1.3-0.3,2.5-0.8,3.7-1.5c0.6-0.3,1.1-0.7,1.5-1.1
								l1.8,1l2.2-2.8l-1.8-0.9c0.4-0.6,0.7-1.2,0.9-1.7c0.4-1,0.6-2,0.6-3c0-0.3-0.1-0.6-0.1-1c0-0.2-0.1-0.4-0.2-0.5
								c-0.1-0.4-0.3-0.8-0.6-1.1c-0.5-0.8-1.4-1.5-2.4-2c-1-0.5-2.1-0.8-3.3-0.9c-1.1-0.1-2.2,0.1-3.4,0.4
								c-1.1,0.3-2.2,0.8-3.2,1.3c-1,0.6-2,1.2-2.8,1.9c-0.5,0.4-1,0.8-1.6,1.2c-0.6,0.4-1.2,0.7-1.8,0.9c-0.6,0.2-1.2,0.3-1.8,0.4
								c-0.6,0-1.1-0.1-1.7-0.4c-0.4-0.2-0.7-0.5-0.9-0.8c-0.1-0.1-0.1-0.3-0.2-0.4c0-0.1-0.1-0.2-0.1-0.3c0-0.2-0.1-0.3-0.1-0.5
								c0-0.4,0.1-0.9,0.2-1.3c0.4-0.9,1-1.8,2-2.3c0.5-0.3,1.1-0.5,1.7-0.6s1.2-0.2,1.8-0.1c0.6,0.1,1.2,0.2,1.8,0.5l0.6,0.3
								l2.9-3.6l-0.6-0.3c-0.7-0.4-1.6-0.7-2.6-0.9c-1-0.2-2.2-0.3-3.3-0.2c-1.2,0.1-2.4,0.5-3.6,1.1c-0.7,0.3-1.4,0.8-2,1.4
								l-1.8-0.9l-2.5,3.1l1.8,0.9c-0.2,0.4-0.4,0.8-0.5,1.2c-0.3,1-0.5,1.9-0.4,2.8c0,0.3,0.1,0.7,0.1,1
								C127.8,92.6,127.8,92.8,127.9,93"/>
						</g>
					</g>
				</g>
			</g>
		</g>
	</g>
</g>
</svg>
