<svg id="Layer_1" data-name="Layer 1" xmlns="http://www.w3.org/2000/svg" xmlns:xlink="http://www.w3.org/1999/xlink" viewBox="0 0 250 190"><defs><style>.cls-1{fill:url(#linear-gradient);}.cls-2{fill:#b3d6f2;}</style><linearGradient id="linear-gradient" x1="125.03" y1="17.48" x2="125.03" y2="178.49" gradientUnits="userSpaceOnUse"><stop offset="0" stop-color="#026bb5"/><stop offset="1" stop-color="#00a5e9"/></linearGradient></defs><title>icon-3hk-03</title><path id="icon-3handset-03a" class="cls-1" d="M187.17,29.41h-5.95V25.86a8.63,8.63,0,0,0-8.85-8.38H62.9a8.63,8.63,0,0,0-8.85,8.38V159.4a8.63,8.63,0,0,0,8.85,8.38h5.94v3.54a8.64,8.64,0,0,0,8.85,8.39H187.16a8.64,8.64,0,0,0,8.85-8.39V37.79A8.63,8.63,0,0,0,187.17,29.41ZM68.84,37.79v127H62.9a5.64,5.64,0,0,1-5.85-5.38V25.86a5.64,5.64,0,0,1,5.85-5.38H172.37a5.64,5.64,0,0,1,5.85,5.38v3.55H77.69A8.63,8.63,0,0,0,68.84,37.79ZM193,171.32a5.64,5.64,0,0,1-5.85,5.39H77.69a5.65,5.65,0,0,1-5.85-5.39V37.79a5.64,5.64,0,0,1,5.85-5.38H187.17A5.63,5.63,0,0,1,193,37.79ZM81.84,76.41v73.5H183V76.41Zm3,3h58.55v67.5H84.84ZM180,146.91H146.39V79.41H180Z"/><path id="icon-3handset-03b" class="cls-2" d="M136.39,102H92.83V96h43.56Zm0,12.24H92.83v-6h43.56Zm0,12.25H92.83v-6h43.56Zm0,12.24H92.83v-6h43.56Zm0,28.19H92.83v-6h43.56Zm39.12,0H152v-6h23.56ZM170.63,57a7,7,0,0,0-1.75-2.11,10.15,10.15,0,0,0-2.46-1.47,15.37,15.37,0,0,0-2.82-.88q-.79-.2-1.68-.48a6.35,6.35,0,0,1-1.5-.74,4.39,4.39,0,0,1-1.08-1.07,2.42,2.42,0,0,1-.38-1.37,2,2,0,0,1,.29-1.07,3.08,3.08,0,0,1,.82-.87,3.75,3.75,0,0,1,1.17-.57,4.26,4.26,0,0,1,2.8.09,4.13,4.13,0,0,1,1.24.8,3.78,3.78,0,0,1,.87,1.2,3.7,3.7,0,0,1,.32,1.52v.6h4.22V50a8.17,8.17,0,0,0-.37-2.26A7,7,0,0,0,169,45.32a7.3,7.3,0,0,0-2.47-1.89,7.69,7.69,0,0,0-2-.59V41.08h-3.65v1.76a9.78,9.78,0,0,0-1.19.28,8.52,8.52,0,0,0-2.51,1.29,6.78,6.78,0,0,0-1.78,2,4.88,4.88,0,0,0-.69,2.52,5.57,5.57,0,0,0,.64,2.67,6.78,6.78,0,0,0,1.63,2,9.54,9.54,0,0,0,2.27,1.44,13.06,13.06,0,0,0,2.59.84,17.54,17.54,0,0,1,1.83.5,7.52,7.52,0,0,1,1.7.78,4.6,4.6,0,0,1,1.23,1.13,2.39,2.39,0,0,1,.44,1.47,2.63,2.63,0,0,1-.31,1.34,3.13,3.13,0,0,1-.89,1,4,4,0,0,1-1.33.59,5.53,5.53,0,0,1-3.49-.17,4.51,4.51,0,0,1-1.44-1,4.19,4.19,0,0,1-.91-1.45,4.69,4.69,0,0,1-.33-1.72v-.6h-4.21v.6a7.11,7.11,0,0,0,.72,3.16A8.47,8.47,0,0,0,156.82,64a9.38,9.38,0,0,0,2.78,1.71,9.23,9.23,0,0,0,1.53.45V68h3.22V66.28a11.37,11.37,0,0,0,1.81-.34,8.58,8.58,0,0,0,2.69-1.27,6,6,0,0,0,1.81-2.09,6.2,6.2,0,0,0,.64-2.83A5.72,5.72,0,0,0,170.63,57Z"/></svg>