<svg id="Layer_1" data-name="Layer 1" xmlns="http://www.w3.org/2000/svg" xmlns:xlink="http://www.w3.org/1999/xlink" viewBox="0 0 250 190"><defs><style>.cls-1{fill:url(#linear-gradient);}</style><linearGradient id="linear-gradient" x1="123.9" y1="17.85" x2="123.9" y2="179.52" gradientUnits="userSpaceOnUse"><stop offset="0" stop-color="#026bb5"/><stop offset="1" stop-color="#00a5e9"/></linearGradient></defs><title>icon-aboutus-02</title><path id="icon-aboutus-02a" class="cls-1" d="M59.29,96A14.72,14.72,0,0,0,71.06,72.4L92.8,52.32a14.7,14.7,0,0,0,22.43-3.56l16.28,7.49a14.74,14.74,0,1,0,26.88-2.32l18.91-13a14.6,14.6,0,1,0-1.71-2.46l-18.91,13a14.71,14.71,0,0,0-23.91,2.06L116.49,46a14.75,14.75,0,1,0-25.73,4.08L69,70.2A14.74,14.74,0,1,0,59.29,96ZM188.52,19.62a11.75,11.75,0,1,1-9.21,19,5.66,5.66,0,0,0-.87-1.26,11.73,11.73,0,0,1,10.08-17.76ZM145.46,49.26a11.75,11.75,0,0,1,9.16,4.41l.95,1.38a11.74,11.74,0,1,1-10.11-5.79ZM102.54,29.53a11.71,11.71,0,0,1,10.93,16l-.57,1.25a11.75,11.75,0,1,1-10.36-17.27Zm-43.25,40A11.75,11.75,0,1,1,47.54,81.25,11.76,11.76,0,0,1,59.29,69.5ZM42.79,179.17h33V123.5h-33Zm3-52.67h27v49.67h-27ZM86,179.17h33V83.5H86ZM89,86.5h27v89.67H89ZM129,179.17h33V103.5H129Zm3-72.67h27v69.67H132ZM172,73.5V179.17h33V73.5Zm30,102.67H175V76.5h27Z"/></svg>