<svg id="Layer_1" data-name="Layer 1" xmlns="http://www.w3.org/2000/svg" xmlns:xlink="http://www.w3.org/1999/xlink" viewBox="0 0 250 190"><defs><style>.cls-1{fill:url(#linear-gradient);}.cls-2{fill:#b3d6f2;}</style><linearGradient id="linear-gradient" x1="125" y1="7.44" x2="125" y2="178.56" gradientUnits="userSpaceOnUse"><stop offset="0" stop-color="#026bb5"/><stop offset="1" stop-color="#00a5e9"/></linearGradient></defs><title>icon-aboutus-01</title><path id="icon-aboutus-01a" class="cls-1" d="M155.34,47c-1.93,1.2-3.12,4-1.43,7.66.74,1.58,1.41,2.87,2.06,4.13a36.07,36.07,0,0,1,3.78,9.62c1.29,5.58,1.33,14-1.52,20.09-2,4.38-6.44,9.64-10,10.5a2.66,2.66,0,0,1-2.46-.43c-3-2.33-1.25-11.38,2-19.12a65.24,65.24,0,0,1,4.08-7.39c3.2-5.25,5-8.15,2.9-9.61-1.34-.94-5.66-2.14-10.09-.78-3.16,1-7.47,3.6-10.12,10.64A87.38,87.38,0,0,0,130.74,86c-1.21,5.71-2.09,9.84-5.72,13.07a59.45,59.45,0,0,1-6,4.49c-6,4.07-12.71,8.67-14.51,17.32l-1.06,6.42a4.49,4.49,0,0,0-4.13,4.46v35.89a4.5,4.5,0,0,0,4.5,4.5h6.43v5.31a2.2,2.2,0,0,0,2.19,2.2h25.22a2.21,2.21,0,0,0,2.2-2.2v-5.31h6.43a4.51,4.51,0,0,0,4.5-4.5V131.78a4.49,4.49,0,0,0-3-4.23c1.55-3.26,3.76-5.66,6.5-8.61a78.5,78.5,0,0,0,10.64-13.78C170.34,96,173,87.35,173,78.68A47.29,47.29,0,0,0,162.71,49C160.28,46,157.26,45.81,155.34,47ZM136.81,176.68H113.2v-4.51h23.61Zm10.93-9a1.5,1.5,0,0,1-1.5,1.5H103.77a1.5,1.5,0,0,1-1.5-1.5V131.78a1.5,1.5,0,0,1,1.5-1.5h42.47a1.5,1.5,0,0,1,1.5,1.5Zm14.54-64A74.26,74.26,0,0,1,152,116.9c-3.05,3.3-5.69,6.16-7.46,10.38H106.45l1-5.83c1.54-7.4,7.49-11.46,13.25-15.39a62.92,62.92,0,0,0,6.36-4.73c4.36-3.89,5.37-8.65,6.65-14.69a86.54,86.54,0,0,1,3.65-13.26c1.77-4.71,4.5-7.67,8.11-8.81a11.47,11.47,0,0,1,7,.1,45.84,45.84,0,0,1-3.22,5.85A62.25,62.25,0,0,0,145,78.3c-1.24,3-7.12,17.93-1.07,22.65a5.72,5.72,0,0,0,5,1c4.68-1.13,9.69-7.11,12-12.16,3.15-6.78,3.13-16,1.72-22a39,39,0,0,0-4-10.33c-.63-1.22-1.29-2.49-2-4-.91-1.95-.51-3.34.3-3.85s2.17-.29,3.45,1.29A44.31,44.31,0,0,1,170,78.68C170,86.79,167.48,95,162.28,103.62Zm-61.77,16.1a1.5,1.5,0,0,0,.79-2.77,45,45,0,1,1,51.9-73.36,1.5,1.5,0,0,0,1.88-2.34A48,48,0,1,0,99.72,119.5,1.5,1.5,0,0,0,100.51,119.72Zm24.84-96.85a1.5,1.5,0,0,0,1.5-1.5V8.94a1.5,1.5,0,1,0-3,0V21.37A1.51,1.51,0,0,0,125.35,22.87ZM97.52,28.14a1.5,1.5,0,0,0,1.35.85,1.55,1.55,0,0,0,.66-.15,1.5,1.5,0,0,0,.69-2L94.81,15.66a1.5,1.5,0,0,0-2.7,1.3ZM78.88,45.47a1.51,1.51,0,0,0-.25-2.11l-9.74-7.71A1.5,1.5,0,0,0,67,38l9.74,7.71a1.48,1.48,0,0,0,.93.32A1.52,1.52,0,0,0,78.88,45.47Zm71.6-16.63a1.51,1.51,0,0,0,.65.15,1.49,1.49,0,0,0,1.35-.85L157.89,17a1.5,1.5,0,1,0-2.7-1.3l-5.41,11.18A1.5,1.5,0,0,0,150.48,28.84Zm32.74,7.05a1.5,1.5,0,0,0-2.11-.24l-9.74,7.71A1.5,1.5,0,0,0,172.3,46a1.46,1.46,0,0,0,.93-.32L183,38A1.51,1.51,0,0,0,183.22,35.89ZM138.84,138.05H111a1.5,1.5,0,0,0,0,3h27.81a1.5,1.5,0,0,0,0-3Zm0,10.17H111a1.5,1.5,0,0,0,0,3h27.81a1.5,1.5,0,0,0,0-3Zm0,10.17H111a1.5,1.5,0,1,0,0,3h27.81a1.5,1.5,0,1,0,0-3Z"/><path id="icon-aboutus-01b" class="cls-2" d="M84.07,118.44a1.49,1.49,0,0,0,.61-.13l.91-.41a1.5,1.5,0,1,0-1.22-2.74l-.92.41a1.5,1.5,0,0,0,.62,2.87Zm103.59-7.31a1.5,1.5,0,0,0,.71,2.82,1.53,1.53,0,0,0,.71-.18l1.76-1a1.5,1.5,0,1,0-1.45-2.63ZM193.91,85h.18l1.95-.21a1.5,1.5,0,1,0-.3-3l-2,.21a1.5,1.5,0,0,0,.16,3Zm2.34,21.24c-.56.33-1.12.67-1.7,1a1.5,1.5,0,0,0,.76,2.8,1.59,1.59,0,0,0,.75-.2l1.73-1a1.5,1.5,0,1,0-1.54-2.58ZM186,86.13l.25,0,2-.31a1.5,1.5,0,1,0-.46-3l-2,.31a1.5,1.5,0,0,0,.23,3ZM180,116.78a1.5,1.5,0,0,0,1.34.83,1.44,1.44,0,0,0,.67-.16l1.78-.9a1.5,1.5,0,1,0-1.36-2.68l-1.76.9A1.5,1.5,0,0,0,180,116.78Zm21.87-32.39h.06l1.94,0a1.5,1.5,0,0,0,0-3h0l-2,0a1.5,1.5,0,0,0,.06,3Zm7.76.21c.66.07,1.28.17,1.85.28a1.43,1.43,0,0,0,.29,0,1.5,1.5,0,0,0,.29-3c-.65-.13-1.35-.24-2.08-.32a1.5,1.5,0,1,0-.35,3Zm3.9,11.07a1.48,1.48,0,0,0,1,.4,1.51,1.51,0,0,0,1.1-.49c.5-.55,1-1.09,1.37-1.61a1.5,1.5,0,0,0-2.38-1.83c-.35.45-.75.93-1.2,1.41A1.5,1.5,0,0,0,213.5,95.67Zm2.81-8.16a2.37,2.37,0,0,1,.09.36,1.49,1.49,0,0,0,1.48,1.27.9.9,0,0,0,.23,0,1.49,1.49,0,0,0,1.25-1.71,4.57,4.57,0,0,0-.23-.9,4.91,4.91,0,0,0-.94-1.62,1.5,1.5,0,1,0-2.28,2A2.29,2.29,0,0,1,216.31,87.51Zm-7.73,13.83a1.52,1.52,0,0,0,.92-.31q.83-.63,1.59-1.26a1.5,1.5,0,1,0-1.9-2.32c-.49.39-1,.8-1.52,1.2a1.5,1.5,0,0,0,.91,2.69Zm-5.68.73-1.64,1.08a1.5,1.5,0,0,0,.82,2.76,1.56,1.56,0,0,0,.82-.24l1.67-1.11a1.5,1.5,0,1,0-1.67-2.49Zm-65.26,34.29a1.34,1.34,0,0,0,.52-.1l1.87-.69a1.5,1.5,0,1,0-1.05-2.81l-1.86.69a1.5,1.5,0,0,0,.52,2.91ZM33.7,152.71a2.05,2.05,0,0,1-.12-.72v-.16a1.5,1.5,0,1,0-3-.2c0,.13,0,.25,0,.37a5.18,5.18,0,0,0,.29,1.72,6,6,0,0,0,.27.63,1.5,1.5,0,0,0,1.33.8,1.45,1.45,0,0,0,.7-.17,1.5,1.5,0,0,0,.63-2A1.73,1.73,0,0,1,33.7,152.71ZM37.12,144A1.5,1.5,0,0,0,35,144c-.51.52-1,1-1.41,1.55A1.51,1.51,0,0,0,34.74,148a1.48,1.48,0,0,0,1.15-.54q.57-.67,1.26-1.38A1.49,1.49,0,0,0,37.12,144ZM159.8,127.53a1.52,1.52,0,0,0,.59-.12l1.83-.78a1.5,1.5,0,0,0-1.19-2.76l-1.82.78a1.5,1.5,0,0,0,.59,2.88Zm-14.73,6a1.49,1.49,0,0,0,.55-.1l1.85-.72a1.5,1.5,0,0,0-1.09-2.8l-1.85.72a1.51,1.51,0,0,0-.85,2A1.49,1.49,0,0,0,145.07,133.53Zm7.39-2.94a1.44,1.44,0,0,0,.57-.11l1.84-.75a1.5,1.5,0,0,0-1.14-2.78l-1.83.75a1.5,1.5,0,0,0,.56,2.89Zm-35.93,10-1.88.61a1.5,1.5,0,0,0,.46,2.93,1.54,1.54,0,0,0,.46-.08l1.89-.61a1.5,1.5,0,1,0-.93-2.85Zm-22.77,6.8-1.91.52a1.5,1.5,0,0,0,.38,3,1.74,1.74,0,0,0,.39-.05l1.93-.52a1.5,1.5,0,0,0-.79-2.9Zm-7.66,2-1.93.48a1.5,1.5,0,0,0,.36,2.95,1.45,1.45,0,0,0,.35,0l1.94-.48a1.5,1.5,0,0,0-.72-2.91Zm-7.7,1.83-1.94.42a1.5,1.5,0,0,0,.32,3,1.17,1.17,0,0,0,.32,0l2-.43a1.5,1.5,0,1,0-.65-2.92Zm-7.74,1.62-2,.37a1.5,1.5,0,0,0,.28,3,1.24,1.24,0,0,0,.27,0l2-.37a1.5,1.5,0,0,0-.57-2.95ZM39.6,155.52c-.65-.09-1.26-.21-1.82-.34a1.5,1.5,0,1,0-.7,2.91c.64.16,1.34.29,2.08.4l.22,0a1.5,1.5,0,0,0,.22-3Zm84.46-17.4-1.88.64a1.49,1.49,0,0,0-.94,1.9,1.5,1.5,0,0,0,1.42,1,1.61,1.61,0,0,0,.48-.08L125,141a1.5,1.5,0,1,0-1-2.84ZM68.36,126l1.77-.89a1.5,1.5,0,0,0-1.34-2.69l-1.78.9A1.5,1.5,0,0,0,68.36,126Zm33,19.33-1.9.54a1.5,1.5,0,1,0,.82,2.89l1.92-.55a1.5,1.5,0,0,0-.84-2.88ZM109,143l-1.89.57a1.5,1.5,0,0,0,.43,2.94,1.72,1.72,0,0,0,.44-.06l1.9-.59A1.5,1.5,0,1,0,109,143Zm23.57-4.71a1.5,1.5,0,0,0-1-2.83l-1.87.67a1.5,1.5,0,0,0,.5,2.91,1.42,1.42,0,0,0,.5-.08Zm-84.72-4.23-1.68,1.1a1.5,1.5,0,0,0,1.66,2.5c.53-.36,1.08-.71,1.64-1.07a1.5,1.5,0,1,0-1.62-2.53Zm7.25,21.21-2,.2a1.5,1.5,0,0,0,.14,3h.14l2-.2a1.5,1.5,0,0,0-.32-3Zm7.8-1.05-2,.3a1.5,1.5,0,0,0,.22,3h.22l2-.31a1.5,1.5,0,1,0-.47-3ZM41.2,138.67c-.55.42-1.09.83-1.6,1.24a1.5,1.5,0,0,0,.93,2.67,1.46,1.46,0,0,0,.93-.32L43,141.07a1.5,1.5,0,1,0-1.8-2.4Zm6.07,17.19-1.81,0h-.14a1.46,1.46,0,0,0-1.46,1.5,1.53,1.53,0,0,0,1.54,1.5l2,0a1.5,1.5,0,0,0,1.46-1.54A1.47,1.47,0,0,0,47.27,155.86Zm14.09-26.23,1.74-.93a1.5,1.5,0,0,0-1.41-2.65l-1.76,1a1.5,1.5,0,0,0,.71,2.82A1.46,1.46,0,0,0,61.36,129.63Zm-6.67.3-1.73,1a1.5,1.5,0,1,0,1.52,2.58l1.71-1a1.5,1.5,0,1,0-1.5-2.6Zm125.15-42.7a1.43,1.43,0,0,0,.29,0l1-.18a1.5,1.5,0,1,0-.56-3l-1,.19a1.5,1.5,0,0,0,.28,3Zm-65.48,50a1.32,1.32,0,0,0,.51.1,1.5,1.5,0,0,0,.52-2.91c-23.76-8.7-45.33-18.49-60.73-27.57-17-10-21.95-16.53-21-19.3,1.08-3,10.88-5,34.9-.55a1.49,1.49,0,0,0,1.75-1.2A1.51,1.51,0,0,0,69.15,84c-16-3-35.62-5-38.28,2.5C26.7,98.2,69.71,120.86,114.36,137.19Zm52.87-21.39a1.5,1.5,0,0,0-1.23,2.74c35.39,15.83,52.09,29.17,50.31,34.17-1.95,5.46-30,5.27-84-12.46a1.5,1.5,0,0,0-.94,2.85c26.85,8.82,55.93,15.73,73,15.73,8,0,13.45-1.53,14.72-5.11C223.33,142,180.47,121.72,167.23,115.8ZM143.46,45.93a4.94,4.94,0,1,0-6.57,7.39,56,56,0,0,1,7.3,8.51l.44-.15c4.43-1.36,8.75-.16,10.09.78,2.06,1.46.3,4.36-2.9,9.61-.38.63-.78,1.28-1.17,1.94.34.95.67,1.9.94,2.89s.45,2.91.6,5.15a.89.89,0,0,1-1.74.28,51.25,51.25,0,0,0-1.66-5c-.4.76-.77,1.5-1,2.17-3.24,7.74-5,16.79-2,19.12a2.66,2.66,0,0,0,2.46.43c3.58-.86,8-6.12,10-10.5,2.35-5.08,2.74-11.68,2.06-17a56.68,56.68,0,0,0-3.85-8.77A68,68,0,0,0,143.46,45.93Zm-17.94,8.42a5,5,0,0,0,.38,7.28,53.17,53.17,0,0,1,8.83,10.15A17.7,17.7,0,0,1,141,63.43a55.84,55.84,0,0,0-8.65-9.28A5.07,5.07,0,0,0,125.52,54.35ZM119.4,67.59a4.33,4.33,0,0,0,.31,6.11,43.43,43.43,0,0,1,6,7.33c.79,1.31,3.56,6.76,1.12,15a12.12,12.12,0,0,1-.92,2.18c2.91-3.1,3.74-7,4.85-12.22.6-2.84,1.26-6,2.35-9.5a52.93,52.93,0,0,0-7.58-9.25A4.32,4.32,0,0,0,119.4,67.59Z"/></svg>