<?xml version="1.0" encoding="utf-8"?>
<!-- Generator: Adobe Illustrator 23.0.3, SVG Export Plug-In . SVG Version: 6.00 Build 0)  -->
<svg version="1.1" id="Layer_1" xmlns="http://www.w3.org/2000/svg" xmlns:xlink="http://www.w3.org/1999/xlink" x="0px" y="0px"
	 viewBox="0 0 250 190" style="enable-background:new 0 0 250 190;" xml:space="preserve">
<style type="text/css">
	.st0{fill:url(#SVGID_1_);}
	.st1{fill:#B3D6F2;}
</style>
<linearGradient id="SVGID_1_" gradientUnits="userSpaceOnUse" x1="20.7719" y1="95" x2="229.7028" y2="95">
	<stop  offset="0" style="stop-color:#026BB5"/>
	<stop  offset="0.9986" style="stop-color:#00A5E9"/>
</linearGradient>
<path class="st0" d="M63.9,95.9c0.8-1.9,0.8-4.1-0.2-5.9L44.9,52.6c1.4-0.4,2.8-1.1,4.1-2.2c0.6-0.5,0.7-1.5,0.2-2.1
	c-0.5-0.6-1.5-0.7-2.1-0.2c-3.9,3.2-8.8,1.9-11.4-1c-2.1-2.3-3-6,0.6-9.6c4-3.9,7.5-1.8,13.3,2.2c3.9,2.7,8.3,5.8,13.4,5.8
	c5.6,0,9.6-1.2,13.4-2.3c4-1.2,7.8-2.3,13.5-2.3s9.5,1.1,13.5,2.3c3.8,1.1,7.8,2.3,13.4,2.3c5.1,0,9.5-3.1,13.4-5.8
	c5.9-4.1,9.4-6.2,13.3-2.2c3.6,3.6,2.7,7.3,0.6,9.6c-2.6,2.9-7.5,4.2-11.4,1c-0.6-0.5-1.6-0.4-2.1,0.2c-0.5,0.6-0.4,1.6,0.2,2.1
	c1.3,1,2.6,1.7,4,2.1L116,89.9c-0.9,1.8-1,4-0.2,5.9c3.6,8.5,12,14.1,21.3,14.1c9.3,0,17.6-5.5,21.3-14.1c0.8-1.9,0.8-4.1-0.2-5.9
	l-18.7-37.1c2.7-0.4,5.2-1.8,6.9-3.7c3.1-3.4,4-9-0.7-13.7c-6-5.9-11.9-1.7-17.2,1.9c-3.7,2.6-7.5,5.2-11.6,5.2
	c-5.2,0-8.7-1.1-12.5-2.2c-4-1.2-8.2-2.5-14.4-2.5s-10.3,1.2-14.4,2.5c-3.8,1.1-7.4,2.2-12.5,2.2c-4.1,0-7.9-2.7-11.6-5.2
	c-5.3-3.7-11.2-7.8-17.2-1.9c-4.8,4.7-3.8,10.3-0.7,13.7c1.7,1.9,4.1,3.3,6.8,3.7L21.5,89.9c-0.9,1.8-1,4-0.2,5.9
	c3.6,8.5,12,14.1,21.3,14.1C51.9,109.9,60.2,104.4,63.9,95.9z M137.1,54.8l18.4,36.4h-36.7L137.1,54.8z M137.1,106.9
	c-8.1,0-15.3-4.8-18.5-12.2c-0.1-0.2-0.1-0.3-0.2-0.5h37.3c0,0.2-0.1,0.3-0.2,0.5C152.5,102.1,145.2,106.9,137.1,106.9z M61,91.2
	H24.2l18.4-36.4L61,91.2z M24.1,94.7c-0.1-0.2-0.1-0.3-0.2-0.5h37.3c0,0.2-0.1,0.3-0.2,0.5c-3.2,7.4-10.4,12.2-18.5,12.2
	S27.3,102.1,24.1,94.7z M128.9,150.5h-14.2c-0.6-6-5.6-10.7-11.7-10.7h-7.4V48c0-3-2.5-5.5-5.5-5.5h-0.3c-3,0-5.5,2.5-5.5,5.5v91.8
	h-7.4c-6.1,0-11.2,4.7-11.7,10.7H50.9c-6.5,0-11.8,5.3-11.8,11.8v1.9h101.6v-1.9C140.7,155.8,135.4,150.5,128.9,150.5z M87.3,48
	c0-1.4,1.1-2.5,2.5-2.5h0.3c1.4,0,2.5,1.1,2.5,2.5v91.8h-5.2V48z M76.9,142.8h7.4h11.2h7.4c4.5,0,8.2,3.3,8.7,7.7H68.2
	C68.7,146.2,72.4,142.8,76.9,142.8z M42.2,161.2c0.6-4.3,4.3-7.7,8.7-7.7h78c4.5,0,8.2,3.3,8.7,7.7H42.2z M89.9,37
	c3.1,0,5.6-2.5,5.6-5.6s-2.5-5.6-5.6-5.6c-3.1,0-5.6,2.5-5.6,5.6S86.8,37,89.9,37z M89.9,28.8c1.4,0,2.6,1.2,2.6,2.6
	S91.3,34,89.9,34s-2.6-1.2-2.6-2.6S88.5,28.8,89.9,28.8z M229.6,108c-1-13.9-7.4-26.6-18-35.7c-10.6-9.1-24.1-13.5-38-12.5
	c-6.9,0.5-13.5,2.4-19.7,5.5c-0.7,0.4-1,1.3-0.7,2c0.4,0.7,1.3,1,2,0.7c5.8-2.9,12-4.7,18.5-5.1c27.1-2,50.8,18.3,52.8,45.4
	c1,13.1-3.2,25.8-11.8,35.8c-8.6,10-20.5,16-33.6,17c-13.1,1-25.8-3.2-35.8-11.8c-10-8.6-16-20.5-17-33.6c-0.1-0.8-0.8-1.5-1.6-1.4
	c-0.8,0.1-1.4,0.8-1.4,1.6c1,13.9,7.4,26.6,18,35.7c9.6,8.2,21.5,12.6,34,12.6c1.3,0,2.7,0,4-0.1c13.9-1,26.6-7.4,35.7-18
	S230.6,121.9,229.6,108z"/>
<path class="st1" d="M22.9,93.2h39.3c0,0-0.2,15-19.7,15S22.9,93.2,22.9,93.2z M137.1,108.2c19.5,0,19.7-15,19.7-15h-39.3
	C117.5,93.2,117.7,108.2,137.1,108.2z M184.4,91.5c-2.4,0-4.4,0.2-6,0.7c-1.7,0.5-3,1.2-4,2.1c-1,1-1.8,2.3-2.3,3.8
	c-0.5,1.6-0.7,3.5-0.7,5.7v16.7c0,2.2,0.2,4.2,0.7,5.7c0.5,1.6,1.2,2.8,2.3,3.8c1,1,2.4,1.7,4,2.1c1.7,0.4,2.1,0.7,4.4,0.7h6.1
	c2.4,0,4.4-0.2,6-0.7c1.7-0.4,3-1.1,4-2.1c1-1,1.8-2.3,2.3-3.8c0.5-1.6,0.7-3.5,0.7-5.7v-16.7c0-2.2-0.2-4.1-0.7-5.7
	c-0.5-1.6-1.2-2.8-2.3-3.8c-1-1-2.4-1.7-4-2.1c-1.7-0.5-3.7-0.7-6-0.7H184.4z M178.2,104.1c0-1.2,0.1-2.3,0.3-3.1
	c0.2-0.8,0.5-1.5,1-2c0.5-0.5,1.1-0.8,1.9-1.1c0.8-0.2,1.8-0.3,3-0.3h4.5c1.2,0,2.2,0.1,3,0.3c0.8,0.2,1.4,0.6,1.9,1.1
	c0.5,0.5,0.8,1.2,1,2c0.2,0.8,0.3,1.8,0.3,3.1v16.2c0,1.2-0.1,2.3-0.3,3.1c-0.2,0.8-0.5,1.5-1,2c-0.5,0.5-1.1,0.8-1.9,1
	c-0.8,0.2-1.8,0.3-3,0.3h-4.5c-1.2,0-2.2-0.1-3-0.3c-0.8-0.2-1.4-0.5-1.9-1c-0.5-0.5-0.8-1.1-1-2c-0.2-0.8-0.3-1.9-0.3-3.1V104.1z
	 M166.3,126.1c0,0.9-0.2,1.7-0.5,2.3c-0.4,0.7-0.9,1.3-1.5,1.7c-0.6,0.5-1.4,0.8-2.2,1.1c-0.5,0.1-1,0.2-1.5,0.3v1.4h-2.7v-1.5
	c-0.4-0.1-0.9-0.2-1.3-0.4c-0.9-0.3-1.6-0.8-2.3-1.4c-0.7-0.6-1.2-1.3-1.6-2.1c-0.4-0.8-0.6-1.7-0.6-2.6v-0.5h3.5v0.5
	c0,0.5,0.1,1,0.3,1.4c0.2,0.5,0.4,0.9,0.8,1.2c0.3,0.3,0.7,0.6,1.2,0.8c0.9,0.4,2,0.4,2.9,0.1c0.4-0.1,0.8-0.3,1.1-0.5
	c0.3-0.2,0.5-0.5,0.7-0.8c0.2-0.3,0.3-0.7,0.3-1.1c0-0.5-0.1-0.9-0.4-1.2c-0.3-0.4-0.6-0.7-1-0.9c-0.4-0.3-0.9-0.5-1.4-0.6
	c-0.5-0.2-1-0.3-1.5-0.4c-0.7-0.2-1.5-0.4-2.2-0.7c-0.7-0.3-1.3-0.7-1.9-1.2c-0.6-0.5-1-1-1.4-1.7c-0.4-0.7-0.5-1.4-0.5-2.2
	c0-0.7,0.2-1.4,0.6-2.1c0.4-0.6,0.9-1.2,1.5-1.6c0.6-0.5,1.3-0.8,2.1-1.1c0.3-0.1,0.7-0.2,1-0.2v-1.5h3v1.5c0.6,0.1,1.2,0.3,1.7,0.5
	c0.9,0.4,1.6,0.9,2.1,1.6c0.5,0.6,0.9,1.3,1.1,2c0.2,0.7,0.3,1.3,0.3,1.9v0.5h-3.5V118c0-0.4-0.1-0.9-0.3-1.3
	c-0.2-0.4-0.4-0.7-0.7-1c-0.3-0.3-0.6-0.5-1-0.7c-0.7-0.3-1.6-0.3-2.3-0.1c-0.4,0.1-0.7,0.3-1,0.5c-0.3,0.2-0.5,0.4-0.7,0.7
	c-0.2,0.3-0.2,0.6-0.2,0.9c0,0.4,0.1,0.8,0.3,1.1c0.2,0.3,0.5,0.6,0.9,0.9c0.4,0.3,0.8,0.5,1.3,0.6c0.5,0.2,1,0.3,1.4,0.4
	c0.8,0.2,1.6,0.4,2.3,0.7c0.8,0.3,1.5,0.7,2.1,1.2c0.6,0.5,1.1,1.1,1.5,1.7C166.1,124.4,166.3,125.2,166.3,126.1z"/>
</svg>
