<svg id="Layer_1" data-name="Layer 1" xmlns="http://www.w3.org/2000/svg" xmlns:xlink="http://www.w3.org/1999/xlink" viewBox="0 0 250 190"><defs><style>.cls-1{fill:url(#linear-gradient);}.cls-2{fill:#b3d6f2;}</style><linearGradient id="linear-gradient" x1="125.04" y1="13.35" x2="125.04" y2="180.78" gradientUnits="userSpaceOnUse"><stop offset="0" stop-color="#026bb5"/><stop offset="1" stop-color="#00a5e9"/></linearGradient></defs><title>icon-nodoc-02</title><path id="icon-nodoc-02a" class="cls-1" d="M235.53,161.62V32.22a12.6,12.6,0,0,0-12.6-12.6H156.56a1.5,1.5,0,0,0-1.5,1.5h0a1.5,1.5,0,0,0,1.5,1.5h66.37a9.6,9.6,0,0,1,9.6,9.6v129.4h-90l-5,7.67h-25l-5-7.67H19V32.22a9.6,9.6,0,0,1,9.6-9.6H93.52a1.5,1.5,0,0,0,1.5-1.5h0a1.5,1.5,0,0,0-1.5-1.5H28.57A12.6,12.6,0,0,0,16,32.22v129.4H5.34v5.49a12.6,12.6,0,0,0,12.6,12.6H232.15a12.6,12.6,0,0,0,12.59-12.6v-5.49Zm6.21,5.49a9.61,9.61,0,0,1-9.59,9.6H17.94a9.62,9.62,0,0,1-9.6-9.6v-2.49h97.57l5,7.67h28.28l5-7.67h97.56ZM28.73,32V152.33h194V32H162.56a1.5,1.5,0,0,0-1.5,1.5h0a1.5,1.5,0,0,0,1.5,1.5h57.21V149.33h-188V35H87.52a1.5,1.5,0,0,0,1.5-1.5h0a1.5,1.5,0,0,0-1.5-1.5Zm119.64,90.52H101.71v-16h46.66Z"/><path id="icon-nodoc-02b" class="cls-2" d="M148.48,58.58a20.74,20.74,0,0,0-5.19-6.21A30.48,30.48,0,0,0,136,48a45.64,45.64,0,0,0-8.35-2.59q-2.37-.55-5-1.42a18.3,18.3,0,0,1-4.46-2.18A12.54,12.54,0,0,1,115,38.69a6.94,6.94,0,0,1-1.15-4,5.88,5.88,0,0,1,.87-3.15,9,9,0,0,1,2.42-2.57,11.1,11.1,0,0,1,3.48-1.66,12,12,0,0,1,12,2.6,11.55,11.55,0,0,1,2.58,3.55,10.6,10.6,0,0,1,.95,4.47v1.77h12.5V37.89a23.61,23.61,0,0,0-1.08-6.65,20,20,0,0,0-3.79-7,21.42,21.42,0,0,0-7.35-5.57,22.41,22.41,0,0,0-5.93-1.76V11.7H119.65v5.19a26.47,26.47,0,0,0-3.52.83,25.4,25.4,0,0,0-7.45,3.79,20.21,20.21,0,0,0-5.28,5.82,14.27,14.27,0,0,0-2.05,7.41,16.46,16.46,0,0,0,1.89,7.87,20.81,20.81,0,0,0,4.85,6,27.28,27.28,0,0,0,6.73,4.21,36.62,36.62,0,0,0,7.68,2.48q2.56.55,5.45,1.47a22.38,22.38,0,0,1,5,2.31,13.42,13.42,0,0,1,3.64,3.34,7,7,0,0,1,1.32,4.32,7.8,7.8,0,0,1-.93,3.95,8.9,8.9,0,0,1-2.62,2.81,11.8,11.8,0,0,1-4,1.74c-3.38.84-7.33.88-10.36-.49a13.81,13.81,0,0,1-4.26-3,12.76,12.76,0,0,1-2.72-4.28,14.14,14.14,0,0,1-1-5V60.73H99.64V62.5a20.91,20.91,0,0,0,2.14,9.3,24.58,24.58,0,0,0,5.71,7.5,27.58,27.58,0,0,0,8.25,5,27.08,27.08,0,0,0,4.54,1.33V91h9.55V85.93a34.13,34.13,0,0,0,5.38-1,25.13,25.13,0,0,0,8-3.74A17.61,17.61,0,0,0,148.55,75a17.85,17.85,0,0,0,1.9-8.33A16.67,16.67,0,0,0,148.48,58.58Zm17.9,76.72-10-10,6.91-6.94L138,112.86l5.7,25.22,6.72-6.76,10,10Z"/></svg>