<?xml version="1.0" encoding="utf-8"?>
<!-- Generator: Adobe Illustrator 23.0.1, SVG Export Plug-In . SVG Version: 6.00 Build 0)  -->
<svg version="1.1" id="Layer_1" xmlns="http://www.w3.org/2000/svg" xmlns:xlink="http://www.w3.org/1999/xlink" x="0px" y="0px"
	 viewBox="0 0 250 190" style="enable-background:new 0 0 250 190;" xml:space="preserve">
<style type="text/css">
	.st0{fill:url(#icon-ploan-03a_1_);}
	.st1{fill:#B3D6F2;}
</style>
<title>icon-bt-01</title>
<linearGradient id="icon-ploan-03a_1_" gradientUnits="userSpaceOnUse" x1="124.9850693" y1="179.3800049" x2="124.9850693" y2="11.2699995" gradientTransform="matrix(1 0 0 -1 0 192)">
	<stop  offset="0" style="stop-color:#026BB5"/>
	<stop  offset="1" style="stop-color:#00A5E9"/>
</linearGradient>
<path id="icon-ploan-03a" class="st0" d="M222.5200043,89.3899994c-1.5110321-0.978241-2.9543152-2.0573578-4.3200073-3.2300034
	c1.7075958-0.2891846,3.2853088-1.0954895,4.5200043-2.3099976c1-1.1399994,2-3.2300034,0.8999939-6.6800003
	c-0.8634796-2.7256393-3.4541779-4.5280457-6.3099976-4.3899994c-2.9068146-0.036438-5.4962463,1.8305435-6.3800049,4.5999985
	c-0.5224915,2.1190186-0.134491,4.359993,1.0700073,6.1800003c-2.3086853-0.1098099-4.605484-0.3973312-6.8699951-0.8600006
	c-5.8200073-16.2099991-19.6399994-30-39.3699951-38.6599998l-0.8899994-0.3899994l-0.7200012,0.6500015
	c-11.3410492,10.2508659-28.8447571,9.3670959-39.0956345-1.9739571c-1.6419067-1.8165321-3.0355301-3.8428955-4.144371-6.0260429
	l-0.4300003-0.8400002h-0.9300003c-10,0.1699982-15.6100006,1.2999992-17.4300003,1.7400017
	C88.2600021,28.9400005,74.5899963,25.1100006,60.4000015,25.5c-0.2957153,0.0072365-0.5902023,0.0407028-0.8800011,0.1000004
	l-0.4500008,0.0799999l-1.4799995,0.2199993l0.2200012,1.4799995c1.2000008,8.2700024,4.5400009,15.9999981,10.4900017,24.1799984
	h-0.0699997C58.6500015,58.1899986,52,66.4700012,48.3800011,76.2399979
	c-1.2400017,3.3499985-3.1599998,4.4300003-5.8699989,5.0800018l-1.1599998,0.2799988
	c-1.8891373,0.5233688-3.8194618,0.8846741-5.7700005,1.0800018c-4.8999996,0.3499985-8,2.5999985-9.4599991,6.8899994
	l-0.0699997,0.1900024l-0.1800003,3.4700012v0.1800003c0.2600002,1.4199982,0.5,2.8499985,0.7299995,4.2799988
	c0.4099998,2.4899979,0.8299999,5.0800018,1.4400005,7.5899963c1.1000004,4.5400009,2.8799992,10.3700027,6.9299984,15.2200012
	c2.8989182,3.6600723,7.170536,5.9729691,11.8199997,6.4000015c7,0.6399994,26.5699997,10.4699936,33.659996,47.8199997
	c0.5854568,3.1322937,3.3134842,5.4070587,6.5,5.4199982h18.8799973c2.8306732,0.0011139,5.347847-1.8003235,6.2600021-4.4799957
	L115.7999954,164.75c3.4196243,0.3281097,6.8553543,0.4583282,10.2900009,0.3899994
	c4.0338287-0.0922241,8.0597229-0.4026794,12.0599976-0.9299927l3.8999939,11.4499969
	c0.9083862,2.6781158,3.4220276,4.4798889,6.25,4.4799957h18.8300018c3.2104187-0.0004578,5.9562988-2.3076782,6.5099945-5.4700012
	c2.6100006-14.6800079,6.7100067-20,15.6900024-31.6999969c2.4100037-3.1399994,5.1499939-6.6900024,8.2799988-11
	c6.8140717-9.1549454,10.5245056-20.2477188,10.5899963-31.6600037c0.0081177-4.8599243-0.6651001-9.6969986-2-14.3700027
	c2.6829071,0.4766769,5.4054413,0.6943436,8.1300049,0.6500015c1.9577637,2.0233765,4.1499176,3.8059692,6.5299988,5.3099976
	c0.2456818,0.1547546,0.5296631,0.2378693,0.8200073,0.2399979c0.8284302,0.0004654,1.5003815-0.670723,1.5008392-1.4991531
	c0.0002899-0.5030594-0.2516174-0.9727707-0.6708374-1.2508469L222.5200043,89.3899994z M195.230011,130.2099915
	c-3.1100006,4.2700043-5.8399963,7.8099976-8.2400055,10.9400024c-9,11.7100067-13.5299988,17.5899963-16.2599945,33
	c-0.2972412,1.7337952-1.8009033,3.0009308-3.5599976,3h-18.8300171c-1.5445557-0.0005951-2.9166107-0.9863739-3.4100037-2.4499969
	l-4.6999969-13.8000031L139,161.0799866c-4.2876892,0.6182861-8.6089783,0.9756165-12.9400024,1.0700073
	c-3.7033463,0.074173-7.4076233-0.0895081-11.0899963-0.4900055l-1.1900024-0.1399994l-4.4899979,13.1799927
	c-0.4945679,1.4671173-1.8717728,2.4537048-3.4199982,2.4499969H87c-1.7523346-0.0120392-3.2459106-1.2742157-3.5500031-3
	c-6.6500015-35-25.3700027-49.2400055-36.3300018-50.25c-3.8599625-0.3633118-7.4021339-2.2934341-9.7999992-5.3399963
	c-3.6500015-4.3700027-5.2900009-9.7700043-6.3099995-14c-0.5900002-2.4000015-1-4.9199982-1.3999996-7.3600006
	c-0.2299995-1.4000015-0.4500008-2.8000031-0.7099991-4.1900024L29,90.3399963c1.0900002-3,3.1300011-4.4100037,6.7700005-4.6600037
	c2.1197052-0.2093353,4.2174492-0.6007767,6.2700005-1.1699982l1.1500015-0.2799988c3.7719727-0.640892,6.8640747-3.3464813,8-7
	c3.3800011-9.1699982,9.6800003-17,18.7399979-23.2000008c0.3199997-0.2200012,0.6299973-0.4599991,0.9499969-0.7200012
	l1.5800018-1.2400017l-0.8899994-1.1800003C65.7799988,43.2400017,62.4000015,36.0600014,61,28.4799995
	c13.5899963-0.2600002,26.7200012,3.5400009,40.1300049,11.6100006l0.5599976,0.3400002c0,0,6-1.6899986,17-2
	c8.1198959,14.8654823,26.7532196,20.3338585,41.6187134,12.2139626c1.8216095-0.9950066,3.5374908-2.1723633,5.1212921-3.5139618
	c18.6100006,8.3600006,31.6000061,21.5200005,37,36.8499947c0.0116119,0.2931976,0.1051483,0.5772705,0.2700043,0.8199997
	c1.6716461,4.9863129,2.5227203,10.2109375,2.5200043,15.4700012c-0.0540009,10.78965-3.5542297,21.2797623-9.9900208,29.9400101
	L195.230011,130.2099915z M213.8200073,78.2099915c0.5458221-1.4814453,1.9715576-2.4533463,3.5500031-2.4199982h0.0899963
	c1.5039673-0.06353,2.8624725,0.8927612,3.3099976,2.3300018c0.8300018,2.5100021,0,3.4199982-0.2700043,3.7200012
	c-0.8999939,1-2.6999969,1.5-4.8600006,1.6900024c-2.2100067-2.7999954-2.0200043-4.6399994-1.8199921-5.3300018V78.2099915z
	 M77.1699982,71.3399963c-3.6666946-0.2098465-6.8092499,2.5924759-7.0190964,6.2591705
	c-0.2098541,3.6666946,2.5924759,6.8092575,6.2591705,7.019104s6.8092499-2.5924835,7.0190964-6.2591782
	C83.4360123,78.2395172,83.4396286,78.1197739,83.4400024,78C83.5354462,74.4341354,80.7351303,71.4596405,77.1699982,71.3399963z"
	/>
<path id="icon-ploan-03b" class="st1" d="M168.0800018,23.7600002c0.0055237,12.3987904-10.041214,22.4544735-22.4400024,22.4599972
	c-12.3987885,0.0055199-22.4544754-10.0412102-22.4599915-22.4400005
	c-0.0055237-12.3987923,10.0411987-22.4544754,22.4400024-22.4599972c0.0066528-0.000003,0.0133209-0.000003,0.019989,0
	C158.0309906,1.3255173,168.0744781,11.3690157,168.0800018,23.7600002z M153,26.3199997
	c-0.377121-0.7871552-0.9035339-1.4935703-1.5500031-2.0799999c-0.65625-0.5891151-1.3937988-1.0808125-2.1900024-1.460001
	c-0.8021545-0.3728466-1.639679-0.6643066-2.5-0.8700008c-0.5045624-0.1304474-1.0019226-0.2873306-1.4900055-0.4699993
	c-0.4806213-0.1750317-0.9322968-0.4210987-1.3399963-0.7299995c-0.394516-0.2861557-0.7334137-0.6420002-1-1.0499992
	c-0.2408447-0.4083214-0.3621216-0.8760967-0.3500061-1.3500004c-0.0041809-0.3696117,0.0852661-0.7342701,0.2599945-1.0599995
	c0.1867676-0.3302479,0.4344788-0.6220722,0.7299957-0.8600006c0.2958984-0.2444229,0.6351318-0.4309998,1-0.5500002
	c0.8094177-0.2944241,1.7011566-0.2657738,2.4900055,0.0799999c0.4120331,0.1936121,0.7849121,0.4614058,1.1000061,0.79
	c0.3244629,0.3446732,0.5851746,0.7442036,0.7700043,1.1800003c0.191452,0.4766121,0.2866058,0.9864178,0.2799988,1.5V20h3.7400055
	v-0.5900002c-0.0093384-0.7540779-0.1169128-1.5037231-0.3200073-2.2299995
	c-0.2279205-0.8465385-0.611084-1.6433849-1.1300049-2.3500004c-0.5876617-0.77421-1.3388367-1.4092922-2.1999969-1.8599997
	c-0.5582123-0.2899876-1.1590881-0.489152-1.7799988-0.5900002v-1.7600002h-3.1199951v1.7399998
	c-0.357193,0.0639067-0.7084198,0.1575661-1.0500031,0.2799997c-0.8132019,0.2867718-1.5684662,0.7168989-2.2299957,1.2700005
	c-0.6490784,0.5404587-1.1858826,1.2029591-1.5800018,1.9499998c-0.4083405,0.7623377-0.6181183,1.6152296-0.6100006,2.4800005
	c-0.0099487,0.9072742,0.1813049,1.805479,0.5599976,2.6300011c0.3565826,0.7499523,0.8480988,1.4279041,1.4499969,2
	c0.5904236,0.5724754,1.2648773,1.0513382,2,1.4200001c0.7256927,0.3688259,1.4951324,0.6443481,2.2899933,0.8199997
	c0.5549164,0.1382885,1.1023102,0.3051777,1.6399994,0.5c0.5324402,0.187849,1.0370178,0.4468632,1.5,0.7700005
	c0.4309845,0.3009338,0.8008728,0.6810055,1.0899963,1.1200008c0.2764587,0.4282494,0.4159698,0.930521,0.3999939,1.4400005
	c0.0096436,0.4589157-0.0861511,0.9139252-0.2799988,1.3299999c-0.1984711,0.3625698-0.4669952,0.6820889-0.7899933,0.9400005
	c-0.3522491,0.2676182-0.7529449,0.4645691-1.1799927,0.5799999c-1.019043,0.3204842-2.1193695,0.2636948-3.1000061-0.1599998
	c-0.4879456-0.2464294-0.922821-0.5861759-1.2799988-1c-0.3560638-0.4225082-0.6307068-0.9073696-0.8099976-1.4300003
	c-0.1898804-0.5433121-0.2878876-1.1144695-0.2899933-1.6900005V27h-3.7299957v0.5900002
	c-0.008316,1.0701942,0.2097931,2.1300488,0.6399994,3.1100006c0.4053345,0.9352779,0.9818878,1.7865601,1.6999969,2.5099983
	c0.7148285,0.707489,1.5516052,1.2800179,2.4700012,1.6899986c0.4364624,0.194458,0.8923492,0.3419533,1.3600006,0.4399986
	v1.7900009h2.8600006v-1.7000008c0.5454559-0.0616455,1.0842743-0.1720886,1.6100006-0.3300018
	c0.8683929-0.2669754,1.6790619-0.6943512,2.3899994-1.2599983c0.6851349-0.5540237,1.2327576-1.2590828,1.6000061-2.0599995
	c0.3929443-0.8767414,0.5875702-1.8293915,0.5700073-2.789999C153.6037598,28.0661564,153.3986511,27.1534157,153,26.3199997z"/>
</svg>
