<?xml version="1.0" encoding="utf-8"?>
<!-- Generator: Adobe Illustrator 23.0.1, SVG Export Plug-In . SVG Version: 6.00 Build 0)  -->
<svg version="1.1" id="Layer_1" xmlns="http://www.w3.org/2000/svg" xmlns:xlink="http://www.w3.org/1999/xlink" x="0px" y="0px"
	 viewBox="0 0 250 190" style="enable-background:new 0 0 250 190;" xml:space="preserve">
<style type="text/css">
	.st0{fill:url(#SVGID_1_);}
	.st1{fill:#B3D6F2;}
</style>
<linearGradient id="SVGID_1_" gradientUnits="userSpaceOnUse" x1="127.3217163" y1="14.2103786" x2="127.3217163" y2="196.0629425">
	<stop  offset="0" style="stop-color:#026BB5"/>
	<stop  offset="0.9042372" style="stop-color:#00A5E9"/>
</linearGradient>
<path class="st0" d="M218.2480011,31.3573666c0-10.8454437-8.8237305-19.6697159-19.6697235-19.6697159h-14.5352631
	c-0.9161224,0-1.6584015,0.7428236-1.6584015,1.6583967v103.9564667c0,0.9155731,0.7422791,1.6584015,1.6584015,1.6584015
	h14.5352631c9.0169983,0,16.3529205,7.3353806,16.3529205,16.3529129c0,9.0175476-7.3359222,16.3529205-16.3529205,16.3529205
	H65.6230698V87.9177856c0-0.9155731-0.7422791-1.6583939-1.6583939-1.6583939s-1.6583977,0.7428207-1.6583977,1.6583939v65.4073639
	c0,0.9155731,0.7422829,1.6584015,1.6583977,1.6584015h134.6136017c10.845993,0,19.6697235-8.8242798,19.6697235-19.6697235
	c0-0.3260651-0.0081024-0.64888-0.0237579-0.9706268c0.0156555-0.0917816,0.0237579-0.1846313,0.0237579-0.2807159V31.3573666z
	 M214.9311981,124.3938904c-3.5321808-5.2721024-9.5438843-8.7497711-16.3529205-8.7497711H185.701416V15.0044451h12.8768616
	c9.0169983,0,16.3529205,7.3353853,16.3529205,16.3529205V124.3938904z M76.631012,78.833313
	c0.9161072,0,1.6583939-0.7428284,1.6583939-1.6584015s-0.7422867-1.6583939-1.6583939-1.6583939H65.6230698V46.287262h108.9403
	c0.9161072,0,1.6584015-0.7428246,1.6584015-1.6583977s-0.7422943-1.6583977-1.6584015-1.6583977H63.9646759
	c-0.9161148,0-1.6583977,0.7428246-1.6583977,1.6583977v30.8876534H38.0538368
	c-0.9161148,0-1.6583977,0.7428207-1.6583977,1.6583939s0.7422829,1.6584015,1.6583977,1.6584015H76.631012z
	 M100.4073105,97.1598969c-0.9161148,0-1.6584015,0.7428207-1.6584015,1.6583939
	c0,0.9155807,0.7422867,1.6584015,1.6584015,1.6584015h7.8007278c0.9161148,0,1.6584015-0.7428207,1.6584015-1.6584015
	c0-0.9155731-0.7422867-1.6583939-1.6584015-1.6583939H100.4073105z M98.8320465,138.3887787h88.0548553
	c0.9161224,0,1.6584015-0.7428284,1.6584015-1.6584015s-0.7422791-1.6583862-1.6584015-1.6583862h-86.4261475
	c-0.4820786-7.5729218-6.7966232-13.5867691-14.4893799-13.5867691h-0.1252441v-4.1827087V87.5971222v-9.7117767h0.1252441
	c7.6927567,0,14.0073013-6.0138474,14.4893799-13.5867691h74.1026154c0.9161072,0,1.6584015-0.7428207,1.6584015-1.6583939
	s-0.7422943-1.6583977-1.6584015-1.6583977H98.8320465c-0.9161148,0-1.6583939,0.7428246-1.6583939,1.6583977v0.7266273
	c0,6.1768837-5.0253983,11.2017403-11.2022781,11.2017403h-1.7836456c-0.9161148,0-1.6583939,0.7428284-1.6583939,1.6584015
	v11.3701706v29.7053909v5.8411026c0,0.9155731,0.7422791,1.6583939,1.6583939,1.6583939h1.7836456
	c6.1768799,0,11.2022781,5.0248642,11.2022781,11.2017441v0.7266235
	C97.1736526,137.6459503,97.9159317,138.3887787,98.8320465,138.3887787z"/>
<path class="st1" d="M144.6802979,76.1775818c-12.4742737,0-22.5866394,10.1123657-22.5866394,22.5866394
	s10.1123657,22.5866394,22.5866394,22.5866394s22.5866394-10.1123657,22.5866394-22.5866394
	S157.1545715,76.1775818,144.6802979,76.1775818z M154.7519379,109.0581284
	c-0.5435486,1.0517044-1.3157196,1.9454498-2.2966766,2.6598206c-0.9677582,0.7041397-2.1177521,1.248764-3.4201965,1.6171265
	c-0.729126,0.2065201-1.5046387,0.339653-2.3033447,0.4298019v2.1941757h-4.0929108v-2.3082199
	c-0.6595306-0.1342163-1.3107605-0.3188629-1.9454498-0.5722427c-1.3223114-0.5266342-2.5121155-1.2591629-3.5328674-2.1735458
	c-1.0140686-0.9115906-1.8359833-2.0005341-2.4457703-3.2371902c-0.6098022-1.2472076-0.9180298-2.5971375-0.9180298-4.0144119
	v-0.7637177h5.3523102v0.7637177c0,0.7354813,0.1391907,1.4678574,0.4109497,2.1794434
	c0.2684326,0.6982346,0.6595306,1.3202896,1.1666107,1.8483124c0.5069885,0.528183,1.1168671,0.9578323,1.8227081,1.2815018
	c1.2991943,0.5922623,2.9926605,0.5742645,4.4409637,0.2117996c0.6462555-0.1626129,1.2163239-0.416153,1.6935272-0.75177
	c0.4672852-0.3281708,0.8351746-0.7266312,1.1234741-1.2144699c0.2651825-0.4592896,0.4010162-1.0337067,0.4010162-1.7019958
	c0-0.7325287-0.1855774-1.3426361-0.5667267-1.864769c-0.410965-0.5609131-0.9378967-1.0456467-1.5609589-1.4410095
	c-0.656189-0.413353-1.3819733-0.7488174-2.1541443-0.99646c-0.8218994-0.2640915-1.6007538-0.4760437-2.3364563-0.6355515
	c-1.1235504-0.2312012-2.2337494-0.5908661-3.2909698-1.0681534c-1.0770721-0.4848862-2.0481567-1.0963898-2.883255-1.820076
	c-0.845108-0.7294312-1.5444336-1.6081238-2.074707-2.6076889c-0.5401917-1.0172577-0.8119659-2.1600418-0.8119659-3.3967056
	c0-1.139679,0.2949677-2.2152786,0.8783112-3.1983948c0.5634003-0.9547272,1.3256378-1.8005295,2.2635345-2.5107193
	c0.9312897-0.7011871,2.0050201-1.2515488,3.1914978-1.6365128c0.4938049-0.1593552,0.999176-0.2659531,1.5062561-0.3599854
	v-2.2390137h4.6397858v2.2387085c0.9445648,0.1616821,1.8111572,0.399704,2.5436096,0.7587509
	c1.3123779,0.6383438,2.3695984,1.446907,3.1484375,2.4000778c0.7622528,0.9399872,1.3090515,1.96035,1.6238708,3.0359497
	c0.3082428,1.0458069,0.4640198,2.0124741,0.4640198,2.870224v0.7637177h-5.3556519V93.034935
	c0-0.6907883-0.1391754-1.3396912-0.4109497-1.9290009c-0.2783661-0.5936584-0.6495972-1.1097336-1.1036072-1.5320892
	c-0.45401-0.4235992-0.9842834-0.7637177-1.5742188-1.0129166c-1.1135254-0.4729385-2.40271-0.4504395-3.5626373-0.1089249
	c-0.5634003,0.1641617-1.0506287,0.3984604-1.4913635,0.7146912c-0.4209595,0.3042755-0.7722626,0.6802368-1.0373535,1.1112823
	c-0.2485657,0.4073029-0.3711548,0.8534012-0.3711548,1.3576889c0,0.6861343,0.162384,1.2558975,0.4904785,1.7423401
	c0.3612213,0.5205765,0.8218994,0.9786224,1.3686981,1.3544235c0.5866089,0.398468,1.209671,0.7072449,1.9089966,0.9413834
	c0.7489777,0.2521439,1.4581451,0.4564972,2.1342773,0.6130524c1.2229309,0.2550964,2.4358521,0.6340027,3.5792542,1.1204453
	c1.1698608,0.4966812,2.2238159,1.1278839,3.1351624,1.8736038c0.9313049,0.765274,1.6802826,1.6680222,2.2238159,2.6823273
	c0.5600739,1.0307541,0.8417664,2.2093811,0.8417664,3.5012817
	C155.5639038,106.8026581,155.2921295,108.0124741,154.7519379,109.0581284z M148.8106995,179.31427h53.8892822v-5.8708191
	h-53.8892822V179.31427z M29.4362888,98.7510986H56.482296v-5.8708191H29.4362888V98.7510986z M134.6237488,179.31427h6.4477692
	v-5.8708191h-6.4477692V179.31427z M102.438736,25.4447479h53.8892822v-5.8708134H102.438736V25.4447479z M88.2517929,25.4447479
	h6.4477615v-5.8708134h-6.4477615V25.4447479z M120.4368057,179.31427h6.4477615v-5.8708191h-6.4477615V179.31427z
	 M106.2498627,179.31427h6.4477539v-5.8708191h-6.4477539V179.31427z"/>
</svg>
