<svg id="Layer_1" data-name="Layer 1" xmlns="http://www.w3.org/2000/svg" xmlns:xlink="http://www.w3.org/1999/xlink" viewBox="0 0 250 190"><defs><style>.cls-1{fill:url(#linear-gradient);}.cls-2{fill:#b3d6f2;}</style><linearGradient id="linear-gradient" x1="128.66" y1="17.33" x2="128.66" y2="177.86" gradientUnits="userSpaceOnUse"><stop offset="0" stop-color="#026bb5"/><stop offset="1" stop-color="#00a5e9"/></linearGradient></defs><title>icon-ploan-04</title><path id="icon-ploan-04a" class="cls-1" d="M206.16,119.27H157.82a8.7,8.7,0,0,1-8.68-8.68V91.27a8.7,8.7,0,0,1,8.68-8.69H228a1.5,1.5,0,0,1,.46,2.93c-.14,0-13.62,4.5-13.62,15.5v9.58A8.69,8.69,0,0,1,206.16,119.27ZM157.82,85.58a5.69,5.69,0,0,0-5.68,5.69v19.32a5.69,5.69,0,0,0,5.68,5.68h48.34a5.68,5.68,0,0,0,5.68-5.68V101c0-7.75,5.19-12.65,9.61-15.43Zm-49.74,94.06A80.26,80.26,0,1,1,183.32,71.36a1.5,1.5,0,0,1-2.81,1,77.27,77.27,0,1,0-72.43,104.23,1.5,1.5,0,0,1,0,3Zm81.53,0H126.33a8.68,8.68,0,0,1-8.68-8.68V147c0-11-13.48-15.45-13.61-15.49a1.5,1.5,0,0,1,.45-2.93h85.12a8.68,8.68,0,0,1,8.68,8.68V171A8.68,8.68,0,0,1,189.61,179.64Zm-78.6-48c.56.35,1.13.73,1.7,1.15,5.19,3.83,7.94,8.76,7.94,14.27V171a5.68,5.68,0,0,0,5.68,5.68h63.28a5.68,5.68,0,0,0,5.68-5.68V137.28a5.68,5.68,0,0,0-5.68-5.68Z"/><path id="icon-ploan-04b" class="cls-2" d="M131.1,74.57v28.89h3.13V111H131.1v7.79h-11V111H107v-7.54l9.53-28.89Zm-11,28.89V84.65l-4.87,18.81Zm-17.43,7.79v7.54H78.35v-6.31q10.8-17.64,12.83-21.84t2-6.54a4.84,4.84,0,0,0-.61-2.69,2.15,2.15,0,0,0-1.88-.88,2,2,0,0,0-1.87,1,8.26,8.26,0,0,0-.61,3.9v4.21H78.35V88a35.65,35.65,0,0,1,.38-5.86,10.2,10.2,0,0,1,1.88-4.22,9.5,9.5,0,0,1,3.91-3.14,14.14,14.14,0,0,1,5.76-1.06q6.59,0,10,3.26a11,11,0,0,1,3.37,8.26,19.62,19.62,0,0,1-1.9,8q-1.89,4.23-11.18,18Zm6-69.91h-.72a2,2,0,0,1-2-2V33.9a2,2,0,0,1,2-2h.72a2,2,0,0,1,2,2v5.44A2,2,0,0,1,108.61,41.34ZM40.84,99.67V99a2,2,0,0,1,2-2h5.44a2,2,0,0,1,2,2v.72a2,2,0,0,1-2,2H42.84A2,2,0,0,1,40.84,99.67Z"/></svg>