<?xml version="1.0" encoding="utf-8"?>
<!-- Generator: Adobe Illustrator 23.0.3, SVG Export Plug-In . SVG Version: 6.00 Build 0)  -->
<svg version="1.1" id="Layer_1" xmlns="http://www.w3.org/2000/svg" xmlns:xlink="http://www.w3.org/1999/xlink" x="0px" y="0px"
	 viewBox="0 0 250 190" style="enable-background:new 0 0 250 190;" xml:space="preserve">
<style type="text/css">
	.st0{fill:#B3D6F2;}
	.st1{fill:url(#SVGID_1_);}
</style>
<path class="st0" d="M112.8,108.8l22.1-45.2c-8.7-6.4-13.2-5.5-24.8-5.5v51.8L112.8,108.8z M164.8,99.5c1.5-0.5,3.2-0.5,4.7,0.1
	c0.8,0.3,1.5,0.8,2.1,1.3c0.6,0.6,1.1,1.2,1.5,2c0.4,0.8,0.5,1.6,0.5,2.5v1h7.1v-1c0-1.1-0.2-2.4-0.6-3.8c-0.4-1.4-1.1-2.8-2.1-4
	c-1-1.3-2.4-2.3-4.2-3.2c-1-0.5-2.1-0.8-3.4-1v-3h-6.1v3c-0.7,0.1-1.3,0.3-2,0.5L164.8,99.5z M173,132.3c1.7-0.5,3.2-1.2,4.5-2.1
	c1.3-0.9,2.3-2.1,3-3.5c0.7-1.4,1.1-3,1.1-4.7c0-1.7-0.4-3.3-1.1-4.6c-0.7-1.3-1.7-2.5-2.9-3.5c-1.2-1-2.6-1.8-4.1-2.5
	c-1.5-0.6-3.1-1.1-4.7-1.5c-0.9-0.2-1.8-0.5-2.8-0.8l-0.1,6.5c1,0.2,2,0.5,3.1,0.8c1,0.3,2,0.8,2.8,1.3c0.8,0.5,1.5,1.2,2.1,1.9
	c0.5,0.7,0.7,1.5,0.7,2.5c0,0.9-0.2,1.6-0.5,2.2c-0.4,0.6-0.9,1.2-1.5,1.6c-0.6,0.4-1.4,0.8-2.2,1c-1.9,0.5-4.1,0.5-5.9-0.3
	L173,132.3z"/>
<linearGradient id="SVGID_1_" gradientUnits="userSpaceOnUse" x1="17.627" y1="94.659" x2="230.4879" y2="94.659">
	<stop  offset="0" style="stop-color:#026BB5"/>
	<stop  offset="0.9986" style="stop-color:#00A5E9"/>
</linearGradient>
<path class="st1" d="M230.4,158.9c-0.1-1.3-1.1-2.6-2-3.1c-2.5-1.4-5.2-2.8-8.1-4c-0.9-0.4-1-0.5-0.8-1.8
	c2.3-12.9,2.8-24.7,1.3-36.2c-1.3-10.4-4.2-19.3-8.8-27.2c-4.3-7.5-11.6-17.5-22.4-24.5v-5v-1.3h-0.1h-0.8h-0.5h-0.2h-0.8h-0.8h-0.7
	c0.9-1.6,1.8-3.4,2.7-5.1c1.8-3.5,3.7-7.1,4.9-9.1l8.4-13.9l-6.5-3.5c-3.9-2.1-7.6-2-11.4,0.3c-4,2.4-5,2.3-8.6-1.2
	c-4.7-4.5-10.9-4.4-15.6,0.1c-3.5,3.3-4.6,3.5-8.4,1.1c-3.8-2.3-7.5-2.5-11.4-0.4c-1.1,0.6-2.3,1.2-3.5,1.9l-3.1,1.7L134,29
	c2.6,4.2,5.7,10,8.8,15.6c2.1,3.8,4.3,7.7,6.2,11.2h-0.5h-0.8H147h-0.2h-0.6h-0.8v1.3v5.1c-1.2,1-2.6,2.1-4.1,3.4
	c-8.8-5.7-19.2-9-30.4-9c-0.3,0-0.5,0-0.8,0c0,0-0.1,0-0.1,0c-0.1,0-0.1,0-0.2,0c-10.9,0.2-21.4,3.5-30.4,9.6
	c-0.7,0.5-0.9,1.4-0.4,2.1s1.4,0.9,2.1,0.4c8.2-5.5,17.6-8.6,27.4-9v8c0,0.8,0.7,1.5,1.5,1.5s1.5-0.7,1.5-1.5v-8.1
	c28.6,0.3,51.9,23.3,52.7,51.8h-8.1c-0.8,0-1.5,0.7-1.5,1.5s0.7,1.5,1.5,1.5h8.1c-0.1,3.2-0.5,6.5-1.1,9.6c-1.9-0.5-3.9-0.8-6-0.8
	c-12.7,0-23,10.3-23,23c0,4.7,1.4,9,3.8,12.7c-8,4.7-17,7.2-26.3,7.3v-8.1c0-0.8-0.7-1.5-1.5-1.5s-1.5,0.7-1.5,1.5v8
	c-10.6-0.5-20.7-4-29.3-10.4c-0.7-0.5-1.6-0.4-2.1,0.3c-0.5,0.7-0.4,1.6,0.3,2.1c9.4,7,20.6,10.8,32.3,11c0.1,0,0.1,0,0.2,0
	c0.1,0,0.1,0,0.1,0c0.3,0,0.5,0,0.8,0c10.2,0,20.1-2.7,28.8-7.9c4.2,4.8,10.4,7.9,17.3,7.9c12.7,0,23-10.3,23-23
	c0-9.5-5.8-17.7-14.1-21.2c0.9-4,1.3-8,1.3-12.1c0-18.7-9.2-35.4-23.3-45.6c1.7-1.5,3.3-2.7,4.7-3.7h0.6h0.8h0.8h0.8h0.8h0.8h0.8
	h0.8h0.8h0.8h0.8h0.8h0.8h0.8h0.8h0.8h0.8h0.8h0.8h0.8h0.8h0.8h0.8h0.8h0.8h0.8h0.8h0.8h0.8h0.8h0.8h0.8h0.8h0.8h0.8h0.8h0.8h0.8
	h0.8h0.8h0.8h0.8h0.8h0.8h0.8h0.8h0.8h0.8h0.8h0.5c8.8,5.2,17,13.9,23.2,24.5c4.4,7.6,7.1,16.1,8.4,26.1c1.4,11.1,1,22.7-1.3,35.2
	c-0.3,1.8-0.3,3.9,2.6,5.1c2.7,1.1,5.3,2.5,7.8,3.8c0.2,0.1,0.4,0.5,0.5,0.6c0.1,2,0.1,4.1,0.1,6.3c0,0.3,0,0.7,0,1h-72.1
	c-0.8,0-1.5,0.7-1.5,1.5s0.7,1.5,1.5,1.5h75.1v-1.5c0-0.8,0-1.7,0-2.5C230.5,163.1,230.5,161,230.4,158.9z M177.1,146.3
	c0,11-9,20-20,20c-11,0-20-9-20-20c0-11,9-20,20-20C168.2,126.3,177.1,135.3,177.1,146.3z M137.4,28.9l0.3-0.2
	c1.2-0.7,2.4-1.3,3.5-1.9c2.9-1.6,5.5-1.5,8.4,0.3c5,3.1,7.6,2.8,12.1-1.5c3.5-3.4,7.9-3.4,11.5-0.1c4.3,4,6.8,4.9,12.2,1.5
	c2.9-1.8,5.5-1.8,8.4-0.3l3.8,2l-6.7,11.2c-1.3,2.1-3.1,5.7-5,9.2c-1.2,2.3-2.4,4.6-3.4,6.5H182h-0.8h-0.8h-0.8h-0.8h-0.8h-0.8h-0.8
	h-0.8h-0.8h-0.8h-0.8h-0.8h-0.8h-0.8h-0.8h-0.8h-0.8h-0.8h-0.8h-0.8H166h-0.8h-0.8h-0.8H163h-0.8h-0.8h-0.8h-0.8h-0.8h-0.8h-0.8
	h-0.8h-0.8h-0.8h-0.8h-0.8h-0.8h-0.6c-2.1-3.7-4.6-8.2-7-12.6C142.7,38.2,139.8,33,137.4,28.9z M35.7,85.1h42.7
	c0.8,0,1.5-0.7,1.5-1.5s-0.7-1.5-1.5-1.5H35.7c-0.8,0-1.5,0.7-1.5,1.5S34.9,85.1,35.7,85.1z M45.8,137.8c0,0.8,0.7,1.5,1.5,1.5h31.1
	c0.8,0,1.5-0.7,1.5-1.5s-0.7-1.5-1.5-1.5H47.3C46.5,136.3,45.8,137,45.8,137.8z M67.7,155.1H35c-0.8,0-1.5,0.7-1.5,1.5
	s0.7,1.5,1.5,1.5h32.7c0.8,0,1.5-0.7,1.5-1.5S68.5,155.1,67.7,155.1z M71,98.8H42.1c-0.8,0-1.5,0.7-1.5,1.5s0.7,1.5,1.5,1.5H71
	c0.8,0,1.5-0.7,1.5-1.5S71.8,98.8,71,98.8z M61.5,121.2c0-0.8-0.7-1.5-1.5-1.5H31.1c-0.8,0-1.5,0.7-1.5,1.5s0.7,1.5,1.5,1.5H60
	C60.8,122.7,61.5,122,61.5,121.2z M56,69.1h12.8c0.8,0,1.5-0.7,1.5-1.5s-0.7-1.5-1.5-1.5H56c-0.8,0-1.5,0.7-1.5,1.5
	S55.1,69.1,56,69.1z M33.5,100.3c0-0.8-0.7-1.5-1.5-1.5H19.1c-0.8,0-1.5,0.7-1.5,1.5s0.7,1.5,1.5,1.5H32
	C32.8,101.8,33.5,101.1,33.5,100.3z M148.5,146c-0.6-0.6-1.5-0.6-2.1,0c-0.6,0.6-0.6,1.5,0,2.1l8,7.7c0.4,0.4,1.1,0.4,1.5-0.1
	l12.6-16.3c0.5-0.7,0.4-1.6-0.3-2.1c-0.7-0.5-1.6-0.4-2.1,0.3l-10.6,13.6c-0.4,0.5-1.1,0.5-1.5,0.1L148.5,146z M110.1,80.4
	c-0.8,0-1.5,0.7-1.5,1.5v25.3c-2.8,0.7-4.8,3.2-4.8,6.2c0,3.5,2.8,6.3,6.3,6.3s6.3-2.8,6.3-6.3c0-1.8-0.8-3.4-2-4.6l6.7-14.6
	c0.3-0.8,0-1.6-0.7-2c-0.8-0.3-1.6,0-2,0.7l-6.6,14.4c-0.1,0-0.2,0-0.3-0.1V81.9C111.6,81,110.9,80.4,110.1,80.4z M110.1,116.7
	c-1.8,0-3.3-1.5-3.3-3.3s1.5-3.3,3.3-3.3s3.3,1.5,3.3,3.3S112,116.7,110.1,116.7z"/>
</svg>
