<?xml version="1.0" encoding="utf-8"?>
<!-- Generator: Adobe Illustrator 23.0.3, SVG Export Plug-In . SVG Version: 6.00 Build 0)  -->
<svg version="1.1" id="Layer_1" xmlns="http://www.w3.org/2000/svg" xmlns:xlink="http://www.w3.org/1999/xlink" x="0px" y="0px"
	 viewBox="0 0 250 190" style="enable-background:new 0 0 250 190;" xml:space="preserve">
<style type="text/css">
	.st0{fill:url(#icon-nodoc-01a_1_);}
	.st1{fill:#B3D6F2;}
</style>
<linearGradient id="icon-nodoc-01a_1_" gradientUnits="userSpaceOnUse" x1="125" y1="32.8287" x2="125" y2="165.3368">
	<stop  offset="0" style="stop-color:#026BB5"/>
	<stop  offset="0.9986" style="stop-color:#00A5E9"/>
</linearGradient>
<path id="icon-nodoc-01a_3_" class="st0" d="M181.6,119.5v-71c0-3.8-2.7-7-6.2-7.9c-0.2-4.3-3.7-7.8-8.1-7.8h-85
	c-4.4,0-7.9,3.5-8.1,7.8c-3.6,0.8-6.2,4-6.2,7.9v42.8c-3.7,0.7-6.5,4-6.5,7.9v53.6h3.1V99.3c0-2.8,2.2-5,5-5h27.1
	c1.4,0,2.7,0.6,3.7,1.6l7.7,8.3c1.5,1.6,3.7,2.6,5.9,2.6h53.1c1.3,0,2.6,0.5,3.6,1.5c0.9,0.9,1.5,2.2,1.5,3.5
	c0,13.3-0.1,38.2-0.1,48.7c0,3,0,4.8,0,4.9h3.1c0-0.1,0-1.9,0-4.8c0-10.5,0.1-35.5,0.1-48.7c0-2.2-0.8-4.2-2.4-5.7
	c-1.5-1.5-3.6-2.4-5.7-2.4h-53.1c-1.4,0-2.7-0.6-3.7-1.6l-7.7-8.3c-1.5-1.6-3.7-2.6-5.9-2.6H70.9V48.5c0-2.8,2.2-5,5-5h97.5
	c2.8,0,5,2.2,5,5v112.8h3.1v-38.7c2.3,0.5,4,2.5,4,4.9v26.3h3.1v-26.3C188.7,123.4,185.5,120,181.6,119.5z M82.2,35.9h85
	c2.6,0,4.7,2,5,4.5h-95C77.5,37.9,79.6,35.9,82.2,35.9z M142.6,64l-16.2-11c-0.9-0.6-2-0.6-2.8,0l-16.2,11c-0.5,0.3-0.7,0.8-0.7,1.4
	v3.8c0,0.9,0.8,1.7,1.7,1.7h1.6v10.3c0,1.1,0.9,2,2,2h7.2h11.8h7.2c1.1,0,2-0.9,2-2V70.9h1.6c0.9,0,1.7-0.8,1.7-1.7v-3.8
	C143.3,64.8,143.1,64.3,142.6,64z M122.1,80.2v-10h5.8v10H122.1z M140.3,67.9h-3.3v12.3h-6.2V69c0-0.9-0.8-1.7-1.7-1.7h-8.4
	c-0.9,0-1.7,0.8-1.7,1.7v11.3h-6.2V67.9h-3.3v-1.8L125,55.6l15.3,10.4V67.9z"/>
<path id="icon-nodoc-01b_3_" class="st1" d="M125,5.5c-48.6,0-88.1,39.5-88.1,88.1s39.5,88.1,88.1,88.1c48.6,0,88.1-39.5,88.1-88.1
	S173.6,5.5,125,5.5z M42.5,93.6c0-45.5,37-82.5,82.5-82.5c21.5,0,41.2,8.3,55.9,21.9L64.4,149.5C50.9,134.8,42.5,115.2,42.5,93.6z
	 M125,176.1c-21.8,0-41.6-8.5-56.3-22.3L185.1,37.3C199,52,207.5,71.9,207.5,93.6C207.5,139.1,170.5,176.1,125,176.1z"/>
</svg>
