<?xml version="1.0" encoding="utf-8"?>
<!-- Generator: Adobe Illustrator 23.0.3, SVG Export Plug-In . SVG Version: 6.00 Build 0)  -->
<svg version="1.1" id="Layer_1" xmlns="http://www.w3.org/2000/svg" xmlns:xlink="http://www.w3.org/1999/xlink" x="0px" y="0px"
	 viewBox="0 0 250 190" style="enable-background:new 0 0 250 190;" xml:space="preserve">
<style type="text/css">
	.st0{fill:url(#SVGID_1_);}
</style>
<linearGradient id="SVGID_1_" gradientUnits="userSpaceOnUse" x1="33.8213" y1="94.8175" x2="216.1787" y2="94.8175">
	<stop  offset="0" style="stop-color:#026BB5"/>
	<stop  offset="0.9986" style="stop-color:#00A5E9"/>
</linearGradient>
<path class="st0" d="M212.7,112.2h-41V56c0-1.9-1.6-3.5-3.5-3.5h-39.9v-14c0-1.2-0.7-2.4-1.7-3L98.9,19.1c-0.8-0.5-1.8-0.5-2.6,0
	L68.8,35.5c-1.1,0.6-1.7,1.8-1.7,3v49.8l-30.8,9.4c-1.5,0.5-2.5,1.8-2.5,3.3v69.9h66.5h3h65.3h3h44.5v-55.2
	C216.2,113.8,214.6,112.2,212.7,112.2z M70.1,38.5c0-0.2,0.1-0.3,0.2-0.4l27.3-16.2L125,38c0.2,0.1,0.2,0.3,0.2,0.4v14h-21.4
	c-1.9,0-3.5,1.6-3.5,3.5v22.1l-30.3,9.3V38.5z M100.3,167.9H36.8V101c0-0.2,0.1-0.4,0.4-0.5l63.2-19.3V167.9z M168.7,167.9h-65.3
	V77.1V56c0-0.3,0.2-0.5,0.5-0.5h64.3c0.3,0,0.5,0.2,0.5,0.5v56.3V167.9z M213.2,167.9h-41.5v-52.7h41c0.3,0,0.5,0.2,0.5,0.5V167.9z
	 M81.2,45.1h32.9c0.8,0,1.5-0.7,1.5-1.5s-0.7-1.5-1.5-1.5H81.2c-0.8,0-1.5,0.7-1.5,1.5S80.4,45.1,81.2,45.1z M50.7,114.1h36.8
	c0.8,0,1.5-0.7,1.5-1.5s-0.7-1.5-1.5-1.5H50.7c-0.8,0-1.5,0.7-1.5,1.5S49.8,114.1,50.7,114.1z M50.7,131.4h36.8
	c0.8,0,1.5-0.7,1.5-1.5s-0.7-1.5-1.5-1.5H50.7c-0.8,0-1.5,0.7-1.5,1.5S49.8,131.4,50.7,131.4z M50.7,148.7h36.8
	c0.8,0,1.5-0.7,1.5-1.5s-0.7-1.5-1.5-1.5H50.7c-0.8,0-1.5,0.7-1.5,1.5S49.8,148.7,50.7,148.7z M81.2,56.3h12.6
	c0.8,0,1.5-0.7,1.5-1.5s-0.7-1.5-1.5-1.5H81.2c-0.8,0-1.5,0.7-1.5,1.5S80.4,56.3,81.2,56.3z M93.8,64.5H81.2c-0.8,0-1.5,0.7-1.5,1.5
	s0.7,1.5,1.5,1.5h12.6c0.8,0,1.5-0.7,1.5-1.5S94.6,64.5,93.8,64.5z M122.6,65.7h-6.1c-0.2,0-0.3,0.1-0.5,0.1l-0.5,0V66v0.1v0.1v0.1
	v0.1v0.1v0v0.1V67v0.1v0.1v0.1v0.1v0.1v0.1V68v0.1v0.1v0.1v0.1v0.1v0.1V69v0.1v0.1v0.1v0.1v0.1v0.1v0.1v0.1v0.1v0.1v0.1v0.1v0.1v0.1
	V71v0.1v0.1v0.1v0.1v0.1v0.1V72v0.1v0.1v0.1v0.1v0.1v0.1v0V73v0.1v0.1v0.1v0.1v0.1v0.1v0h1h6.1h1v0v-0.1v-0.1v-0.1v-0.1v-0.1V73
	v-0.1v0v-0.1v-0.1v-0.1v-0.1v-0.1V72v-0.1v-0.1v-0.1v-0.1v-0.1v-0.1V71v-0.1v-0.1v-0.1v-0.1v-0.1v-0.1v-0.1v-0.1v-0.1v-0.1v-0.1
	v-0.1v-0.1v-0.1V69v-0.1v-0.1v-0.1v-0.1v-0.1v-0.1V68v-0.1v-0.1v-0.1v-0.1v-0.1v-0.1V67v-0.1v-0.1v0v-0.1v-0.1v-0.1v-0.1V66v-0.1
	v-0.1H122.6C122.7,65.8,122.6,65.7,122.6,65.7z M132.9,65.7h-1v0.1V66v0.1v0.1v0.1v0.1v0.1v0v0.1V67v0.1v0.1v0.1v0.1v0.1v0.1V68v0.1
	v0.1v0.1v0.1v0.1v0.1V69v0.1v0.1v0.1v0.1v0.1v0.1v0.1v0.1v0.1v0.1v0.1v0.1v0.1v0.1V71v0.1v0.1v0.1v0.1v0.1v0.1V72v0.1v0.1v0.1v0.1
	v0.1v0.1v0V73v0.1v0.1v0.1v0.1v0.1v0.1v0h1h6.1h1v0v-0.1v-0.1v-0.1v-0.1v-0.1V73v-0.1v0v-0.1v-0.1v-0.1v-0.1v-0.1V72v-0.1v-0.1v-0.1
	v-0.1v-0.1v-0.1V71v-0.1v-0.1v-0.1v-0.1v-0.1v-0.1v-0.1v-0.1v-0.1v-0.1v-0.1v-0.1v-0.1v-0.1V69v-0.1v-0.1v-0.1v-0.1v-0.1v-0.1V68
	v-0.1v-0.1v-0.1v-0.1v-0.1v-0.1V67v-0.1v-0.1v0v-0.1v-0.1v-0.1v-0.1V66v-0.1v-0.1h-1H132.9z M149.4,65.7h-1v0.1V66v0.1v0.1v0.1v0.1
	v0.1v0c0,0,0,0,0,0v6.1c0,0,0,0,0,0v0V73v0.1v0.1v0.1v0.1v0.1v0.1v0h1h6.1h1v0v-0.1v-0.1v-0.1v-0.1v-0.1V73v-0.1v0v-0.1v-0.1v-0.1
	v-0.1v-0.1V72v-0.1v-0.1v-0.1v-0.1v-0.1v-0.1V71v-0.1v-0.1v-0.1v-0.1v-0.1v-0.1v-0.1v-0.1v-0.1v-0.1v-0.1v-0.1v-0.1v-0.1V69v-0.1
	v-0.1v-0.1v-0.1v-0.1v-0.1V68v-0.1v-0.1v-0.1v-0.1v-0.1v-0.1V67v-0.1v-0.1v0v-0.1v-0.1v-0.1v-0.1V66v-0.1v-0.1h-1H149.4z
	 M122.6,86.1h-6.1c-0.2,0-0.3,0.1-0.5,0.1l-0.5,0v0.1v0.1v0.1v0.1v0.1V87v0v0.1v0.1v0.1v0.1v0.1v0.1V88v0.1v0.1v0.1v0.1v0.1v0.1V89
	v0.1v0.1v0.1v0.1v0.1v0.1V90v0.1v0.1v0.1v0.1v0.1v0.1v0.1v0.1v0.1v0.1v0.1v0.1v0.1v0.1v0.1v0.1v0.1v0.1v0.1v0.1v0.1V93v0.1v0v0.1
	v0.1v0.1v0.1v0.1V94v0.1v0h1h6.1h1v0V94v-0.1v-0.1v-0.1v-0.1v-0.1v-0.1v0V93v-0.1v-0.1v-0.1v-0.1v-0.1v-0.1v-0.1v-0.1v-0.1v-0.1
	v-0.1v-0.1v-0.1v-0.1v-0.1v-0.1v-0.1v-0.1v-0.1v-0.1v-0.1V90v-0.1v-0.1v-0.1v-0.1v-0.1v-0.1V89v-0.1v-0.1v-0.1v-0.1v-0.1v-0.1V88
	v-0.1v-0.1v-0.1v-0.1v-0.1v-0.1v-0.1v0v-0.1v-0.1v-0.1v-0.1v-0.1v-0.1v-0.1H122.6C122.7,86.1,122.6,86.1,122.6,86.1z M132.9,86.1h-1
	v0.1v0.1v0.1v0.1v0.1v0.1V87v0v0.1v0.1v0.1v0.1v0.1v0.1V88v0.1v0.1v0.1v0.1v0.1v0.1V89v0.1v0.1v0.1v0.1v0.1v0.1V90v0.1v0.1v0.1v0.1
	v0.1v0.1v0.1v0.1v0.1v0.1v0.1v0.1v0.1v0.1v0.1v0.1v0.1v0.1v0.1v0.1v0.1V93v0.1v0v0.1v0.1v0.1v0.1v0.1V94v0.1v0h1h6.1h1v0V94v-0.1
	v-0.1v-0.1v-0.1v-0.1v-0.1v0V93v-0.1v-0.1v-0.1v-0.1v-0.1v-0.1v-0.1v-0.1v-0.1v-0.1v-0.1v-0.1v-0.1v-0.1v-0.1v-0.1v-0.1v-0.1v-0.1
	v-0.1v-0.1V90v-0.1v-0.1v-0.1v-0.1v-0.1v-0.1V89v-0.1v-0.1v-0.1v-0.1v-0.1v-0.1V88v-0.1v-0.1v-0.1v-0.1v-0.1v-0.1v-0.1v0v-0.1v-0.1
	v-0.1v-0.1v-0.1v-0.1v-0.1h-1H132.9z M149.4,86.1h-1v0.1v0.1v0.1v0.1v0.1v0.1V87v0c0,0,0,0,0,0v6.1c0,0,0,0,0,0v0v0.1v0.1v0.1v0.1
	v0.1V94v0.1v0h1h6.1h1v0V94v-0.1v-0.1v-0.1v-0.1v-0.1v-0.1v0V93v-0.1v-0.1v-0.1v-0.1v-0.1v-0.1v-0.1v-0.1v-0.1v-0.1v-0.1v-0.1v-0.1
	v-0.1v-0.1v-0.1v-0.1v-0.1v-0.1v-0.1v-0.1V90v-0.1v-0.1v-0.1v-0.1v-0.1v-0.1V89v-0.1v-0.1v-0.1v-0.1v-0.1v-0.1V88v-0.1v-0.1v-0.1
	v-0.1v-0.1v-0.1v-0.1v0v-0.1v-0.1v-0.1v-0.1v-0.1v-0.1v-0.1h-1H149.4z M122.6,106.4h-6.1c-0.2,0-0.3,0.1-0.5,0.1l-0.5,0v0.1v0.1v0.1
	v0.1v0.1v0.1v0v0.1v0.1v0.1v0.1v0.1v0.1v0.1v0.1v0.1v0.1v0.1v0.1v0.1v0.1v0.1v0.1v0.1v0.1v0.1v0.1v0.1v0.1v0.1v0.1v0.1v0.1v0.1v0.1
	v0.1v0.1v0.1v0.1v0.1v0.1v0.1v0.1v0.1v0.1v0.1v0.1v0.1v0.1v0.1v0.1v0v0.1v0.1v0.1v0.1v0.1v0.1v0.1v0h1h6.1h1v0v-0.1v-0.1v-0.1v-0.1
	v-0.1v-0.1v-0.1v0v-0.1v-0.1v-0.1v-0.1v-0.1v-0.1v-0.1v-0.1v-0.1v-0.1V112v-0.1v-0.1v-0.1v-0.1v-0.1v-0.1V111v-0.1v-0.1v-0.1v-0.1
	v-0.1v-0.1V110v-0.1v-0.1v-0.1v-0.1v-0.1v-0.1V109v-0.1v-0.1v-0.1v-0.1v-0.1v-0.1v-0.1v-0.1v-0.1v-0.1v-0.1v-0.1v0v-0.1v-0.1v-0.1
	v-0.1v-0.1v-0.1v-0.1H122.6C122.7,106.4,122.6,106.4,122.6,106.4z M122.6,126.7h-6.1c-0.2,0-0.3,0.1-0.5,0.1l-0.5,0v0.1v0.1v0.1v0.1
	v0.1v0.1v0v0.1v0.1v0.1v0.1v0.1v0.1v0.1v0.1v0.1v0.1v0.1v0.1v0.1v0.1v0.1v0.1v0.1v0.1v0.1v0.1v0.1v0.1v0.1v0.1v0.1v0.1v0.1v0.1v0.1
	v0.1v0.1v0.1v0.1v0.1v0.1v0.1v0.1v0.1v0.1v0.1v0.1v0.1v0.1v0.1v0v0.1v0.1v0.1v0.1v0.1v0.1v0.1v0h1h6.1h1v0v-0.1v-0.1v-0.1v-0.1v-0.1
	V134v-0.1v0v-0.1v-0.1v-0.1v-0.1v-0.1V133v-0.1v-0.1v-0.1v-0.1v-0.1v-0.1V132v-0.1v-0.1v-0.1v-0.1v-0.1v-0.1V131v-0.1v-0.1v-0.1
	v-0.1v-0.1v-0.1V130v-0.1v-0.1v-0.1v-0.1v-0.1v-0.1v-0.1v-0.1v-0.1v-0.1v-0.1v-0.1v-0.1v-0.1V128v-0.1v-0.1v0v-0.1v-0.1v-0.1v-0.1
	V127v-0.1v-0.1H122.6C122.7,126.7,122.6,126.7,122.6,126.7z M132.9,106.4h-1v0.1v0.1v0.1v0.1v0.1v0.1v0.1v0v0.1v0.1v0.1v0.1v0.1v0.1
	v0.1v0.1v0.1v0.1v0.1v0.1v0.1v0.1v0.1v0.1v0.1v0.1v0.1v0.1v0.1v0.1v0.1v0.1v0.1v0.1v0.1v0.1v0.1v0.1v0.1v0.1v0.1v0.1v0.1v0.1v0.1
	v0.1v0.1v0.1v0.1v0.1v0.1v0.1v0v0.1v0.1v0.1v0.1v0.1v0.1v0.1v0h1h6.1h1v0v-0.1v-0.1v-0.1v-0.1v-0.1v-0.1v-0.1v0v-0.1v-0.1v-0.1v-0.1
	v-0.1v-0.1v-0.1v-0.1v-0.1v-0.1V112v-0.1v-0.1v-0.1v-0.1v-0.1v-0.1V111v-0.1v-0.1v-0.1v-0.1v-0.1v-0.1V110v-0.1v-0.1v-0.1v-0.1v-0.1
	v-0.1V109v-0.1v-0.1v-0.1v-0.1v-0.1v-0.1v-0.1v-0.1v-0.1v-0.1v-0.1v-0.1v0v-0.1v-0.1v-0.1v-0.1v-0.1v-0.1v-0.1h-1H132.9z
	 M149.4,106.4h-1v0.1v0.1v0.1v0.1v0.1v0.1v0.1v0c0,0,0,0,0,0v6.1c0,0,0,0,0,0v0v0.1v0.1v0.1v0.1v0.1v0.1v0.1v0h1h6.1h1v0v-0.1v-0.1
	v-0.1v-0.1v-0.1v-0.1v-0.1v0v-0.1v-0.1v-0.1v-0.1v-0.1v-0.1v-0.1v-0.1v-0.1v-0.1V112v-0.1v-0.1v-0.1v-0.1v-0.1v-0.1V111v-0.1v-0.1
	v-0.1v-0.1v-0.1v-0.1V110v-0.1v-0.1v-0.1v-0.1v-0.1v-0.1V109v-0.1v-0.1v-0.1v-0.1v-0.1v-0.1v-0.1v-0.1v-0.1v-0.1v-0.1v-0.1v0v-0.1
	v-0.1v-0.1v-0.1v-0.1v-0.1v-0.1h-1H149.4z"/>
</svg>
