<svg id="Layer_1" data-name="Layer 1" xmlns="http://www.w3.org/2000/svg" xmlns:xlink="http://www.w3.org/1999/xlink" viewBox="0 0 250 190"><defs><style>.cls-1{fill:#b3d6f2;}.cls-2{fill:url(#linear-gradient);}</style><linearGradient id="linear-gradient" x1="124.59" y1="14.76" x2="124.59" y2="183" gradientUnits="userSpaceOnUse"><stop offset="0" stop-color="#026bb5"/><stop offset="1" stop-color="#00a5e9"/></linearGradient></defs><title>icon-nodoc-03</title><path id="icon-nodoc-03a" class="cls-1" d="M195.38,52.6a50.89,50.89,0,0,0-30.23-9.89V93.34m-72.28-.86a12.84,12.84,0,0,0-2.26.2,7.69,7.69,0,0,0-3.07,1.23,5.19,5.19,0,0,0-1.89,2.24,4.87,4.87,0,0,0-.33,2.49,7,7,0,0,0,.91,2.5A11.44,11.44,0,0,0,88,103.46c.45.48.9,1,1.36,1.58a6.56,6.56,0,0,1,.94,1.68,3.12,3.12,0,0,1,.15,1.59,2.13,2.13,0,0,1-1,1.3,4,4,0,0,1-1.58.68,5.36,5.36,0,0,1-1.06.1,6.11,6.11,0,0,1-.73,0,7.06,7.06,0,0,1-1.89-.5,7,7,0,0,1-3.32-2.47,3.47,3.47,0,0,1-.48-1.65,3.06,3.06,0,0,1,.47-1.6,4.6,4.6,0,0,1,1.3-1.38l.57-.4-4.19-2.86-.57.41a6.78,6.78,0,0,0-2.28,2.63,5.77,5.77,0,0,0-.5,3,6.93,6.93,0,0,0,1.16,3,8.53,8.53,0,0,0,1.09,1.34l-1.72,1.23L79,113.31l1.64-1.17a17.83,17.83,0,0,0,2.12,1,15.89,15.89,0,0,0,3.89.95,12,12,0,0,0,1.33.07,11.64,11.64,0,0,0,2.45-.26,9.13,9.13,0,0,0,3.32-1.48,5.28,5.28,0,0,0,2-2.31,4.73,4.73,0,0,0,.26-2.61,7.68,7.68,0,0,0-1.06-2.66,14.23,14.23,0,0,0-2-2.5,18.11,18.11,0,0,1-1.22-1.46,4.92,4.92,0,0,1-.79-1.52,2.62,2.62,0,0,1-.06-1.44,2.05,2.05,0,0,1,.91-1.19,3.08,3.08,0,0,1,1.3-.53,5.9,5.9,0,0,1,1-.07,5.32,5.32,0,0,1,.69,0,7,7,0,0,1,1.71.41,5.37,5.37,0,0,1,2.71,2,3.17,3.17,0,0,1,.48,1.38,2.73,2.73,0,0,1-.28,1.4,3.47,3.47,0,0,1-1.11,1.24l-.57.41,4.19,2.84.57-.4a8.51,8.51,0,0,0,1.78-1.77,4.77,4.77,0,0,0,.31-5.43,7.33,7.33,0,0,0-1.43-1.76l1.68-1.19-3.65-2.47L99.44,94a13.36,13.36,0,0,0-1.45-.6,15.91,15.91,0,0,0-3.73-.83,13.07,13.07,0,0,0-1.39-.07"/><path id="icon-nodoc-03b" class="cls-2" d="M218.64,51.58,225.21,45,213.54,33.35,206.92,40a68,68,0,0,0-29.27-13.18V17h5a1.5,1.5,0,0,0,0-3h-40a1.5,1.5,0,0,0,0,3h5V27l0,.88a68,68,0,0,0-45.63,40A1.5,1.5,0,0,0,104.83,69a65.24,65.24,0,1,1,60.32,90.11,1.5,1.5,0,0,0,0,3A68.17,68.17,0,0,0,218.64,51.58Zm-5.1-14L221,45l-3.86,3.86-7.42-7.42ZM150.65,27V17h24v9.3a67.77,67.77,0,0,0-9.5-.68,69,69,0,0,0-14.51,1.55Zm44.57,24.52a1.5,1.5,0,1,1,2.42,1.77L167.77,94.17a1.51,1.51,0,0,1-1.21.61,1.49,1.49,0,0,1-1.21-2.38m-2,53.44-52.93,32.69L79.58,161.65V148.23l30.9,16.94,54.41-33.61a1.5,1.5,0,0,0-1.57-2.55L110.39,161.7,79.58,144.81V131.39l30.14,16.52a1.51,1.51,0,0,0,.72.18,1.52,1.52,0,0,0,.79-.22l53.66-33.15a1.5,1.5,0,0,0-.08-2.6L135.32,96.48a1.54,1.54,0,0,0,.41-1.08,1.51,1.51,0,0,0-.79-1.28L99.67,75.42a1.5,1.5,0,0,0-1.49,0L97,76.17,69.57,61.61a1.49,1.49,0,0,0-1.5.06L16.5,94.29a1.49,1.49,0,0,0-.69,1.31,1.48,1.48,0,0,0,.78,1.27l25.3,13.87a1.86,1.86,0,0,0,0,.34v13L18,111.08a1.5,1.5,0,1,0-1.44,2.63l25.26,13.85V141L18,127.92a1.5,1.5,0,1,0-1.44,2.63l25.26,13.84v2a1.51,1.51,0,0,0,.78,1.32l34.73,18.94a1.51,1.51,0,0,0,.72.18,1.48,1.48,0,0,0,.76-.21,1.49,1.49,0,0,0,.74-1.29v-.28L110.48,182l54.41-33.6a1.5,1.5,0,0,0-1.57-2.56Zm-52.93-1L81.84,129.21l50.55-30.89,28.7,15.22ZM68.94,64.67,94.07,78,44.38,108.68,20.26,95.46Zm7.64,98.16L44.85,145.52v-33.6L99,78.47l32.18,17.07L77.3,128.48a1.48,1.48,0,0,0-.72,1.28Z"/></svg>