<svg id="Layer_1" data-name="Layer 1" xmlns="http://www.w3.org/2000/svg" xmlns:xlink="http://www.w3.org/1999/xlink" viewBox="0 0 250 190"><defs><style>.cls-1{fill:#b3d6f2;}.cls-2{fill:url(#linear-gradient);}</style><linearGradient id="linear-gradient" x1="125" y1="20.95" x2="125" y2="179.78" gradientUnits="userSpaceOnUse"><stop offset="0" stop-color="#026bb5"/><stop offset="1" stop-color="#00a5e9"/></linearGradient></defs><title>icon-bt-02</title><path id="icon-bt-02a" class="cls-1" d="M205.94,43.55a10.43,10.43,0,1,1-10.43-10.42A10.43,10.43,0,0,1,205.94,43.55Zm-62.45-4H42.93v-6H143.49Zm-10,14.16H42.93v-6h90.56ZM205.94,100a10.43,10.43,0,1,1-10.43-10.42A10.43,10.43,0,0,1,205.94,100ZM143.49,96H42.93V90H143.49Zm-10,14.16H42.93v-6h90.56Zm72.45,46.38a10.43,10.43,0,1,1-10.43-10.42A10.42,10.42,0,0,1,205.94,156.53Zm-62.45-4.05H42.93v-6H143.49Zm-10,14.17H42.93v-6h90.56Z"/><path id="icon-bt-02b" class="cls-2" d="M211.73,67.16H38.26a8.63,8.63,0,0,1-8.84-8.39V28.24a8.63,8.63,0,0,1,8.84-8.38H211.74a8.63,8.63,0,0,1,8.84,8.38V58.77A8.64,8.64,0,0,1,211.73,67.16ZM38.26,22.86a5.63,5.63,0,0,0-5.84,5.38V58.77a5.64,5.64,0,0,0,5.84,5.39H211.73a5.64,5.64,0,0,0,5.85-5.39V28.24a5.63,5.63,0,0,0-5.84-5.38Zm167.45,9.77-10.2,12-3.71-3.59a1.64,1.64,0,1,0-2.28,2.35l6.22,6,12.47-14.69a1.64,1.64,0,0,0-2.5-2.11Zm6,91H38.26a8.63,8.63,0,0,1-8.84-8.38V84.73a8.63,8.63,0,0,1,8.84-8.38H211.74a8.63,8.63,0,0,1,8.84,8.38v30.53A8.64,8.64,0,0,1,211.73,123.65ZM38.26,79.35a5.63,5.63,0,0,0-5.84,5.38v30.54a5.63,5.63,0,0,0,5.84,5.38H211.73a5.64,5.64,0,0,0,5.85-5.39V84.73a5.63,5.63,0,0,0-5.84-5.38ZM211.73,180.14H38.26a8.63,8.63,0,0,1-8.84-8.38V141.23a8.63,8.63,0,0,1,8.84-8.39H211.74a8.63,8.63,0,0,1,8.84,8.39v30.52A8.64,8.64,0,0,1,211.73,180.14ZM38.26,135.84a5.64,5.64,0,0,0-5.84,5.39v30.53a5.63,5.63,0,0,0,5.84,5.38H211.73a5.64,5.64,0,0,0,5.85-5.39V141.23a5.64,5.64,0,0,0-5.84-5.39Zm167.45,9.77-10.2,12L191.8,154a1.64,1.64,0,1,0-2.28,2.35l6.22,6,12.47-14.68a1.64,1.64,0,1,0-2.5-2.12Z"/></svg>