<svg id="Layer_1" data-name="Layer 1" xmlns="http://www.w3.org/2000/svg" xmlns:xlink="http://www.w3.org/1999/xlink" viewBox="0 0 250 190"><defs><style>.cls-1{fill:url(#linear-gradient);}.cls-2{fill:#b3d6f2;fill-rule:evenodd;}</style><linearGradient id="linear-gradient" x1="119.04" y1="13.61" x2="119.04" y2="185.73" gradientUnits="userSpaceOnUse"><stop offset="0" stop-color="#026bb5"/><stop offset="1" stop-color="#00a5e9"/></linearGradient></defs><title>icon-3hk-02</title><path id="icon-3handset-02a" class="cls-1" d="M151.91,111.92a18.32,18.32,0,0,0,4.87-8.14,42.14,42.14,0,0,0,1.53-12.17V74.53a41.56,41.56,0,0,0-1.53-12.11,18.35,18.35,0,0,0-4.87-8.1,20,20,0,0,0-8.59-4.56,49.17,49.17,0,0,0-12.81-1.44H107.57a49.17,49.17,0,0,0-12.81,1.44,20,20,0,0,0-8.59,4.56,18.24,18.24,0,0,0-4.86,8.1,41.2,41.2,0,0,0-1.54,12.11V91.61a41.77,41.77,0,0,0,1.54,12.17,18.22,18.22,0,0,0,4.86,8.14,19.67,19.67,0,0,0,8.59,4.52,50.71,50.71,0,0,0,12.81,1.39h22.94a50.71,50.71,0,0,0,12.81-1.39A19.67,19.67,0,0,0,151.91,111.92Zm-11-10.13a8.34,8.34,0,0,1-4,2.19,26.63,26.63,0,0,1-6.41.64H107.57a26.49,26.49,0,0,1-6.4-.64,8.25,8.25,0,0,1-4-2.19,8.53,8.53,0,0,1-2.09-4.17,30.38,30.38,0,0,1-.6-6.6V75.13a29.79,29.79,0,0,1,.6-6.56,8.85,8.85,0,0,1,2.09-4.17,8.13,8.13,0,0,1,4-2.23,26.43,26.43,0,0,1,6.4-.65h22.94a26.58,26.58,0,0,1,6.41.65,8.22,8.22,0,0,1,4,2.23A8.84,8.84,0,0,1,143,68.57a29.79,29.79,0,0,1,.6,6.56V91a30.38,30.38,0,0,1-.6,6.6A8.52,8.52,0,0,1,140.94,101.79ZM154,176.08a84.75,84.75,0,1,1,42.14-42.14,29.88,29.88,0,0,1,2.31,2.19,87.72,87.72,0,1,0-42.27,42.27A29.78,29.78,0,0,1,154,176.08ZM107.37,156h2.3a1.91,1.91,0,0,0,.75-.11,1.81,1.81,0,0,0,.51-.34l20.36-23.17a.62.62,0,0,0-.5-1.08h-2.34a2.12,2.12,0,0,0-.75.11,1.81,1.81,0,0,0-.51.34l-20.36,23.17a.61.61,0,0,0-.14.7A.67.67,0,0,0,107.37,156Zm5.16-12.07a5.1,5.1,0,0,0,1.44-4.07v-3.28a5.08,5.08,0,0,0-1.44-4.07c-.94-.8-2.52-1.21-4.67-1.21h-4.79c-2.16,0-3.73.41-4.67,1.21A5.14,5.14,0,0,0,97,136.58v3.28a5.12,5.12,0,0,0,1.41,4.06c.94.81,2.51,1.22,4.67,1.22h4.79C110,145.14,111.59,144.73,112.53,143.93Zm-9.28-2.11a2.93,2.93,0,0,1-1.87-.43c-.21-.2-.46-.68-.46-1.81v-2.72c0-1.14.25-1.61.46-1.81a2.93,2.93,0,0,1,1.87-.43h4.46a2.93,2.93,0,0,1,1.87.43c.21.2.46.67.46,1.81v2.72c0,1.13-.25,1.61-.46,1.81a2.93,2.93,0,0,1-1.87.43ZM130.19,156H135c2.16,0,3.73-.4,4.68-1.21a5.11,5.11,0,0,0,1.43-4.07v-3.27a5.11,5.11,0,0,0-1.43-4.07c-.95-.81-2.52-1.22-4.68-1.22h-4.79c-2.16,0-3.73.41-4.66,1.22a5.15,5.15,0,0,0-1.42,4.07v3.27a5.15,5.15,0,0,0,1.42,4.07C126.46,155.59,128,156,130.19,156ZM128,147.72c0-1.13.25-1.61.46-1.8a2.87,2.87,0,0,1,1.88-.44h4.45a2.86,2.86,0,0,1,1.87.44c.21.19.46.67.46,1.8v2.73c0,1.13-.25,1.6-.46,1.8a2.93,2.93,0,0,1-1.87.43h-4.45a3,3,0,0,1-1.88-.43c-.21-.2-.46-.67-.46-1.8Z"/><path id="icon-3handset-02b" class="cls-2" d="M176.82,126.85a29.91,29.91,0,1,0,29.91,29.91A29.91,29.91,0,0,0,176.82,126.85Zm10.42,43.37H168.3v-3.76l8.94-9.53a21.3,21.3,0,0,0,2.72-3.51,5.65,5.65,0,0,0,.89-2.85,4.2,4.2,0,0,0-.93-2.89,3.34,3.34,0,0,0-2.66-1.06,3.62,3.62,0,0,0-2.93,1.28,5.07,5.07,0,0,0-1.08,3.37h-5.5a9.09,9.09,0,0,1,1.2-4.61,8.62,8.62,0,0,1,3.41-3.28,10.36,10.36,0,0,1,5-1.18,9.81,9.81,0,0,1,6.64,2.05,7.28,7.28,0,0,1,2.36,5.79,9.28,9.28,0,0,1-1.06,4.18,23.38,23.38,0,0,1-3.65,4.95l-6.28,6.63h11.88Z"/></svg>