<?xml version="1.0" encoding="utf-8"?>
<!-- Generator: Adobe Illustrator 23.0.3, SVG Export Plug-In . SVG Version: 6.00 Build 0)  -->
<svg version="1.1" id="Layer_1" xmlns="http://www.w3.org/2000/svg" xmlns:xlink="http://www.w3.org/1999/xlink" x="0px" y="0px"
	 viewBox="0 0 250 190" style="enable-background:new 0 0 250 190;" xml:space="preserve">
<style type="text/css">
	.st0{fill:#B3D6F2;}
	.st1{fill:url(#SVGID_1_);}
</style>
<path class="st0" d="M64,87c0,0.9-0.7,1.6-1.6,1.6c-10.2,10.2-25.3,2.3-25.3,2.3c-0.9,0-1.6-3-1.6-3.8c0-5.4,4.2-11.9,9.6-12.5
	c-1-1.1-1.6-2.6-1.6-4.2v-2.9c0-3.5,2.8-6.3,6.3-6.3c3.5,0,6.3,2.8,6.3,6.3v2.9c0,1.6-0.6,3.1-1.6,4.2C59.8,75.1,64,81.5,64,87z
	 M91.8,133.8l4-3.3c0.4-0.4,0.5-1,0.1-1.4l-3.7-4.4c-0.4-0.4-1-0.5-1.4-0.1l-4,3.3c-0.4,0.4-0.5,1-0.1,1.4l3.7,4.4
	C90.8,134.1,91.4,134.2,91.8,133.8z"/>
<linearGradient id="SVGID_1_" gradientUnits="userSpaceOnUse" x1="126.1816" y1="17.8672" x2="126.1816" y2="171.8701">
	<stop  offset="0" style="stop-color:#026BB5"/>
	<stop  offset="0.9986" style="stop-color:#00A5E9"/>
</linearGradient>
<path class="st1" d="M223.5,93.2c-0.3-2.8-2.3-4.2-2.6-4.4c-5.9-3.6-10.9-3.7-22.3,5.5c-0.5,0.4-1.1,0.9-1.6,1.3V46.5l7.7,5.5
	c0.7,0.5,1.6,0.3,2.1-0.4c0.5-0.7,0.3-1.6-0.4-2.1l-44.6-31.7l-45.2,31.7c-0.7,0.5-0.8,1.4-0.4,2.1c0.3,0.4,0.8,0.6,1.2,0.6
	c0.3,0,0.6-0.1,0.9-0.3l7.7-5.4v50.2c-2.4,0-4.5,0.2-6,0.6c-6.9,1.7-20,14.1-22.5,16.5l-1.8-2.1c-0.8-0.9-1.8-1.5-3-1.6
	c-1.2-0.1-2.4,0.3-3.3,1l-15.7,13c-0.9,0.8-1.5,1.8-1.6,3s0.3,2.4,1,3.3l33,39.8c0.9,1.1,2.2,1.6,3.5,1.6c1,0,2-0.3,2.9-1l15.7-13
	c1.9-1.6,2.2-4.4,0.6-6.3l-2.1-2.5c10.6-0.3,44.7-1.4,55.6-4.9c8.1-2.7,18.9-17.6,27.6-29.6c3.8-5.2,7.1-9.7,9.3-12.1
	C222.4,99.1,223.9,96,223.5,93.2z M129.2,44.5l32.7-22.9l32.1,22.8V98c-6.7,5.2-11.3,8.5-13.2,9.8c-1.7-1.4-3.9-2.4-6.3-2.9V69.7
	h-24.9v30.5c-4.8-1.8-13.4-3.2-20.5-3.4V44.5z M171.6,104.6c-0.6,0-1.2-0.1-1.9-0.1c-4.9-0.3-12.8-0.8-17-2.8V72.7h18.9V104.6z
	 M126.4,155.5l-15.7,13c-0.6,0.5-1.6,0.4-2.1-0.2l-33-39.8c-0.3-0.3-0.4-0.7-0.3-1.1c0-0.4,0.2-0.8,0.5-1l15.7-13
	c0.3-0.3,0.7-0.4,1.1-0.3c0.4,0,0.8,0.2,1,0.5l33,39.8C127.1,154.1,127,155,126.4,155.5z M217.1,100.3c-2.4,2.5-5.7,7.1-9.5,12.4
	c-8,11-18.9,26.1-26.1,28.5c-11.4,3.7-51.2,4.7-57.1,4.8l-24.8-29.9c4.3-4.2,15.9-14.6,21.3-15.9c6.9-1.7,25.1,0.9,29.6,3.6
	c4.5,2.7,13.3,3.3,19.1,3.6c0.9,0.1,1.8,0.1,2.4,0.2c2.4,0.2,5.8,1.2,7.6,3.2c0,0,0.1,0.1,0.1,0.1c0.8,0.9,1.2,1.9,1.1,3.2
	c-0.3,4.2-0.4,5.8-12.1,5.8h-22.4c-0.8,0-1.5,0.7-1.5,1.5s0.7,1.5,1.5,1.5h22.4c12.4,0,14.6-2,15-8.6c0.1-1.5-0.3-2.9-0.9-4.1
	c2.6-1.8,8.8-6.3,17.7-13.5c11.8-9.6,15.4-7.4,18.8-5.3c0,0,1,0.7,1.2,2.2C220.8,95.4,219.6,97.8,217.1,100.3z M95.3,86l13-16.8
	c0.5-0.7,0.4-1.6-0.3-2.1c-0.7-0.5-1.6-0.4-2.1,0.3L95,81.6l-6.3-6c-0.6-0.6-1.5-0.6-2.1,0c-0.6,0.6-0.6,1.5,0,2.1L95.3,86z
	 M97.8,96.5c11.6,0,21-9.4,21-21s-9.4-21-21-21s-21,9.4-21,21S86.3,96.5,97.8,96.5z M97.8,57.5c9.9,0,18,8.1,18,18s-8.1,18-18,18
	s-18-8.1-18-18S87.9,57.5,97.8,57.5z M49.7,96.5c11.6,0,21-9.4,21-21s-9.4-21-21-21s-21,9.4-21,21S38.2,96.5,49.7,96.5z M49.7,57.5
	c9.9,0,18,8.1,18,18s-8.1,18-18,18s-18-8.1-18-18S39.8,57.5,49.7,57.5z"/>
</svg>
