<?xml version="1.0" encoding="UTF-8"?>
<svg enable-background="new 0 0 925.5 295.4" version="1.1" viewBox="0 0 925.5 295.4" xml:space="preserve" xmlns="http://www.w3.org/2000/svg">
<style type="text/css">
	.st0{fill:#636466;}
	.st1{fill:#F58220;}
	.st2{fill:#026CB6;}
	.st3{display:none;}
	.st4{display:inline;fill:none;stroke:#27AAE1;stroke-miterlimit:10;}
</style>
				<path class="st0" d="m886.6 78.5c-15.1 0-27.4 12.3-27.4 27.4s12.3 27.4 27.4 27.4 27.4-12.2 27.4-27.4-12.3-27.4-27.4-27.4m0 50.2c-12.6 0-22.8-10.2-22.8-22.8s10.2-22.8 22.8-22.8 22.8 10.2 22.8 22.8-10.2 22.8-22.8 22.8"/>
				<path class="st0" d="m899.2 120.8c-0.1-0.1-0.5-0.8-0.9-1.5-0.5-0.8-1.4-2.2-2-3.3-1.8-2.8-2.8-4.3-3.9-5.6s-1.6-1.7-2.8-2.3l-0.7-0.3h0.3c2.6-0.3 4.3-1.1 5.8-2.7 1.5-1.5 2.2-3.4 2.2-5.5 0-1.2-0.2-2.1-0.7-3.3-0.4-0.9-0.9-1.5-1.5-2.2-1.4-1.3-2.8-2-5.3-2.3-1.7-0.2-2.1-0.2-8.6-0.2h-6.5v29.4h4.8v-12.5h1.8c2.3 0 3.2 0.1 4.1 0.6 1.1 0.5 2.2 1.7 3.5 3.8 0.9 1.3 1.2 1.8 3.2 5.5 0.2 0.3 0.4 0.7 0.5 0.9s0.4 0.7 0.6 1.1l0.4 0.7h5.8l-0.1-0.3zm-11.7-16.5c-0.5 0.1-1.5 0.1-4.4 0.1h-3.7v-8.9h3.9c3.1 0 4 0.1 4.6 0.1 1 0.1 1.5 0.3 2.2 0.6 1.1 0.5 1.8 1.5 2.1 2.7 0.1 0.4 0.1 0.6 0.1 1.2 0 1.2-0.4 2-1.2 2.8-0.3 0.3-0.6 0.5-0.9 0.7-0.8 0.4-1.5 0.5-2.7 0.7"/>
						<path class="st1" d="m457.6 168.1v0.3c2.1 8.7 12.4 12.2 21.9 12.2 10.6 0 18.9-2.3 26.9-6.5v21c-7.5 5.1-18.8 7.2-29.7 7.2-27.4 0-43.7-16.1-43.7-41.1 0-27.4 17-43.5 40-43.5 26.9 0 35.6 18.3 35.6 39.3v11h-50.9l-0.1 0.1zm27.4-14.3c0-7.8-3.3-15-12.6-15-8.3 0-13.2 6-14.7 15h27.3zm-110.2-60.1 18.6 76.1 16.8-76.1h26.1l-25.5 107.1h-33.4l-16.8-69.5-16.3 69.7h-33l-25.4-107h26.9l16.8 75.9 18.3-76.1h26.9z"/>
						<path class="st2" d="m844.6 198.8c-10.1 2.8-23.5 4.1-35.3 4.1-28.1 0-46.5-14.8-46.5-42.3 0-25.1 16.1-42.6 41.9-42.6 5.4 0 10.8 0.6 14.2 2.1v-41.5h25.6v120.2h0.1zm-25.4-55.8c-3.3-1.6-7.2-2.3-11.9-2.3-11.4 0-18.4 7.2-18.4 19.3 0 13.7 8 21.2 21.5 21.2 2 0 5.7-0.2 8.8-0.6v-37.6zm-141.5-17.1c11.7-4.8 27.7-7.5 40.5-7.5 21.2 0 35.4 7.8 35.4 33.3v49.6h-25.8v-48.6c0-6.5-2.8-11.6-11.6-11.6-4.1 0-9 0.5-12.9 1.9v58.1h-25.6v-75.2zm-62.7 42.6v0.3c2.1 8.7 12.4 12.2 21.9 12.2 10.6 0 18.9-2.3 26.9-6.5v21c-7.7 5.1-18.7 7.2-29.7 7.2-27.4 0-43.6-16.1-43.6-41.1 0-27.4 17-43.6 40-43.6 26.9 0 35.6 18.3 35.6 39.3v10.9h-51.1v0.3zm27.4-14.4c0-7.8-3.2-15-12.6-15-8.3 0-13.2 6-14.5 15h27.1zm-122.3-60.1h26.9v83.5h40.8v23.7h-67.5v-107.2h-0.2z"/>
				<path class="st1" d="m147.5 23.3c-2.2-0.2-4.4-0.3-6.7-0.4-0.5 2.5-0.8 5.1-0.8 7.8 0 15.9 10 29.3 23.4 35.5 2 0.7 4.6 1.7 6.5 2.5 17.9 7.4 31.4 20.7 40.9 37.5 7.1 12.6 11.2 27.3 11.2 42.8 0-85-41.1-121.4-74.5-125.7"/>
				<path class="st1" d="m169.2 104.2c-8.9-11.8-23.4-20.7-33-20.7 2.8 0 6.9 9 9.4 20.7 3.9 17.9 6.2 40.3 6.2 64.7 0 16.5-5.8 31.5-15.6 43.2-7.2 8.6-16.5 15.4-27.1 19.5-3.5-1.2-7-2.6-10.3-4.2-28.7-14.1-48.5-43.8-48.5-78.2 0-15.6 4.1-30.2 11.2-42.8 9.4-16.8 23.4-29.9 41.3-37.3-3.1 0.8-6.3 1.2-9.6 1.2h-3.9c-42.4 0-76.9 38.5-78 81.3 1.1 59.6 42.9 109 98.4 121.1 9.3-2.2 18.2-5.7 26.4-10.3 12.9-7.2 24.1-17 33-28.7 1.5-2 3-4.1 4.3-6.2 10.9-16.8 17.3-36.9 17.3-58.5 0.1-24.5-8-46.9-21.5-64.8"/>
				<path class="st2" d="m237.5 75.4c-6.9-9.7-15.1-18.3-24.3-25.6-18.4-14.7-41.1-24.2-65.8-26.4 33.5 4.2 74.6 40.6 74.6 125.7 0 27-12.2 51.2-31.3 67.1-5.3 4.4-11 8.1-17.2 11.1-1.4 2.1-2.8 4.2-4.3 6.2-8.9 11.7-20.1 21.6-33 28.7 8.2 4.6 17.1 8.1 26.4 10.3 56.2-12.3 98.4-62.9 98.4-123.5 0-27.4-8.7-52.9-23.5-73.6"/>
				<path class="st2" d="m131.5 22.9c-27.3 1-52.3 10.9-72.4 26.9-9.3 7.3-17.4 16-24.3 25.6-14.8 20.7-23.5 46.2-23.5 73.7v2.3c1.1-42.8 35.6-81.3 78-81.3h3.9c3.3 0 6.5-0.4 9.6-1.2 2.1-0.5 4-1.2 6-2 0.1-0.1 0.2-0.1 0.4-0.2 12.3-5.9 21.7-18.4 23-32.9v-0.6-0.9-1.7c0.1-2.6-0.2-5.2-0.7-7.7"/>
				<path class="st2" d="m151.8 168.8c0-24.3-2.3-46.7-6.2-64.7-2.5-11.8-6.7-20.7-9.4-20.7-9.7 0-24.1 9-33 20.7-13.5 17.9-21.6 40.3-21.6 64.7 0 21.6 6.4 41.7 17.3 58.5 3.3 1.6 6.7 3 10.3 4.2 10.6-4.1 19.9-10.9 27.1-19.5-9.7-11.7-15.6-26.7-15.6-43.2s7.9-37 15.6-37c7.6 0.1 15.5 20.6 15.5 37"/>
			<path class="st0" d="m327.3 240.4 12.4 31.5h-3.2l-3.8-9.8h-14.4l-3.8 9.8h-3.2l12.7-31.5h3.3zm4.3 19.2-6.1-16.2-6.3 16.2h12.4z"/>
			<path class="st0" d="m374.5 249.1v3.8h0.1c0.7-1.4 1.7-2.5 2.9-3.3s2.7-1.2 4.6-1.2c1.5 0 2.9 0.4 4.1 1.1s2 1.9 2.5 3.4c0.7-1.5 1.7-2.6 3-3.4 1.3-0.7 2.7-1.1 4.2-1.1 5 0 7.6 2.7 7.6 8v15.5h-2.8v-15.3c0-1.9-0.4-3.3-1.2-4.3s-2.2-1.5-4.2-1.5c-1.2 0-2.2 0.2-3 0.7s-1.4 1.1-1.9 1.8c-0.5 0.8-0.8 1.6-1 2.6s-0.3 2-0.3 3.1v12.9h-2.8v-15.5c0-0.8-0.1-1.5-0.2-2.2-0.2-0.7-0.4-1.3-0.8-1.8s-0.9-0.9-1.5-1.2-1.4-0.4-2.3-0.4c-1.2 0-2.2 0.2-3.1 0.6s-1.6 1-2.1 1.8-0.9 1.6-1.2 2.6-0.4 2.1-0.4 3.3v12.7h-2.8v-22.8h2.6z"/>
			<path class="st0" d="m419.6 264.4c0.3 1.1 0.7 2 1.3 2.9s1.4 1.6 2.3 2.1c0.9 0.6 2.1 0.8 3.4 0.8 2 0 3.6-0.5 4.8-1.6 1.1-1.1 1.9-2.5 2.4-4.2h2.8c-0.6 2.6-1.7 4.6-3.2 6-1.6 1.4-3.8 2.1-6.7 2.1-1.8 0-3.4-0.3-4.7-0.9s-2.4-1.5-3.2-2.6-1.4-2.4-1.8-3.8c-0.4-1.5-0.6-3-0.6-4.6 0-1.5 0.2-3 0.6-4.4s1-2.7 1.8-3.9c0.8-1.1 1.9-2 3.2-2.7s2.9-1 4.7-1 3.4 0.4 4.7 1.1 2.3 1.7 3.2 2.9c0.8 1.2 1.4 2.6 1.7 4.1 0.4 1.5 0.5 3.1 0.4 4.7h-17.5c0 0.9 0.1 1.9 0.4 3zm13.8-8.5c-0.3-1-0.8-1.8-1.4-2.6s-1.4-1.4-2.3-1.8c-0.9-0.5-1.9-0.7-3-0.7s-2.2 0.2-3 0.7c-0.9 0.5-1.6 1.1-2.3 1.8-0.6 0.8-1.1 1.6-1.5 2.6s-0.6 2-0.7 3h14.7c0-1-0.2-2-0.5-3z"/>
			<path class="st0" d="m451.9 249.1v3.8h0.1c0.7-1.4 1.7-2.5 2.9-3.3s2.7-1.2 4.6-1.2c1.5 0 2.9 0.4 4.1 1.1s2 1.9 2.5 3.4c0.7-1.5 1.7-2.6 3-3.4 1.3-0.7 2.7-1.1 4.2-1.1 5 0 7.6 2.7 7.6 8v15.5h-2.9v-15.3c0-1.9-0.4-3.3-1.2-4.3s-2.2-1.5-4.2-1.5c-1.2 0-2.2 0.2-3 0.7s-1.4 1.1-1.9 1.8c-0.5 0.8-0.8 1.6-1 2.6s-0.3 2-0.3 3.1v12.9h-2.8v-15.5c0-0.8-0.1-1.5-0.2-2.2-0.2-0.7-0.4-1.3-0.8-1.8s-0.9-0.9-1.5-1.2-1.4-0.4-2.3-0.4c-1.2 0-2.2 0.2-3.1 0.6s-1.6 1-2.1 1.8-0.9 1.6-1.2 2.6-0.4 2.1-0.4 3.3v12.7h-2.8v-22.8h2.7z"/>
			<path class="st0" d="m497.7 240.4v13.1h0.1c0.3-0.8 0.7-1.5 1.3-2.2 0.5-0.6 1.2-1.1 1.9-1.6 0.7-0.4 1.5-0.7 2.3-0.9s1.6-0.3 2.5-0.3c1.7 0 3.2 0.3 4.5 1 1.3 0.6 2.3 1.5 3.2 2.6s1.5 2.4 1.9 3.8c0.4 1.5 0.6 3 0.6 4.6s-0.2 3.2-0.6 4.6c-0.4 1.5-1 2.7-1.9 3.8s-1.9 2-3.2 2.6-2.8 0.9-4.5 0.9c-1.9 0-3.5-0.4-5-1.3s-2.5-2.1-3.2-3.7h-0.1v4.3h-2.6v-31.5h2.8zm15 16.6c-0.3-1.2-0.7-2.2-1.3-3.1s-1.4-1.7-2.3-2.2c-0.9-0.6-2.1-0.9-3.4-0.9-1.5 0-2.7 0.3-3.7 0.9s-1.8 1.3-2.5 2.2c-0.6 0.9-1.1 2-1.4 3.1-0.3 1.2-0.4 2.3-0.4 3.5s0.1 2.3 0.4 3.5 0.7 2.2 1.4 3.1c0.6 0.9 1.5 1.7 2.5 2.2 1 0.6 2.3 0.9 3.7 0.9 1.3 0 2.5-0.3 3.4-0.9s1.7-1.3 2.3-2.2 1-2 1.3-3.1c0.3-1.2 0.4-2.3 0.4-3.5 0-1.1-0.1-2.3-0.4-3.5z"/>
			<path class="st0" d="m531.1 264.4c0.3 1.1 0.7 2 1.3 2.9s1.4 1.6 2.3 2.1c0.9 0.6 2.1 0.8 3.4 0.8 2 0 3.6-0.5 4.8-1.6 1.1-1.1 1.9-2.5 2.4-4.2h2.8c-0.6 2.6-1.7 4.6-3.2 6-1.6 1.4-3.8 2.1-6.7 2.1-1.8 0-3.3-0.3-4.7-0.9-1.3-0.6-2.4-1.5-3.2-2.6s-1.4-2.4-1.8-3.8c-0.4-1.5-0.6-3-0.6-4.6 0-1.5 0.2-3 0.6-4.4s1-2.7 1.8-3.9c0.8-1.1 1.9-2 3.2-2.7s2.9-1 4.7-1 3.4 0.4 4.7 1.1 2.3 1.7 3.2 2.9c0.8 1.2 1.4 2.6 1.7 4.1 0.4 1.5 0.5 3.1 0.4 4.7h-17.5c0 0.9 0.2 1.9 0.4 3zm13.8-8.5c-0.3-1-0.8-1.8-1.4-2.6s-1.4-1.4-2.3-1.8c-0.9-0.5-1.9-0.7-3-0.7s-2.2 0.2-3 0.7c-0.9 0.5-1.6 1.1-2.3 1.8-0.6 0.8-1.1 1.6-1.5 2.6s-0.6 2-0.7 3h14.8c-0.1-1-0.2-2-0.6-3z"/>
			<path class="st0" d="m563.4 249.1v5.3h0.1c0.7-1.9 1.8-3.3 3.3-4.3s3.3-1.5 5.3-1.4v2.8c-1.3-0.1-2.4 0.1-3.4 0.5s-1.9 1-2.7 1.7-1.3 1.6-1.7 2.6-0.6 2.1-0.6 3.3v12.1h-2.8v-22.8h2.5z"/>
			<path class="st0" d="m618.9 249.4c1.3 0.6 2.5 1.5 3.4 2.6s1.6 2.4 2.1 3.8c0.5 1.5 0.7 3 0.7 4.7 0 1.6-0.2 3.2-0.7 4.7s-1.2 2.7-2.1 3.8-2 2-3.4 2.6c-1.3 0.6-2.9 0.9-4.6 0.9s-3.3-0.3-4.6-0.9-2.5-1.5-3.4-2.6-1.6-2.4-2.1-3.8c-0.5-1.5-0.7-3-0.7-4.7 0-1.6 0.2-3.2 0.7-4.7s1.2-2.7 2.1-3.8 2-2 3.4-2.6c1.3-0.6 2.9-1 4.6-1 1.8 0.1 3.3 0.4 4.6 1zm-8.1 2.3c-1 0.6-1.8 1.3-2.5 2.2s-1.2 2-1.5 3.1c-0.3 1.2-0.5 2.3-0.5 3.6 0 1.2 0.2 2.4 0.5 3.6s0.8 2.2 1.5 3.1 1.5 1.6 2.5 2.2 2.2 0.8 3.5 0.8 2.5-0.3 3.5-0.8c1-0.6 1.8-1.3 2.5-2.2s1.2-2 1.5-3.1c0.3-1.2 0.5-2.3 0.5-3.6 0-1.2-0.2-2.4-0.5-3.6s-0.8-2.2-1.5-3.1-1.5-1.6-2.5-2.2-2.2-0.8-3.5-0.8c-1.3-0.1-2.5 0.2-3.5 0.8z"/>
			<path class="st0" d="m642.4 251.5v20.4h-2.8v-20.4h-3.9v-2.3h3.9v-2.1c0-1 0.1-1.9 0.2-2.7s0.4-1.5 0.8-2.1 1-1 1.7-1.4c0.7-0.3 1.6-0.5 2.8-0.5h1.1c0.4 0 0.8 0.1 1.2 0.1v2.4c-0.4-0.1-0.7-0.1-1.1-0.2-0.3 0-0.6-0.1-1-0.1-0.8 0-1.4 0.1-1.8 0.4-0.4 0.2-0.7 0.6-0.9 0.9-0.2 0.4-0.3 0.9-0.3 1.4v1.7 2h4.5v2.3h-4.4z"/>
			<path class="st0" d="m680 240.4 7.2 27.6h0.1l7.7-27.6h3.8l7.7 27.6h0.1l7.2-27.6h3l-8.7 31.5h-3.2l-8-28.2h-0.1l-7.9 28.2h-3.3l-8.7-31.5h3.1z"/>
			<path class="st0" d="m729.6 264.4c0.3 1.1 0.7 2 1.3 2.9s1.4 1.6 2.3 2.1c0.9 0.6 2.1 0.8 3.4 0.8 2 0 3.6-0.5 4.8-1.6 1.1-1.1 1.9-2.5 2.4-4.2h2.8c-0.6 2.6-1.7 4.6-3.2 6-1.6 1.4-3.8 2.1-6.7 2.1-1.8 0-3.4-0.3-4.7-0.9s-2.4-1.5-3.2-2.6-1.4-2.4-1.8-3.8c-0.4-1.5-0.6-3-0.6-4.6 0-1.5 0.2-3 0.6-4.4s1-2.7 1.8-3.9c0.8-1.1 1.9-2 3.2-2.7s2.9-1 4.7-1 3.4 0.4 4.7 1.1 2.3 1.7 3.2 2.9c0.8 1.2 1.4 2.6 1.7 4.1 0.4 1.5 0.5 3.1 0.4 4.7h-17.5c0 0.9 0.1 1.9 0.4 3zm13.8-8.5c-0.3-1-0.8-1.8-1.4-2.6s-1.4-1.4-2.3-1.8c-0.9-0.5-1.9-0.7-3-0.7s-2.2 0.2-3 0.7c-0.9 0.5-1.6 1.1-2.3 1.8-0.6 0.8-1.1 1.6-1.5 2.6s-0.6 2-0.7 3h14.7c0-1-0.2-2-0.5-3z"/>
			<path class="st0" d="m762.8 240.4v29h17.7v2.6h-20.7v-31.5h3z"/>
			<path class="st0" d="m792.4 252.7c0.5-1 1.1-1.8 1.9-2.4s1.8-1.1 2.8-1.4c1.1-0.3 2.3-0.4 3.6-0.4 1 0 2 0.1 3 0.3s1.9 0.6 2.7 1.1 1.4 1.3 1.9 2.2c0.5 1 0.8 2.2 0.8 3.7v12.1c0 1.1 0.5 1.7 1.6 1.7 0.3 0 0.6-0.1 0.9-0.2v2.3c-0.3 0.1-0.6 0.1-0.9 0.1h-1c-0.7 0-1.3-0.1-1.7-0.3s-0.8-0.5-1-0.8c-0.2-0.4-0.4-0.8-0.5-1.3s-0.1-1-0.1-1.6h-0.1c-0.5 0.7-1 1.4-1.5 2s-1.1 1.1-1.7 1.4c-0.6 0.4-1.4 0.7-2.2 0.9s-1.8 0.3-2.9 0.3-2.1-0.1-3-0.4c-0.9-0.2-1.7-0.6-2.4-1.2-0.7-0.5-1.2-1.2-1.6-2.1-0.4-0.8-0.6-1.8-0.6-3 0-1.6 0.4-2.8 1.1-3.7s1.6-1.6 2.8-2.1 2.5-0.8 3.9-1c1.5-0.2 2.9-0.4 4.4-0.6 0.6-0.1 1.1-0.1 1.5-0.2s0.8-0.2 1.1-0.5c0.3-0.2 0.5-0.5 0.7-0.9s0.2-0.9 0.2-1.5c0-0.9-0.2-1.7-0.5-2.3s-0.7-1.1-1.3-1.4c-0.5-0.4-1.2-0.6-1.9-0.7s-1.5-0.2-2.3-0.2c-1.8 0-3.2 0.4-4.3 1.3-1.1 0.8-1.7 2.2-1.8 4h-2.8c0.5-1.1 0.7-2.3 1.2-3.2zm13.9 6.8c-0.2 0.3-0.5 0.6-1 0.7s-0.9 0.3-1.3 0.3c-1.2 0.2-2.4 0.4-3.6 0.6-1.3 0.2-2.4 0.4-3.4 0.7s-1.9 0.8-2.5 1.4c-0.7 0.6-1 1.5-1 2.6 0 0.7 0.1 1.3 0.4 1.9 0.3 0.5 0.7 1 1.1 1.4 0.5 0.4 1 0.7 1.6 0.9s1.3 0.3 1.9 0.3c1.1 0 2.1-0.2 3-0.5 1-0.3 1.8-0.8 2.5-1.4s1.3-1.4 1.7-2.3 0.6-1.9 0.6-3v-3.6z"/>
			<path class="st0" d="m826.4 240.4v13.1h0.1c0.3-0.8 0.7-1.5 1.3-2.2 0.5-0.6 1.2-1.1 1.9-1.6 0.7-0.4 1.5-0.7 2.3-0.9s1.6-0.3 2.5-0.3c1.7 0 3.2 0.3 4.5 1 1.3 0.6 2.3 1.5 3.2 2.6s1.5 2.4 1.9 3.8c0.4 1.5 0.6 3 0.6 4.6s-0.2 3.2-0.6 4.6c-0.4 1.5-1 2.7-1.9 3.8s-1.9 2-3.2 2.6-2.8 0.9-4.5 0.9c-1.9 0-3.5-0.4-5-1.3s-2.5-2.1-3.2-3.7h-0.1v4.3h-2.6v-31.5h2.8zm15 16.6c-0.3-1.2-0.7-2.2-1.3-3.1s-1.4-1.7-2.3-2.2c-0.9-0.6-2.1-0.9-3.4-0.9-1.5 0-2.7 0.3-3.7 0.9s-1.8 1.3-2.5 2.2c-0.6 0.9-1.1 2-1.4 3.1-0.3 1.2-0.4 2.3-0.4 3.5s0.1 2.3 0.4 3.5 0.7 2.2 1.4 3.1c0.6 0.9 1.5 1.7 2.5 2.2 1 0.6 2.3 0.9 3.7 0.9 1.3 0 2.5-0.3 3.4-0.9s1.7-1.3 2.3-2.2 1-2 1.3-3.1c0.3-1.2 0.4-2.3 0.4-3.5 0-1.1-0.1-2.3-0.4-3.5z"/>
<g class="st3">
	<line class="st4" x1="-8008.3" x2="-4764.5" y1="477.1" y2="477.1"/>
	<line class="st4" x1="-8008.3" x2="-4764.5" y1="1729.5" y2="1729.5"/>
	<rect class="st4" x="-5791.1" y="283.2" width="558.7" height="193.5"/>
	<rect class="st4" x="-5791.1" y="283.2" width="558.7" height="193.5"/>
	<rect class="st4" x="-7350.5" y="283.2" width="558.7" height="193.5"/>
	<rect class="st4" x="-5791.1" y="1535.5" width="558.7" height="193.5"/>
	<rect class="st4" x="-5791.1" y="1535.5" width="558.7" height="193.5"/>
	<rect class="st4" x="-7350.5" y="1535.5" width="558.7" height="193.5"/>
</g>
</svg>
