<?xml version="1.0" encoding="utf-8"?>
<!-- Generator: Adobe Illustrator 22.1.0, SVG Export Plug-In . SVG Version: 6.00 Build 0)  -->
<svg version="1.1" id="Layer_1" xmlns="http://www.w3.org/2000/svg" xmlns:xlink="http://www.w3.org/1999/xlink" x="0px" y="0px"
	 viewBox="0 0 491 133" style="enable-background:new 0 0 491 133;" xml:space="preserve">
<style type="text/css">
	.st0{fill:url(#path-2_7_);}
	.st1{filter:url(#Adobe_OpacityMaskFilter);}
	.st2{fill:#FFFFFF;}
	.st3{opacity:0.05;mask:url(#mask-3_1_);enable-background:new    ;}
	.st4{filter:url(#Adobe_OpacityMaskFilter_1_);}
	.st5{mask:url(#mask-3_2_);fill:none;}
	.st6{filter:url(#Adobe_OpacityMaskFilter_2_);}
	.st7{opacity:0.05;mask:url(#mask-3_3_);fill:#FFFFFF;enable-background:new    ;}
	.st8{filter:url(#Adobe_OpacityMaskFilter_3_);}
	.st9{opacity:0.12;mask:url(#mask-3_4_);fill:#FFFFFF;enable-background:new    ;}
	.st10{filter:url(#Adobe_OpacityMaskFilter_4_);}
	.st11{mask:url(#mask-3_5_);}
	.st12{fill:url(#Rectangle-3_2_);}
	.st13{fill:#019FED;}
	.st14{fill:url(#Rectangle-3-Copy-2_2_);}
	.st15{fill:#00BCFE;}
	.st16{fill:url(#Rectangle-3-Copy-2_3_);}
	.st17{fill:#00A2E8;}
</style>
<title>calculator-banner-3hk</title>
<desc>Created with Sketch.</desc>
<g id="Page-1">
	<g id="_x30_6-3hk" transform="translate(-715.000000, -1309.000000)">
		<g id="Group-17-Copy" transform="translate(715.000000, 1309.000000)">
			<g id="banner">
				<g id="calculator-banner-3hk">
					<g id="Mask">
						
							<linearGradient id="path-2_7_" gradientUnits="userSpaceOnUse" x1="-51.8940239" y1="484.7283325" x2="-50.8933792" y2="484.7283325" gradientTransform="matrix(490.6836853 0 0 -133 25463.5507812 64535.3710938)">
							<stop  offset="0" style="stop-color:#045BBE"/>
							<stop  offset="1" style="stop-color:#00B9FF"/>
						</linearGradient>
						<rect id="path-2_1_" y="-0.0000146" class="st0" width="491" height="133"/>
					</g>
					<defs>
						
							<filter id="Adobe_OpacityMaskFilter" filterUnits="userSpaceOnUse" x="303.5578308" y="-0.0000146" width="187.5106659" height="121.8843155">
							<feColorMatrix  type="matrix" values="1 0 0 0 0  0 1 0 0 0  0 0 1 0 0  0 0 0 1 0"/>
						</filter>
					</defs>
					<mask maskUnits="userSpaceOnUse" x="303.5578308" y="-0.0000146" width="187.5106659" height="121.8843155" id="mask-3_1_">
						<g class="st1">
							<rect id="path-2_2_" y="-0.0000146" class="st2" width="490.6836853" height="133"/>
						</g>
					</mask>
					<polygon id="Rectangle" class="st3" points="491,-0.0000146 491.068512,56.2579498 425.4421387,121.8843002 
						303.5578308,-0.0000146 					"/>
					<defs>
						
							<filter id="Adobe_OpacityMaskFilter_1_" filterUnits="userSpaceOnUse" x="243.4421692" y="36.9999733" width="192.0000305" height="96.0000153">
							<feColorMatrix  type="matrix" values="1 0 0 0 0  0 1 0 0 0  0 0 1 0 0  0 0 0 1 0"/>
						</filter>
					</defs>
					<mask maskUnits="userSpaceOnUse" x="243.4421692" y="36.9999733" width="192.0000305" height="96.0000153" id="mask-3_2_">
						<g class="st4">
							<rect id="path-2_3_" y="-0.0000146" class="st2" width="490.6836853" height="133"/>
						</g>
					</mask>
					<polygon id="Rectangle-Copy" class="st5" points="339.4421692,36.9999733 435.4421997,132.9999847 243.4421692,132.9999847 
											"/>
					<defs>
						
							<filter id="Adobe_OpacityMaskFilter_2_" filterUnits="userSpaceOnUse" x="182.5" y="-0.0000146" width="157.5" height="115.25">
							<feColorMatrix  type="matrix" values="1 0 0 0 0  0 1 0 0 0  0 0 1 0 0  0 0 0 1 0"/>
						</filter>
					</defs>
					<mask maskUnits="userSpaceOnUse" x="182.5" y="-0.0000146" width="157.5" height="115.25" id="mask-3_3_">
						<g class="st6">
							<rect id="path-2_4_" y="-0.0000146" class="st2" width="490.6836853" height="133"/>
						</g>
					</mask>
					<polygon id="Rectangle-Copy-3" class="st7" points="303.5578308,-0.0000146 340,36.4999809 261.25,115.2499847 
						182.5,36.4999809 218.9999847,0.0000033 					"/>
					<defs>
						
							<filter id="Adobe_OpacityMaskFilter_3_" filterUnits="userSpaceOnUse" x="200.3749847" y="93.9999771" width="78.0000381" height="39.0000229">
							<feColorMatrix  type="matrix" values="1 0 0 0 0  0 1 0 0 0  0 0 1 0 0  0 0 0 1 0"/>
						</filter>
					</defs>
					<mask maskUnits="userSpaceOnUse" x="200.3749847" y="93.9999771" width="78.0000381" height="39.0000229" id="mask-3_4_">
						<g class="st8">
							<rect id="path-2_5_" y="-0.0000146" class="st2" width="490.6836853" height="133"/>
						</g>
					</mask>
					<polygon id="Rectangle-Copy-4" class="st9" points="239.375,93.9999771 278.3750305,132.9999847 200.3749847,133 					"/>
					<defs>
						
							<filter id="Adobe_OpacityMaskFilter_4_" filterUnits="userSpaceOnUse" x="242.1334076" y="-0.0000146" width="248.9350891" height="133.0000153">
							<feColorMatrix  type="matrix" values="1 0 0 0 0  0 1 0 0 0  0 0 1 0 0  0 0 0 1 0"/>
						</filter>
					</defs>
					<mask maskUnits="userSpaceOnUse" x="242.1334076" y="-0.0000146" width="248.9350891" height="133.0000153" id="mask-3_5_">
						<g class="st10">
							<rect id="path-2_6_" y="-0.0000146" class="st2" width="490.6836853" height="133"/>
						</g>
					</mask>
					<g id="Group-21" class="st11">
						<g transform="translate(239.000000, -84.000000)">
							
								<g id="Group-19" transform="translate(89.500000, 104.000000) rotate(-315.000000) translate(-89.500000, -104.000000) translate(43.000000, 24.000000)">
								
									<linearGradient id="Rectangle-3_2_" gradientUnits="userSpaceOnUse" x1="109.2348328" y1="675.7301025" x2="109.2348328" y2="676.6344604" gradientTransform="matrix(65.311554 -113.058754 -65.311554 -113.058754 37045.5273438 88898.921875)">
									<stop  offset="0" style="stop-color:#00B4FB"/>
									<stop  offset="1" style="stop-color:#00AAFF"/>
								</linearGradient>
								<path id="Rectangle-3" class="st12" d="M91.04496,34.3563385h1.3194885v15.856781H91.04496v104.6760406
									c0,2.7614288-2.2385788,5-5,5H6.3194809c-2.7614231,0-4.9999986-2.2385712-4.9999986-5V96.896225L91.04496,7.1707268
									v11.3288364h1.3194885v10.5711861H91.04496V34.3563385z"/>
								<path id="Rectangle-3_1_" class="st13" d="M79.7161407,18.4995632h1.4118652c1.1045685,0,2,0.8954296,2,2v120.2114182
									c0,1.1045685-0.8954315,2-2,2h-69.891571c-1.1045694,0-2-0.8954315-2-2V88.979248L79.7161407,18.4995632z"/>
							</g>
							
								<g id="Group-17" transform="translate(139.509668, 215.509668) rotate(-315.000000) translate(-139.509668, -215.509668) translate(92.509668, 134.509668)">
								
									<linearGradient id="Rectangle-3-Copy-2_2_" gradientUnits="userSpaceOnUse" x1="-4.3590193" y1="633.425354" x2="-4.3590193" y2="634.1787109" gradientTransform="matrix(66.1346359 -114.4436264 -66.1346359 -114.4436264 42226.3984375 72114.5625)">
									<stop  offset="0" style="stop-color:#00B4FB"/>
									<stop  offset="1" style="stop-color:#00AAFF"/>
								</linearGradient>
								<path id="Rectangle-3-Copy-2" class="st14" d="M1.3361106,50.828186h-1.336121l0-16.0510101h1.336121v-5.3503342h-1.336121
									v-10.700676h1.336121V4.9999881c0-2.7614231,2.2385755-4.9999986,4.9999986-4.9999986H87.192337
									c2.7614212,0,5,2.2385755,5,4.9999986v13.7261772h1.3361206v10.700676H92.192337v8.48843L1.3361106,128.7714996V50.828186z"
									/>
								<path id="Rectangle-3-Copy-3" class="st15" d="M11.3528347,18.7261658h70.8227692c1.1045685,0,2,0.8954315,2,2V45.932003
									L9.3528357,120.7547684V20.7261658C9.3528357,19.6215973,10.2482662,18.7261658,11.3528347,18.7261658z"/>
							</g>
							
								<g id="Group-17-Copy-3" transform="translate(269.509668, 90.509668) rotate(-315.000000) translate(-269.509668, -90.509668) translate(222.509668, 9.509668)">
								
									<linearGradient id="Rectangle-3-Copy-2_3_" gradientUnits="userSpaceOnUse" x1="-8.0520248" y1="813.5801392" x2="-8.0520248" y2="814.0075684" gradientTransform="matrix(66.1346359 -114.4436264 -66.1346359 -114.4436264 54385.1054688 92345.5234375)">
									<stop  offset="0" style="stop-color:#00B4FB"/>
									<stop  offset="1" style="stop-color:#00AAFF"/>
								</linearGradient>
								<path id="Rectangle-3-Copy-2_1_" class="st16" d="M30.0157108,88.7781525l62.1766281,62.0797424v5.9897766
									c0,2.7614288-2.2385788,5-5,5H6.3361092c-2.7614233,0-4.999999-2.2385712-4.999999-5v-39.3899002L30.0157108,88.7781525z"/>
								
									<ellipse id="Oval-12" transform="matrix(0.0000025 1 -1 0.0000025 200.5855255 105.7206955)" class="st17" cx="47.4322815" cy="153.1533661" rx="6.0191326" ry="6.0125446"/>
							</g>
						</g>
					</g>
				</g>
			</g>
		</g>
	</g>
</g>
<path id="Rectangle-3-Copy-3_1_" class="st17" d="M491.0249329,76.5112686
	c-0.7763062,0.5125656-1.8312683,0.4271393-2.514679-0.256279l-50.0792847-50.079277
	c-0.7810364-0.7810478-0.7810364-2.0473785,0-2.8284264l23.34729-23.3472824L491-0.0000146
	C491-0.0000146,491.1358337,76.4380417,491.0249329,76.5112686z"/>
</svg>
