<svg width="251" height="37" viewBox="0 0 251 37" fill="none" xmlns="http://www.w3.org/2000/svg">
<path d="M65.385 0.00113678L70.4753 20.6979L75.0737 0.00113678H82.2391L75.2707 29.1328H66.1255L61.5319 10.2489L56.9842 29.1328H47.9396L40.9673 0.00113678H48.3354L52.9806 20.6979L57.9707 0.00113678H65.385Z" fill="#F28021"/>
<path d="M95.6983 16.3336C95.6983 14.2234 94.8065 12.2651 92.2353 12.2651C89.9654 12.2651 88.6285 13.9291 88.2333 16.3336H95.6983ZM88.1854 20.2544V20.3532C88.7785 22.7121 91.5986 23.6897 94.1627 23.6897C97.0786 23.6897 99.3519 23.055 101.531 21.9221V27.6617C99.4537 29.0351 96.3906 29.6245 93.3757 29.6245C85.862 29.6245 81.4121 25.2091 81.4121 18.441C81.4121 10.9876 86.0604 6.57139 92.3844 6.57139C99.7479 6.57139 102.121 11.5269 102.121 17.2637V20.2544H88.1854Z" fill="#F28021"/>
<path d="M105.301 0.00113678H112.664V22.7119H123.836V29.1328H105.301V0.00113678Z" fill="#F28021"/>
<path d="M140.121 23.4165V20.074L136.842 20.0647C135.097 20.276 133.606 20.3836 133.606 22.3699C133.606 24.0596 134.885 24.8626 136.842 24.8626C138.078 24.8626 139.227 24.05 140.121 23.4165ZM126.794 22.9612C126.794 18.144 131.307 16.2851 135.565 15.9045L140.121 15.909V15.7395C140.121 13.2046 138.844 12.027 136.246 12.027C133.606 12.027 131.445 13.2097 129.827 14.3087L127.816 9.74503C130.037 8.21315 133.606 6.47246 137.183 6.47246C143.06 6.47246 146.934 8.80621 146.934 14.4683V24.8626L146.924 29.1306H140.121V28.0415C138.362 29.1306 137.395 29.4263 134.288 29.4263C130.03 29.4263 126.794 27.1867 126.794 22.9612Z" fill="#F28021"/>
<path d="M157.057 24.0423C157.863 24.1809 158.862 24.2273 159.382 24.2273C162.933 24.2273 165.022 22.2498 165.022 18.6779C165.022 15.5284 163.174 13.6477 160.187 13.6477C158.954 13.6477 157.911 13.8353 157.057 14.2566V24.0423ZM150.329 0.085434H157.057V8.3789C157.962 8.00116 159.382 7.81272 160.807 7.81272C167.582 7.81272 171.843 12.3747 171.843 18.9153C171.843 26.0656 167.01 29.918 159.617 29.918C156.539 29.918 152.983 29.5397 150.329 28.8371V0.085434Z" fill="#F28021"/>
<path d="M179.685 29.3923H186.511V20.5209H191.79C199.713 20.5209 203.5 16.0638 203.5 10.1974C203.5 4.33098 199.713 0 191.79 0H179.685V29.3923ZM191.578 6.21575C195.433 6.21575 196.275 8.2863 196.275 10.1974C196.275 12.1085 195.433 14.3294 191.578 14.3294H186.511V6.21575H191.578Z" fill="#056CB5"/>
<path d="M217.715 23.7595V20.5932L214.61 20.5843C212.956 20.7845 211.544 20.8864 211.544 22.768C211.544 24.3687 212.755 25.1294 214.61 25.1294C215.78 25.1294 216.869 24.3596 217.715 23.7595ZM205.091 23.3282C205.091 18.7649 209.366 17.0039 213.4 16.6433L217.715 16.6476V16.4871C217.715 14.0857 216.506 12.9701 214.045 12.9701C211.544 12.9701 209.496 14.0905 207.964 15.1316L206.059 10.8084C208.163 9.35725 211.544 7.70827 214.932 7.70827C220.499 7.70827 224.17 9.91906 224.17 15.2828V25.1294L224.16 29.1725H217.715V28.1409C216.05 29.1725 215.134 29.4526 212.19 29.4526C208.156 29.4526 205.091 27.3311 205.091 23.3282Z" fill="#056CB5"/>
<path d="M235.007 28.5324L231.668 37.0009H238.473L250.062 7.63916H243.221L238.125 20.5806L233.274 7.63916H226.145L235.007 28.5324Z" fill="#056CB5"/>
<path d="M20.3337 0.0641479C20.0045 0.0343933 19.6733 0.0123482 19.3394 1.33514e-05C19.2649 0.373713 19.2251 0.760056 19.2251 1.15565C19.2251 3.51516 20.7168 5.49528 22.7203 6.42027C23.017 6.51725 23.4036 6.67511 23.6905 6.7929C26.3579 7.8901 28.3819 9.86235 29.7936 12.3563C30.8532 14.2296 31.4594 16.3956 31.4594 18.7041C31.4594 6.10223 25.3252 0.697926 20.3337 0.0641479Z" fill="#F28021"/>
<path d="M23.5723 12.0462C22.2461 10.3046 20.0839 8.97472 18.6429 8.97472C19.0547 8.97472 19.6725 10.3046 20.0513 12.0462C20.6297 14.704 20.9731 18.0249 20.9731 21.629C20.9731 24.0698 20.0962 26.3039 18.6429 28.0338C17.5705 29.3114 16.1834 30.3127 14.6014 30.9198C14.0731 30.743 13.5595 30.5333 13.0644 30.293C8.78045 28.2101 5.82631 23.8037 5.82631 18.7042C5.82631 16.3957 6.43202 14.2298 7.49228 12.3564C8.90349 9.86241 10.9922 7.92608 13.6595 6.82888C13.6609 6.82841 13.6623 6.82795 13.664 6.82718C13.2065 6.94311 12.7281 7.00524 12.2345 7.00524H11.6519C5.31738 7.00524 0.163784 12.7105 0.00439453 19.0518C0.164716 27.8741 6.40421 35.2047 14.694 37C16.0917 36.6695 17.4172 36.1507 18.6429 35.4734C20.5674 34.4094 22.2461 32.9536 23.5723 31.2121C23.7996 30.9137 24.0158 30.6072 24.2217 30.293C25.8507 27.8052 26.7991 24.8284 26.7991 21.629C26.7991 18.0249 25.5957 14.704 23.5723 12.0462Z" fill="#F28021"/>
<path d="M17.9453 2.86102e-05C13.8711 0.150494 10.1315 1.614 7.13245 3.98138C5.7534 5.06979 4.53017 6.34814 3.50377 7.77911C1.2992 10.8537 0 14.6264 0 18.704C0 18.8202 0.00170926 18.936 0.00357347 19.0518C0.163118 12.7104 5.31671 7.0052 11.6513 7.0052H12.2338C12.7274 7.0052 13.2059 6.94307 13.6634 6.82713C13.9708 6.74943 14.2678 6.64645 14.5538 6.52173C14.573 6.51356 14.5918 6.50415 14.611 6.49583C16.4553 5.62402 17.8558 3.77356 18.0387 1.63173C18.0411 1.60274 18.0435 1.5736 18.0452 1.54431C18.0483 1.50084 18.0509 1.45752 18.0531 1.41343C18.0571 1.32802 18.0598 1.2423 18.0598 1.15566C18.0598 0.760069 18.02 0.373573 17.9453 2.86102e-05Z" fill="#056CB5"/>
<path d="M20.9723 21.6286C20.9723 18.0245 20.629 14.7036 20.0506 12.0458C19.6716 10.304 19.0537 8.97416 18.6421 8.97416C17.2013 8.97416 15.039 10.304 13.7128 12.0455C11.6894 14.7036 10.4863 18.0245 10.4863 21.6286C10.4863 24.828 11.4346 27.8048 13.0636 30.2926C13.5588 30.5329 14.0723 30.7426 14.6006 30.9194C16.1826 30.3123 17.5697 29.311 18.6421 28.0334C17.1891 26.3035 16.3118 24.0694 16.3118 21.6286C16.3118 19.1877 17.4811 16.1517 18.6421 16.1517C19.8035 16.1517 20.9723 19.1877 20.9723 21.6286Z" fill="#056CB5"/>
<path d="M33.7809 7.77929C32.7549 6.34817 31.5315 5.06982 30.1523 3.98125C27.3989 1.80781 24.0213 0.397186 20.3339 0.0640335C25.3254 0.697811 31.4596 6.10212 31.4596 18.704C31.4596 22.7083 29.6372 26.2851 26.7803 28.6448C25.9992 29.2901 25.1412 29.8456 24.2214 30.293C24.0157 30.607 23.7993 30.9135 23.572 31.2121C22.2458 32.9534 20.5671 34.4092 18.6426 35.4733C19.8686 36.1507 21.1939 36.6693 22.5916 37C30.9906 35.181 37.2851 27.6813 37.2851 18.704C37.2851 14.6264 35.9854 10.8537 33.7809 7.77929Z" fill="#056CB5"/>
</svg>
