<?xml version="1.0" encoding="UTF-8"?>
<svg width="305px" height="129px" viewBox="0 0 305 129" version="1.1" xmlns="http://www.w3.org/2000/svg" xmlns:xlink="http://www.w3.org/1999/xlink">
    <!-- Generator: Sketch 50.2 (55047) - http://www.bohemiancoding.com/sketch -->
    <title>Page 1</title>
    <desc>Created with Sketch.</desc>
    <defs></defs>
    <g id="landing" stroke="none" stroke-width="1" fill="none" fill-rule="evenodd">
        <g id="01-home-00-with-calculator" transform="translate(-35.000000, -2052.000000)" fill="#FFFFFF">
            <g id="about-us" transform="translate(0.000000, 1722.000000)">
                <g id="Page-1" transform="translate(35.000000, 330.000000)">
                    <path d="M97.6167582,30.6885302 C98.3105495,30.6885302 98.8736264,30.1254533 98.8736264,29.4316621 L98.8736264,27.2321429 C98.8736264,26.5383516 98.3105495,25.9752747 97.6167582,25.9752747 C96.922967,25.9752747 96.3598901,26.5383516 96.3598901,27.2321429 L96.3598901,29.4316621 C96.3598901,30.1254533 96.922967,30.6885302 97.6167582,30.6885302" id="Fill-1" opacity="0.4"></path>
                    <path d="M97.6167582,21.4714973 C98.3105495,21.4714973 98.8736264,20.9084203 98.8736264,20.2146291 L98.8736264,18.0151099 C98.8736264,17.3213187 98.3105495,16.7582418 97.6167582,16.7582418 C96.922967,16.7582418 96.3598901,17.3213187 96.3598901,18.0151099 L96.3598901,20.2146291 C96.3598901,20.9084203 96.922967,21.4714973 97.6167582,21.4714973" id="Fill-3" opacity="0.4"></path>
                    <path d="M91.7513736,25.1373626 L93.9508929,25.1373626 C94.6446841,25.1373626 95.207761,24.5742857 95.207761,23.8804945 C95.207761,23.1867033 94.6446841,22.6236264 93.9508929,22.6236264 L91.7513736,22.6236264 C91.0575824,22.6236264 90.4945055,23.1867033 90.4945055,23.8804945 C90.4945055,24.5742857 91.0575824,25.1373626 91.7513736,25.1373626" id="Fill-5" opacity="0.4"></path>
                    <path d="M100.968407,25.1373626 L103.167926,25.1373626 C103.861717,25.1373626 104.424794,24.5742857 104.424794,23.8804945 C104.424794,23.1867033 103.861717,22.6236264 103.167926,22.6236264 L100.968407,22.6236264 C100.274615,22.6236264 99.7115385,23.1867033 99.7115385,23.8804945 C99.7115385,24.5742857 100.274615,25.1373626 100.968407,25.1373626" id="Fill-7" opacity="0.4"></path>
                    <path d="M7.12225275,71.2225275 C6.42846154,71.2225275 5.86538462,71.7856044 5.86538462,72.4793956 L5.86538462,74.6789148 C5.86538462,75.372706 6.42846154,75.935783 7.12225275,75.935783 C7.81604396,75.935783 8.37912088,75.372706 8.37912088,74.6789148 L8.37912088,72.4793956 C8.37912088,71.7856044 7.81604396,71.2225275 7.12225275,71.2225275" id="Fill-9" opacity="0.4"></path>
                    <path d="M7.12225275,62.0054945 C6.42846154,62.0054945 5.86538462,62.5685714 5.86538462,63.2623626 L5.86538462,65.4618819 C5.86538462,66.1556731 6.42846154,66.71875 7.12225275,66.71875 C7.81604396,66.71875 8.37912088,66.1556731 8.37912088,65.4618819 L8.37912088,63.2623626 C8.37912088,62.5685714 7.81604396,62.0054945 7.12225275,62.0054945" id="Fill-11" opacity="0.4"></path>
                    <path d="M3.45638736,67.8708791 L1.25686813,67.8708791 C0.563076923,67.8708791 0,68.433956 0,69.1277473 C0,69.8215385 0.563076923,70.3846154 1.25686813,70.3846154 L3.45638736,70.3846154 C4.15017857,70.3846154 4.71325549,69.8215385 4.71325549,69.1277473 C4.71325549,68.433956 4.15017857,67.8708791 3.45638736,67.8708791" id="Fill-13" opacity="0.4"></path>
                    <path d="M12.6734203,67.8708791 L10.4739011,67.8708791 C9.78010989,67.8708791 9.21703297,68.433956 9.21703297,69.1277473 C9.21703297,69.8215385 9.78010989,70.3846154 10.4739011,70.3846154 L12.6734203,70.3846154 C13.3672115,70.3846154 13.9302885,69.8215385 13.9302885,69.1277473 C13.9302885,68.433956 13.3672115,67.8708791 12.6734203,67.8708791" id="Fill-15" opacity="0.4"></path>
                    <path d="M297.877747,36.8681319 C297.183956,36.8681319 296.620879,37.4312088 296.620879,38.125 L296.620879,40.3245192 C296.620879,41.0183104 297.183956,41.5813874 297.877747,41.5813874 C298.571538,41.5813874 299.134615,41.0183104 299.134615,40.3245192 L299.134615,38.125 C299.134615,37.4312088 298.571538,36.8681319 297.877747,36.8681319" id="Fill-17" opacity="0.4"></path>
                    <path d="M297.877747,27.6510989 C297.183956,27.6510989 296.620879,28.2141758 296.620879,28.907967 L296.620879,31.1074863 C296.620879,31.8012775 297.183956,32.3643544 297.877747,32.3643544 C298.571538,32.3643544 299.134615,31.8012775 299.134615,31.1074863 L299.134615,28.907967 C299.134615,28.2141758 298.571538,27.6510989 297.877747,27.6510989" id="Fill-19" opacity="0.4"></path>
                    <path d="M295.049794,33.5164835 L292.850275,33.5164835 C292.156484,33.5164835 291.593407,34.0795604 291.593407,34.7733516 C291.593407,35.4671429 292.156484,36.0302198 292.850275,36.0302198 L295.049794,36.0302198 C295.743585,36.0302198 296.306662,35.4671429 296.306662,34.7733516 C296.306662,34.0795604 295.743585,33.5164835 295.049794,33.5164835" id="Fill-21" opacity="0.4"></path>
                    <path d="M303.428915,33.5164835 L301.229396,33.5164835 C300.535604,33.5164835 299.972527,34.0795604 299.972527,34.7733516 C299.972527,35.4671429 300.535604,36.0302198 301.229396,36.0302198 L303.428915,36.0302198 C304.122706,36.0302198 304.685783,35.4671429 304.685783,34.7733516 C304.685783,34.0795604 304.122706,33.5164835 303.428915,33.5164835" id="Fill-23" opacity="0.4"></path>
                    <path d="M202.355769,64.2050137 C203.04956,64.2050137 203.612637,63.6419368 203.612637,62.9481456 L203.612637,60.7486264 C203.612637,60.0548352 203.04956,59.4917582 202.355769,59.4917582 C201.661978,59.4917582 201.098901,60.0548352 201.098901,60.7486264 L201.098901,62.9481456 C201.098901,63.6419368 201.661978,64.2050137 202.355769,64.2050137" id="Fill-25" opacity="0.4"></path>
                    <path d="M202.355769,54.9879808 C203.04956,54.9879808 203.612637,54.4249038 203.612637,53.7311126 L203.612637,51.5315934 C203.612637,50.8378022 203.04956,50.2747253 202.355769,50.2747253 C201.661978,50.2747253 201.098901,50.8378022 201.098901,51.5315934 L201.098901,53.7311126 C201.098901,54.4249038 201.661978,54.9879808 202.355769,54.9879808" id="Fill-27" opacity="0.4"></path>
                    <path d="M196.490385,58.6538462 L198.689904,58.6538462 C199.383695,58.6538462 199.946772,58.0907692 199.946772,57.396978 C199.946772,56.7031868 199.383695,56.1401099 198.689904,56.1401099 L196.490385,56.1401099 C195.796593,56.1401099 195.233516,56.7031868 195.233516,57.396978 C195.233516,58.0907692 195.796593,58.6538462 196.490385,58.6538462" id="Fill-29" opacity="0.4"></path>
                    <path d="M205.707418,58.6538462 L207.906937,58.6538462 C208.600728,58.6538462 209.163805,58.0907692 209.163805,57.396978 C209.163805,56.7031868 208.600728,56.1401099 207.906937,56.1401099 L205.707418,56.1401099 C205.013626,56.1401099 204.450549,56.7031868 204.450549,57.396978 C204.450549,58.0907692 205.013626,58.6538462 205.707418,58.6538462" id="Fill-31" opacity="0.4"></path>
                    <path d="M117.884176,51.1126374 C121.436085,51.1126374 124.325206,54.0017582 124.325206,57.5536676 C124.325206,61.1064148 121.436085,63.9963736 117.884176,63.9963736 C114.332266,63.9963736 111.442308,61.1064148 111.442308,57.5536676 C111.442308,54.0017582 114.332266,51.1126374 117.884176,51.1126374 M117.884176,66.5101099 C122.82283,66.5101099 126.83978,62.4923214 126.83978,57.5536676 C126.83978,52.6158516 122.82283,48.5989011 117.884176,48.5989011 C112.945522,48.5989011 108.928571,52.6158516 108.928571,57.5536676 C108.928571,62.4923214 112.945522,66.5101099 117.884176,66.5101099" id="Fill-33" opacity="0.4"></path>
                    <path d="M152.610604,26.8131868 C157.753709,26.8131868 161.937404,30.9968819 161.937404,36.1399863 C161.937404,41.2830907 157.753709,45.4676236 152.610604,45.4676236 C147.4675,45.4676236 143.282967,41.2830907 143.282967,36.1399863 C143.282967,30.9968819 147.4675,26.8131868 152.610604,26.8131868 M152.610604,47.9813599 C159.139615,47.9813599 164.45114,42.6689973 164.45114,36.1399863 C164.45114,29.6109753 159.139615,24.2994505 152.610604,24.2994505 C146.081593,24.2994505 140.769231,29.6109753 140.769231,36.1399863 C140.769231,42.6689973 146.081593,47.9813599 152.610604,47.9813599" id="Fill-35" opacity="0.4"></path>
                    <path d="M152.918956,17.0682692 C153.612747,17.0682692 154.175824,16.5051923 154.175824,15.8114011 L154.175824,10.4739011 C154.175824,9.78010989 153.612747,9.21703297 152.918956,9.21703297 C152.225165,9.21703297 151.662088,9.78010989 151.662088,10.4739011 L151.662088,15.8114011 C151.662088,16.5051923 152.225165,17.0682692 152.918956,17.0682692" id="Fill-37" opacity="0.4"></path>
                    <path d="M152.918956,3.84769231 C153.612747,3.84769231 154.175824,3.28461538 154.175824,2.59082418 L154.175824,1.25686813 C154.175824,0.563076923 153.612747,0 152.918956,0 C152.225165,0 151.662088,0.563076923 151.662088,1.25686813 L151.662088,2.59082418 C151.662088,3.28461538 152.225165,3.84769231 152.918956,3.84769231" id="Fill-39" opacity="0.4"></path>
                    <path d="M117.726648,40.5298077 C118.42044,40.5298077 118.983516,39.9667308 118.983516,39.2729396 L118.983516,33.9354396 C118.983516,33.2416484 118.42044,32.6785714 117.726648,32.6785714 C117.032857,32.6785714 116.46978,33.2416484 116.46978,33.9354396 L116.46978,39.2729396 C116.46978,39.9667308 117.032857,40.5298077 117.726648,40.5298077" id="Fill-41" opacity="0.4"></path>
                    <path d="M117.726648,28.1471429 C118.42044,28.1471429 118.983516,27.5840659 118.983516,26.8902747 L118.983516,25.5563187 C118.983516,24.8625275 118.42044,24.2994505 117.726648,24.2994505 C117.032857,24.2994505 116.46978,24.8625275 116.46978,25.5563187 L116.46978,26.8902747 C116.46978,27.5840659 117.032857,28.1471429 117.726648,28.1471429" id="Fill-43" opacity="0.4"></path>
                    <path d="M217.019231,110.104162 L217.019231,93.4271978 C217.019231,92.7334066 216.456154,92.1703297 215.762363,92.1703297 C215.068571,92.1703297 214.505495,92.7334066 214.505495,93.4271978 L214.505495,110.104162 C214.505495,110.797953 215.068571,111.36103 215.762363,111.36103 C216.456154,111.36103 217.019231,110.797953 217.019231,110.104162" id="Fill-45" opacity="0.4"></path>
                    <path d="M234.323181,76.8595997 L292.256423,76.8595997 L292.256423,71.2380475 L234.323181,71.2380475 L234.323181,76.8595997 Z M240.495242,101.572141 C240.413126,99.6491327 240.119857,97.7814266 239.63722,95.9891327 L286.370928,95.9891327 L286.370928,101.572141 L240.495242,101.572141 Z M292.256423,109.707429 L287.998992,109.707429 C287.881684,109.670561 287.757673,109.644586 287.627796,109.644586 L239.559294,109.644586 C240.058689,107.87324 240.376258,106.027319 240.480997,104.124421 L287.627796,104.124421 C287.73086,104.124421 287.828895,104.108501 287.926093,104.085877 L292.256423,104.085877 L292.256423,109.707429 Z M286.370928,117.726248 L235.654623,117.726248 C236.88384,116.024449 237.907769,114.167635 238.697082,112.190163 C238.783387,112.209435 238.873044,112.221166 238.965214,112.221166 L286.370928,112.221166 L286.370928,117.726248 Z M225.989307,125.861537 C228.837371,124.476468 231.390489,122.578597 233.535544,120.293611 L286.370928,120.293611 L286.370928,125.861537 L225.989307,125.861537 Z M191.522632,102.681537 C191.522632,89.8648332 201.94961,79.4378552 214.766313,79.4378552 C227.367673,79.4378552 237.653044,89.5196134 237.994074,102.039696 C237.818112,102.255877 237.708346,102.528199 237.708346,102.829009 C237.708346,103.124792 237.814761,103.392924 237.986533,103.608267 C237.518978,115.452155 228.151121,125.040383 216.399404,125.861537 L213.133222,125.861537 C201.075667,125.019435 191.522632,114.947732 191.522632,102.681537 Z M234.324019,85.33927 L286.370928,85.33927 L286.370928,79.6163305 L234.324019,79.6163305 L234.324019,85.33927 Z M238.816904,93.4753964 C238.046025,91.4694349 237.030475,89.5841327 235.807961,87.8530063 L286.370928,87.8530063 L286.370928,93.4753964 L239.575214,93.4753964 L238.816904,93.4753964 Z M230.357343,68.6564404 L282.404253,68.6564404 L282.404253,63.0348882 L230.357343,63.0348882 L230.357343,68.6564404 Z M285.072165,54.4588579 L288.290585,54.4588579 L288.290585,60.081248 L230.357343,60.081248 L230.357343,54.4588579 L285.072165,54.4588579 Z M225.883731,46.3235695 L283.815296,46.3235695 L283.815296,51.9451217 L229.100475,51.9451217 L225.883731,51.9451217 L225.883731,46.3235695 Z M41.5656948,89.4450393 C41.7307635,89.132498 41.7684696,88.7545997 41.6285383,88.4001629 L22.2275218,39.05552 L70.3044036,20.1111656 C70.4108185,20.06927 70.5038267,20.0106162 70.5926454,19.9460969 L92.4688542,75.5868112 C88.7828789,76.1658085 85.2209146,77.4243524 81.9874119,79.3356299 L58.5409558,93.1905063 L58.5409558,90.7019074 C58.5409558,90.0081162 57.9778789,89.4450393 57.2840877,89.4450393 L41.5656948,89.4450393 Z M21.4599943,27.6674568 L63.4134146,11.1362893 C64.2731124,10.7960969 65.211574,10.8128552 66.0561894,11.1823744 C66.9033185,11.5502178 67.556052,12.225575 67.8937306,13.082759 L69.7078102,17.6971409 C69.5988817,17.7097096 69.4899531,17.7298195 69.3827003,17.772553 L21.3074943,36.7160695 L19.5126866,32.1486107 C18.8147058,30.3764266 19.6878102,28.3662755 21.4599943,27.6674568 Z M127.04781,77.7268387 C126.652316,80.6838305 125.292384,87.5731436 121.190805,88.0289678 C114.981038,88.7210832 105.862879,88.0323195 105.771546,88.0264541 C105.081945,87.9577453 104.475296,88.4889816 104.422508,89.1819349 C104.368882,89.8748882 104.885873,90.4781849 105.577989,90.5318112 C105.947508,90.5611382 114.384445,91.1979513 120.766821,90.5996821 L143.704665,90.1807261 C143.953525,90.1756986 144.195681,90.0977728 144.400132,89.9553277 L163.260695,76.8311107 C164.587948,76.1297783 168.332577,74.5846684 170.706382,75.3731436 C171.52586,75.6446272 172.110722,76.1775393 172.495324,77.0012068 C174.517206,81.3332123 170.884019,84.2508222 170.7952,84.3237206 L144.500681,102.091646 C143.554678,102.686564 142.523209,103.127306 141.464926,103.396276 L88.6638954,115.447965 C87.8067113,115.664984 86.923552,115.775589 86.0378789,115.775589 L58.5409558,115.775589 L58.5409558,96.0921958 C58.5719586,96.0779513 58.6046372,96.071248 58.634802,96.0536519 L83.2669036,81.4991189 C87.4430575,79.0314678 92.2149668,77.7268387 97.0673157,77.7268387 L127.04781,77.7268387 Z M145.870667,74.5704239 C147.464376,73.3831024 149.25667,72.6449019 151.054829,72.4362618 C152.658593,72.2477316 154.856437,72.4806711 155.795736,73.7392151 C156.82134,75.1108772 156.151011,77.4737893 155.408621,79.2132947 C155.405269,79.2216739 155.404431,79.230053 155.400242,79.2384321 L143.278167,87.674531 L127.905832,87.9552316 L145.870667,74.5704239 Z M58.5409558,124.24269 L58.5409558,118.289325 L72.9170135,118.289325 L58.5409558,124.24269 Z M284.918827,68.7243112 L284.918827,62.5949843 L289.547453,62.5949843 C290.241244,62.5949843 290.804321,62.0319074 290.804321,61.3381162 L290.804321,53.2019898 C290.804321,52.5081986 290.241244,51.9451217 289.547453,51.9451217 L286.329033,51.9451217 L286.329033,45.0667013 C286.329033,44.3729101 285.765956,43.8098332 285.072165,43.8098332 L224.626862,43.8098332 C223.932233,43.8098332 223.369994,44.3729101 223.369994,45.0667013 L223.369994,53.2019898 C223.369994,53.895781 223.932233,54.4588579 224.626862,54.4588579 L227.843607,54.4588579 L227.843607,61.3381162 C227.852824,61.6305475 227.843607,61.7026079 227.843607,61.77802 L227.843607,69.9133085 C227.843607,70.6070997 228.406684,71.1701766 229.100475,71.1701766 L231.810283,71.1701766 L231.810283,78.1164678 C231.815869,78.2248378 231.815869,79.9836153 231.810283,83.3928002 C227.265448,79.3716601 221.297838,76.9241189 214.766313,76.9241189 C200.563703,76.9241189 189.008895,88.4789266 189.008895,102.681537 C189.008895,112.863006 194.948854,121.682869 203.543318,125.861537 L61.2030025,125.861537 L78.9826591,118.497965 C79.0658917,118.463331 81.4176317,118.393785 86.0378789,118.289325 C87.1313542,118.289325 88.2231536,118.153583 89.2521097,117.891317 L142.05314,105.839627 C143.395475,105.499435 144.669939,104.954792 145.873181,104.196482 L172.264898,86.3615228 C174.141821,84.9186382 177.080379,80.8824156 174.773607,75.9378964 C174.088195,74.4715502 172.984665,73.4777865 171.491505,72.9850942 C167.554156,71.6888442 162.230063,74.5302041 162.005503,74.6525393 C161.977572,74.6676217 160.878231,75.4295631 158.707481,76.9383634 C159.01667,75.0396546 158.725915,73.4610283 157.810077,72.2351629 C155.825063,69.5764678 151.916203,69.8068936 150.764912,69.9392838 C148.528525,70.1990365 146.317275,71.1031436 144.368291,72.5544074 L127.755846,84.9303689 C129.398154,81.1673057 129.683044,76.8528964 129.701478,76.5428689 C129.721588,76.1976491 129.598415,75.8591327 129.361286,75.6069211 C129.123318,75.3547096 128.793181,75.2131024 128.446286,75.2131024 L97.0673157,75.2131024 C96.3835795,75.2131024 95.6998432,75.2382398 95.0202965,75.2851629 C95.0108002,75.2287435 86.7481491,54.1876537 70.2323432,12.1618936 C69.6483185,10.6796272 68.5213267,9.51241563 67.0591701,8.87727826 C65.5961756,8.24046508 63.9748157,8.2144898 62.4925492,8.79767662 L20.538291,25.3288442 C17.4765602,26.5362755 15.9674806,30.0085832 17.174074,33.0694761 L19.2931536,38.4597645 C19.3023707,38.5837755 19.3241564,38.7086244 19.3719174,38.8301217 C19.4048752,38.9139129 26.0442113,55.7436565 39.2899256,89.3193524 C39.302215,89.3506345 35.2073386,89.3925301 27.0052965,89.4450393 C26.3115053,89.4450393 25.7484284,90.0081162 25.7484284,90.7019074 C25.7484284,91.3956986 26.3115053,91.9587755 27.0052965,91.9587755 L56.0272196,91.9587755 L56.0272196,125.737526 L27.0052965,125.737526 C26.3115053,125.737526 25.7484284,126.300602 25.7484284,126.994394 C25.7484284,127.688185 26.3115053,128.251262 27.0052965,128.251262 L35.2327553,128.251262 C35.3422425,128.302654 94.6133505,128.343991 213.046079,128.375273 C213.61586,128.412979 214.188154,128.438954 214.766313,128.438954 C215.344472,128.438954 215.916766,128.412979 216.486546,128.375273 L287.627796,128.375273 C288.321588,128.375273 288.884665,127.812196 288.884665,127.118405 L288.884665,119.036743 L288.884665,112.221166 L293.513291,112.221166 C294.20792,112.221166 294.770159,111.658089 294.770159,110.964297 L294.770159,102.829009 C294.770159,102.13438 294.20792,101.572141 293.513291,101.572141 L288.884665,101.572141 L288.884665,94.7322645 L288.884665,86.5961382 C288.881313,86.5508909 288.881313,84.1432902 288.884665,79.373336 L293.513291,79.373336 C294.20792,79.373336 294.770159,78.810259 294.770159,78.1164678 L294.770159,69.9811794 C294.770159,69.2873882 294.20792,68.7243112 293.513291,68.7243112 L284.918827,68.7243112 Z" id="Fill-47"></path>
                </g>
            </g>
        </g>
    </g>
</svg>