<svg version="1.1" id="Layer_1" xmlns="http://www.w3.org/2000/svg" xmlns:xlink="http://www.w3.org/1999/xlink" x="0px" y="0px"
	 viewBox="0 0 120 100" style="enable-background:new 0 0 120 100;" xml:space="preserve">
<style type="text/css">
	.st0{fill:#026BB5;}
</style>
<path id="Fill-5" class="st0" d="M65.9729462,24.7200356c0,1.3923779-1.129715,2.524725-2.5177193,2.524725
	c-1.3885155,0-2.518219-1.1323471-2.518219-2.524725s1.1297035-2.524725,2.518219-2.524725
	C64.8432312,22.1953106,65.9729462,23.3276577,65.9729462,24.7200356 M63.4552269,18.0000362
	c-3.6956673,0-6.7018471,3.0145512-6.7018471,6.7199993c0,3.7044411,3.0061798,6.7189922,6.7018471,6.7189922
	c3.6941566,0,6.7003365-3.0145512,6.7003365-6.7189922C70.1555634,21.0145874,67.1493835,18.0000362,63.4552269,18.0000362
	 M10,64.7008362l8.543148,17.0078735c0,0,9.6738567-7.6850357,13.4428921-8.5039368
	c3.7690334-0.8188934,8.7944164-2.0787354,12.4378185-1.196846s18.4682732,6.0472412,23.6192932,6.1732254
	s23.3680191-9.9527588,26.00634-12.0944901c2.6383286-2.1417313,16.0812225-14.7401581,14.4479675-16.5039368
	c-1.6332474-1.7637787-6.1560898-3.1496048-8.1662445-2.2677155c-2.0101471,0.8818893-17.0862885,10.4566917-17.0862885,10.4566917
	s2.135788,1.6377945,2.135788,3.7795258c0,2.1417351-2.6383286,5.0393715-6.2817307,4.7874031
	s-17.2003708-2.2677155-19.7819061-0.5039368c-2.5810356,1.7637787-8.8627625-0.7559052-5.0937271-2.5196838
	c3.7690353-1.7637825,8.6687813-1.7637825,13.3172531-1.0078773c4.6484833,0.755909,14.1967087,3.7795296,14.9505157-0.3779526
	s-9.0456848-4.7873993-13.0659943-6.2992096c-4.0203018-1.5118141-18.3426361-7.3257332-24.2474594-7.2531662
	c-5.0952339,0.061985-8.5069656,0.8214188-14.4318886,5.8849754c-2.223732,1.9003448-4.7027512,3.4791832-7.3842945,4.6422691
	L10,64.7008362z M81.8028946,41.3342857c0,1.3923759-1.1297073,2.5247231-2.5177231,2.5247231
	c-1.3885117,0-2.5182114-1.1323471-2.5182114-2.5247231c0-1.3923798,1.1296997-2.5247269,2.5182114-2.5247269
	C80.6731873,38.8095589,81.8028946,39.941906,81.8028946,41.3342857 M79.2851715,34.6142845
	c-3.6956635,0-6.7018433,3.0145531-6.7018433,6.7200012c0,3.7044411,3.0061798,6.7189903,6.7018433,6.7189903
	c3.6941605,0,6.7003403-3.0145493,6.7003403-6.7189903C85.9855118,37.6288376,82.979332,34.6142845,79.2851715,34.6142845
	 M80.8214874,20.3176422L57.5273361,43.6781464l3.161972,2.9031792l23.2956543-23.3589897L80.8214874,20.3176422z"/>
</svg>
