<svg version="1.1" id="Layer_1" xmlns="http://www.w3.org/2000/svg" xmlns:xlink="http://www.w3.org/1999/xlink" x="0px" y="0px"
	 viewBox="0 0 120 100" style="enable-background:new 0 0 120 100;" xml:space="preserve">
<style type="text/css">
	.st0{fill:#FFFFFF;}
</style>
<path id="Fill-5" class="st0" d="M27.5061989,48.6980858c-3.454998,0-6.2559986-2.8010025-6.2559986-6.2560005
	s2.8010006-6.2560005,6.2559986-6.2560005c3.4550018,0,6.2560005,2.8010025,6.2560005,6.2560005
	S30.9612007,48.6980858,27.5061989,48.6980858 M27.5061989,28.9360847c-7.4589996,0-13.5059986,6.0470009-13.5059986,13.5060005
	s6.046999,13.5060005,13.5059986,13.5060005s13.5060005-6.0470009,13.5060005-13.5060005
	S34.9652023,28.9360847,27.5061989,28.9360847 M105.8537979,9.9999857l-28.4999924,9.999999l10.2499924,8l-5.25,7.75
	l-20.7499962-12.875c0,0-39,65.625-39.25,65.625s3,2,3,2l38.7430038-55.5l20.7569962,15.25l11.5-15l9.5,7V9.9999857z
	 M62.2685013,76.2103882c-3.4550018,0-6.2560005-2.8010025-6.2560005-6.2560043
	c0-3.4549942,2.8009987-6.2560005,6.2560005-6.2560005c3.4549942,0,6.2560043,2.8010063,6.2560043,6.2560005
	C68.5245056,73.4093857,65.7234955,76.2103882,62.2685013,76.2103882 M62.2685013,56.4483833
	c-7.4589996,0-13.5060005,6.0470009-13.5060005,13.5060005s6.0470009,13.5060043,13.5060005,13.5060043
	s13.5060043-6.0470047,13.5060043-13.5060043S69.7275009,56.4483833,62.2685013,56.4483833"/>
</svg>
