<svg xmlns="http://www.w3.org/2000/svg" width="21" height="30" viewBox="0 0 21 30">
  <g fill="#FFF" fill-rule="evenodd">
    <path d="M17.2726202,26.786535 C17.2335995,25.8584279 17.0489301,23.8194051 16.1896861,22.7660791 C15.6341069,22.0860497 11.6899184,18.2353906 10.302485,18.2353906 C8.91565743,18.2353906 5.04174941,22.0720473 4.42376597,22.7660791 C3.516879,23.7846755 3.35642637,25.8541836 3.33166651,26.7895363 L2.14116533,26.7763655 C2.14116533,26.7763655 2.07452006,22.6316561 3.11721566,21.5169436 C4.1593054,20.4028398 6.17744547,19.2004601 7.24195225,17.7740421 C8.30645904,16.347624 9.01532241,15.4118986 9.01532241,14.5206156 C9.01532241,13.6293327 8.30645904,12.6936073 7.24195225,11.2671892 C6.17744547,9.84137995 4.1593054,8.63778264 3.11721566,7.52367891 C2.07452006,6.40957517 2.14116533,2.26486575 2.14116533,2.26486575 L10.1204222,2.17719857 L10.1204222,2.17598098 L10.1670739,2.17658977 L10.2131197,2.17598098 L10.2131197,2.17719857 L18.1917708,2.26486575 C18.1917708,2.26486575 18.258416,6.40957517 17.2163263,7.52367891 C16.1742366,8.63778264 14.1560965,9.84137995 13.0915897,11.2671892 C12.0270829,12.6936073 11.3176137,13.6293327 11.3176137,14.5206156 C11.3176137,15.4118986 12.0270829,16.347624 13.0915897,17.7740421 C14.1560965,19.2004601 16.1742366,20.4028398 17.2163263,21.5169436 C18.258416,22.6316561 18.1917708,26.7763655 18.1917708,26.7763655 L17.2726202,26.786535 Z M10.1101831,12.5534616 C10.2707376,12.5534616 10.3906991,11.8210753 10.4385625,11.6755722 C11.1577256,9.50337428 15.1861295,7.19237002 16.0622119,5.71663917 C16.0622119,5.71663917 13.0104642,6.82039331 10.1065479,6.82039331 C7.54797524,6.82039331 4.14967213,5.71663917 4.14967213,5.71663917 C5.02333108,7.18993482 9.10565705,9.70427823 9.76726286,11.6676578 C9.81754975,11.8174225 9.94962856,12.5534616 10.1101831,12.5534616 Z"/>
    <polygon points="0 3.21 20.333 3.21 20.333 0 0 0"/>
    <polygon points="0 30 20.333 30 20.333 26.79 0 26.79"/>
  </g>
</svg>
