<svg xmlns="http://www.w3.org/2000/svg" width="50.758" height="50" viewBox="0 0 50.758 50">
  <g fill="#FFF" fill-rule="evenodd" transform="translate(.379)">
    <path d="M49.3424545 19.4750303C49.2688182 19.1483636 48.9442727 18.9429091 48.6182121 19.0165455 48.2915455 19.0898788 48.0863939 19.4141212 48.1600303 19.7407879 48.5436667 21.4486667 48.7382121 23.2095758 48.7382121 24.9750303 48.7382121 27.5195758 48.3382121 30.0235152 47.5494242 32.4171515 47.4445758 32.7350303 47.6176061 33.0777576 47.9351818 33.182303 47.9982121 33.2032121 48.0621515 33.2132121 48.1248788 33.2132121 48.3794242 33.2132121 48.6163939 33.0513939 48.7006364 32.7965455 49.5297273 30.2798788 49.9503333 27.6486667 49.9503333 24.9750303 49.9503333 23.1204848 49.7457879 21.2701818 49.3424545 19.4750303M1.21212121 24.9751515C1.21212121 11.8721212 11.8721212 1.21212121 24.9751515 1.21212121 30.6736364 1.21212121 36.1845455 3.25969697 40.4930303 6.97757576 40.7466667 7.19636364 41.1290909 7.16787879 41.3475758 6.91484848 41.5663636 6.66151515 41.5381818 6.27878788 41.2848485 6.06030303 36.7563636 2.15242424 30.9642424 0 24.9751515 0 11.2039394 0 0 11.2039394 0 24.9751515 0 30.1439394 1.56484848 35.1027273 4.52545455 39.3160606 4.64333333 39.4842424 4.83090909 39.5739394 5.02181818 39.5739394 5.14212121 39.5739394 5.26363636 39.5381818 5.36969697 39.4639394 5.64363636 39.2712121 5.70969697 38.8933333 5.51727273 38.6193939 2.70090909 34.6112121 1.21212121 29.8930303 1.21212121 24.9751515M23.8932424 48.7139091C21.0102121 48.5848182 18.2126364 47.943303 15.5777879 46.8075455 15.2696061 46.6748182 14.9135455 46.8166364 14.7811212 47.1242121 14.648697 47.4317879 14.7905152 47.7881515 15.0977879 47.9208788 17.8677879 49.1148182 20.808697 49.7890606 23.838697 49.9248182 23.8483939 49.9251212 23.8574848 49.9254242 23.8665758 49.9254242 24.188697 49.9254242 24.4568788 49.6714848 24.4714242 49.3466364 24.4865758 49.0120909 24.2277879 48.7290606 23.8932424 48.7139091M41.3890909 17.5509091C41.3890909 17.9127273 41.0945455 18.2072727 40.7327273 18.2072727 40.3706061 18.2072727 40.0760606 17.9127273 40.0760606 17.5509091 40.0760606 17.1887879 40.3706061 16.8942424 40.7327273 16.8942424 41.0945455 16.8942424 41.3890909 17.1887879 41.3890909 17.5509091M38.8639394 17.5509091C38.8639394 18.5812121 39.7024242 19.4193939 40.7327273 19.4193939 41.7630303 19.4193939 42.6012121 18.5812121 42.6012121 17.5509091 42.6012121 16.5206061 41.7630303 15.6821212 40.7327273 15.6821212 39.7024242 15.6821212 38.8639394 16.5206061 38.8639394 17.5509091M46.0040909 12.9359091C45.6695455 12.9359091 45.3980303 13.2074242 45.3980303 13.5419697L45.3980303 14.3374242C45.3980303 14.6722727 45.6695455 14.9434848 46.0040909 14.9434848 46.3386364 14.9434848 46.6101515 14.6722727 46.6101515 14.3374242L46.6101515 13.5419697C46.6101515 13.2074242 46.3386364 12.9359091 46.0040909 12.9359091M46.0040909 9.65348485C45.6695455 9.65348485 45.3980303 9.92469697 45.3980303 10.2595455L45.3980303 11.055C45.3980303 11.3895455 45.6695455 11.6610606 46.0040909 11.6610606 46.3386364 11.6610606 46.6101515 11.3895455 46.6101515 11.055L46.6101515 10.2595455C46.6101515 9.92469697 46.3386364 9.65348485 46.0040909 9.65348485M44.760303 11.6924242L43.9648485 11.6924242C43.630303 11.6924242 43.3587879 11.9636364 43.3587879 12.2984848 43.3587879 12.6330303 43.630303 12.9045455 43.9648485 12.9045455L44.760303 12.9045455C45.0948485 12.9045455 45.3663636 12.6330303 45.3663636 12.2984848 45.3663636 11.9636364 45.0948485 11.6924242 44.760303 11.6924242M48.6490909 12.2984848C48.6490909 11.9636364 48.3775758 11.6924242 48.0430303 11.6924242L47.2475758 11.6924242C46.9130303 11.6924242 46.6415152 11.9636364 46.6415152 12.2984848 46.6415152 12.6330303 46.9130303 12.9045455 47.2475758 12.9045455L48.0430303 12.9045455C48.3775758 12.9045455 48.6490909 12.6330303 48.6490909 12.2984848M9.64045455 44.2492424C9.30590909 44.2492424 9.03439394 44.5207576 9.03439394 44.855303L9.03439394 45.6507576C9.03439394 45.985303 9.30590909 46.2568182 9.64045455 46.2568182 9.975 46.2568182 10.2465152 45.985303 10.2465152 45.6507576L10.2465152 44.855303C10.2465152 44.5207576 9.975 44.2492424 9.64045455 44.2492424M9.64045455 40.9665152C9.30590909 40.9665152 9.03439394 41.2380303 9.03439394 41.5725758L9.03439394 42.3680303C9.03439394 42.7025758 9.30590909 42.9740909 9.64045455 42.9740909 9.975 42.9740909 10.2465152 42.7025758 10.2465152 42.3680303L10.2465152 41.5725758C10.2465152 41.2380303 9.975 40.9665152 9.64045455 40.9665152M8.39666667 43.0054545L7.60121212 43.0054545C7.26666667 43.0054545 6.99515152 43.2769697 6.99515152 43.6115152 6.99515152 43.9460606 7.26666667 44.2175758 7.60121212 44.2175758L8.39666667 44.2175758C8.73121212 44.2175758 9.00272727 43.9460606 9.00272727 43.6115152 9.00272727 43.2769697 8.73121212 43.0054545 8.39666667 43.0054545M11.6793939 43.0054545L10.8839394 43.0054545C10.5493939 43.0054545 10.2778788 43.2769697 10.2778788 43.6115152 10.2778788 43.9460606 10.5493939 44.2175758 10.8839394 44.2175758L11.6793939 44.2175758C12.0139394 44.2175758 12.2854545 43.9460606 12.2854545 43.6115152 12.2854545 43.2769697 12.0139394 43.0054545 11.6793939 43.0054545"/>
    <path d="M40.675303,46.1550303 C40.2862121,43.7444242 38.6125758,41.7586667 36.3813636,40.9238182 C37.6795455,40.1286667 38.5504545,38.7010909 38.5504545,37.0704848 C38.5504545,34.5774545 36.5225758,32.5495758 34.0295455,32.5495758 C31.5368182,32.5495758 29.5086364,34.5774545 29.5086364,37.0704848 C29.5086364,38.7010909 30.3795455,40.1286667 31.6780303,40.9238182 C29.4465152,41.7586667 27.7734848,43.7444242 27.3840909,46.1550303 C25.4101515,44.3510909 24.1698485,41.7568485 24.1698485,38.8780606 C24.1698485,33.4413939 28.5928788,29.0183636 34.0295455,29.0183636 C39.4665152,29.0183636 43.8895455,33.4413939 43.8895455,38.8780606 C43.8895455,41.7565455 42.6492424,44.3507879 40.675303,46.1550303 M34.0295455,40.3789697 C32.205303,40.3789697 30.7207576,38.8947273 30.7207576,37.0704848 C30.7207576,35.2459394 32.205303,33.761697 34.0295455,33.761697 C35.8540909,33.761697 37.3383333,35.2459394 37.3383333,37.0704848 C37.3383333,38.8947273 35.8540909,40.3789697 34.0295455,40.3789697 M28.5183333,47.0501818 C28.615303,44.0907879 31.0471212,41.7113939 34.0295455,41.7113939 C37.0122727,41.7113939 39.4443939,44.0907879 39.5413636,47.0498788 C37.9668182,48.1153333 36.0695455,48.7380606 34.0295455,48.7380606 C31.9898485,48.7380606 30.0925758,48.1153333 28.5183333,47.0501818 M20.1556061,31.032 C19.7840909,29.1232121 18.465303,27.5501818 16.7086364,26.8232121 C17.7343939,26.1226061 18.4092424,24.9447273 18.4092424,23.6113939 C18.4092424,21.4674545 16.665303,19.7232121 14.5210606,19.7232121 C12.3774242,19.7232121 10.6331818,21.4674545 10.6331818,23.6113939 C10.6331818,24.9447273 11.3083333,26.1226061 12.3337879,26.8232121 C10.5771212,27.5501818 9.25833333,29.1229091 8.88681818,31.032 C7.32772727,29.5438182 6.35318182,27.4477576 6.35318182,25.1271515 C6.35318182,20.6235152 10.0174242,16.9592727 14.5210606,16.9592727 C19.025,16.9592727 22.6892424,20.6235152 22.6892424,25.1271515 C22.6892424,27.4477576 21.714697,29.5438182 20.1556061,31.032 M14.5210606,26.2874545 C13.0456061,26.2874545 11.845303,25.0871515 11.845303,23.6113939 C11.845303,22.1359394 13.0456061,20.9353333 14.5210606,20.9353333 C15.9968182,20.9353333 17.1971212,22.1359394 17.1971212,23.6113939 C17.1971212,25.0871515 15.9968182,26.2874545 14.5210606,26.2874545 M10.0010606,31.9262424 C10.1089394,29.5232121 12.0922727,27.6001818 14.5210606,27.6001818 C16.9501515,27.6001818 18.9334848,29.5232121 19.0410606,31.9262424 C17.7459091,32.7901818 16.1913636,33.2950303 14.5210606,33.2950303 C12.8510606,33.2950303 11.2965152,32.7901818 10.0010606,31.9262424 M27.8280303,5.12654545 C30.6143939,5.12654545 32.8813636,7.39381818 32.8813636,10.1801818 C32.8813636,11.4786667 32.384697,12.6610909 31.5768182,13.5571515 C31.2689394,12.5471515 30.5628788,11.7101818 29.6425758,11.2268485 C30.1986364,10.7280606 30.5510606,10.0065455 30.5510606,9.20260606 C30.5510606,7.70109091 29.3295455,6.47927273 27.8280303,6.47927273 C26.3262121,6.47927273 25.104697,7.70109091 25.104697,9.20260606 C25.104697,10.0065455 25.4571212,10.7280606 26.0131818,11.2268485 C25.0928788,11.7101818 24.3868182,12.5471515 24.0789394,13.5571515 C23.2710606,12.6610909 22.7743939,11.4786667 22.7743939,10.1801818 C22.7743939,7.39381818 25.0413636,5.12654545 27.8280303,5.12654545 M27.8280303,10.7135152 C26.994697,10.7135152 26.3168182,10.0356364 26.3168182,9.20260606 C26.3168182,8.36957576 26.994697,7.69139394 27.8280303,7.69139394 C28.6610606,7.69139394 29.3389394,8.36957576 29.3389394,9.20260606 C29.3389394,10.0356364 28.6610606,10.7135152 27.8280303,10.7135152 M25.1334848,14.4480606 C25.2598485,13.072 26.4195455,11.9904848 27.8280303,11.9904848 C29.2362121,11.9904848 30.3959091,13.072 30.5222727,14.4480606 C29.7413636,14.9429091 28.8189394,15.2338182 27.8280303,15.2338182 C26.8368182,15.2338182 25.9143939,14.9429091 25.1334848,14.4480606 M34.0295455,27.8062424 C30.3107576,27.8062424 27.0165152,29.6513939 25.0077273,32.4726061 L22.3562121,30.2765455 C23.3316667,28.7971515 23.9013636,27.0280606 23.9013636,25.1271515 C23.9013636,22.3559394 22.6922727,19.862303 20.775,18.1435152 L23.544697,15.242 C23.6407576,15.1413939 23.6928788,15.0162424 23.7065152,14.8877576 C24.8095455,15.8547273 26.2495455,16.4459394 27.8280303,16.4459394 C31.2828788,16.4459394 34.0934848,13.6353333 34.0934848,10.1801818 C34.0934848,6.72533333 31.2828788,3.91442424 27.8280303,3.91442424 C24.3728788,3.91442424 21.5622727,6.72533333 21.5622727,10.1801818 C21.5622727,11.7204848 22.1231818,13.1307879 23.0486364,14.2226061 C22.9086364,14.2362424 22.7725758,14.2953333 22.6680303,14.4053333 L19.8177273,17.3910909 C18.3095455,16.3550303 16.485303,15.7471515 14.5210606,15.7471515 C9.34893939,15.7471515 5.14106061,19.9550303 5.14106061,25.1271515 C5.14106061,30.2995758 9.34893939,34.5071515 14.5210606,34.5071515 C17.3580303,34.5071515 19.9022727,33.2398788 21.6240909,31.2435152 L24.3540909,33.5044242 C23.4659091,35.0968485 22.9577273,36.9289697 22.9577273,38.8780606 C22.9577273,44.9835152 27.924697,49.9501818 34.0295455,49.9501818 C40.135,49.9501818 45.1016667,44.9835152 45.1016667,38.8780606 C45.1016667,32.7732121 40.135,27.8062424 34.0295455,27.8062424"/>
  </g>
</svg>
