<svg id="Layer_1" data-name="Layer 1" xmlns="http://www.w3.org/2000/svg" xmlns:xlink="http://www.w3.org/1999/xlink" viewBox="0 0 250 190"><defs><style>.cls-1{fill:#b3d6f2;}.cls-2{fill:url(#linear-gradient);}</style><linearGradient id="linear-gradient" x1="124.85" y1="10.67" x2="124.85" y2="178.26" gradientUnits="userSpaceOnUse"><stop offset="0" stop-color="#026bb5"/><stop offset="1" stop-color="#00a5e9"/></linearGradient></defs><title>icon-3hk-01</title><path id="icon-3handset-01a" class="cls-1" d="M83.15,97.32h-20v-20h20Zm33.66,0h-20v-20h20Zm33.67,0h-20v-20h20Zm-101,32.74h-20v-20h20Zm33.67,0h-20v-20h20Zm33.66,0h-20v-20h20ZM147,121.62l-1.88,8.44H130.48v-20h20v4.44Zm-97.5,41.49h-20v-20h20Zm33.67,0h-20v-20h20Zm33.66,0h-20v-20h20Zm33.67,0h-20v-20h15.37l4.63,13.64Zm33.33-71.86L167.1,97.32h-3.29v-20h20Zm22,48.86a14.79,14.79,0,0,0-3.69-4.42,21.67,21.67,0,0,0-5.21-3.09,32.21,32.21,0,0,0-5.94-1.85,34.59,34.59,0,0,1-3.54-1,12.29,12.29,0,0,1-3.17-1.55A8.8,8.8,0,0,1,182,126a5,5,0,0,1-.81-2.87,4.08,4.08,0,0,1,.62-2.24A6.37,6.37,0,0,1,183.5,119a8.07,8.07,0,0,1,2.47-1.18,9,9,0,0,1,5.92.18,8.76,8.76,0,0,1,2.61,1.67,7.9,7.9,0,0,1,1.83,2.52,7.36,7.36,0,0,1,.69,3.18v1.26h8.89v-1.26a17,17,0,0,0-.77-4.73,14.22,14.22,0,0,0-2.7-5,15.22,15.22,0,0,0-5.23-4,15.83,15.83,0,0,0-4.22-1.25v-3.69h-7.7v3.69a21.6,21.6,0,0,0-2.5.59,18.27,18.27,0,0,0-5.3,2.7,14.46,14.46,0,0,0-3.76,4.14,10.11,10.11,0,0,0-1.46,5.27,11.71,11.71,0,0,0,1.35,5.6,14.84,14.84,0,0,0,3.44,4.3,19.71,19.71,0,0,0,4.79,3,26,26,0,0,0,5.47,1.76,40,40,0,0,1,3.88,1.05,15.91,15.91,0,0,1,3.57,1.64,9.25,9.25,0,0,1,2.59,2.38,4.94,4.94,0,0,1,.94,3.07,5.56,5.56,0,0,1-.66,2.81,6.37,6.37,0,0,1-1.87,2A8.58,8.58,0,0,1,193,152a11.85,11.85,0,0,1-7.37-.35,10,10,0,0,1-3-2.11,9.18,9.18,0,0,1-1.94-3,10,10,0,0,1-.68-3.59v-1.26h-8.88v1.26a14.84,14.84,0,0,0,1.52,6.61,17.6,17.6,0,0,0,4.06,5.34,19.68,19.68,0,0,0,5.87,3.58,19.28,19.28,0,0,0,3.23.95v3.8h6.79v-3.62a23.18,23.18,0,0,0,3.83-.7,18.06,18.06,0,0,0,5.68-2.67,12.2,12.2,0,0,0,5.16-10.31A11.87,11.87,0,0,0,205.8,140.11Z"/><path id="icon-3handset-01b" class="cls-2" d="M198.73,90.72V33.21a13.51,13.51,0,0,0-13.5-13.5H148V14.59a6.17,6.17,0,0,0-6.16-6.17H139a6.18,6.18,0,0,0-6.17,6.17v5.12h-52V14.59a6.18,6.18,0,0,0-6.17-6.17H71.85a6.18,6.18,0,0,0-6.17,6.17v5.12H28.48A13.51,13.51,0,0,0,15,33.21V166.4a13.51,13.51,0,0,0,13.5,13.5H179.64a45.6,45.6,0,0,0,19.09-89.18ZM135.85,14.59A3.17,3.17,0,0,1,139,11.42h2.84A3.17,3.17,0,0,1,145,14.59V30.82A3.17,3.17,0,0,1,141.86,34H139a3.17,3.17,0,0,1-3.17-3.17Zm-67.17,0a3.18,3.18,0,0,1,3.17-3.17h2.84a3.17,3.17,0,0,1,3.17,3.17V30.82A3.17,3.17,0,0,1,74.69,34H71.85a3.18,3.18,0,0,1-3.17-3.17ZM18,33.21a10.51,10.51,0,0,1,10.5-10.5h37.2v8.11A6.18,6.18,0,0,0,71.85,37h2.84a6.18,6.18,0,0,0,6.17-6.17V22.71h52v8.11A6.18,6.18,0,0,0,139,37h2.84A6.17,6.17,0,0,0,148,30.82V22.71h37.21a10.51,10.51,0,0,1,10.5,10.5V59.93H18ZM28.48,176.9A10.51,10.51,0,0,1,18,166.4V62.93H195.73V90.18a45,45,0,0,0-6.6-.49,45.59,45.59,0,0,0-18.64,87.21Zm164,.85c-.53.05-1.06.08-1.6.1s-1.18.05-1.77.05c-.78,0-1.54,0-2.3-.06l-.32,0c-.67,0-1.34-.09-2-.17h-.15a42.11,42.11,0,0,1-4.38-.73h0a42.6,42.6,0,0,1,15.75-83.69h0c.51.08,1,.18,1.51.27l1.46.32h0a42.59,42.59,0,0,1-6.23,84Z"/></svg>