<svg id="Layer_1" data-name="Layer 1" xmlns="http://www.w3.org/2000/svg" xmlns:xlink="http://www.w3.org/1999/xlink" viewBox="0 0 250 190"><defs><style>.cls-1{fill:url(#linear-gradient);}.cls-2{fill:#b3d6f2;}</style><linearGradient id="linear-gradient" x1="127.93" y1="12.63" x2="127.93" y2="182.37" gradientUnits="userSpaceOnUse"><stop offset="0" stop-color="#026bb5"/><stop offset="1" stop-color="#00a5e9"/></linearGradient></defs><title>icon-aboutus-03</title><path id="icon-aboutus-03a" class="cls-1" d="M127.59,15.41l-.86,1.06c-11.06,13.61-24.91,20.8-41.17,21.36a56.77,56.77,0,0,1-21.42-3.32l-1.38-.57-.57,1.38c-.17.39-4,9.74-5.48,25.36-1.37,14.38-.89,37,9.15,63,18.2,47.24,56,55.33,61,56.2a1.76,1.76,0,0,0,.55.09h.12a2.12,2.12,0,0,0,.54-.08c4.95-.82,42.84-8.53,61.51-55.59,19.72-49.7,4.71-88,4.55-88.35l-.56-1.39-1.39.56a56.59,56.59,0,0,1-21.45,3.1c-16.25-.72-30-8-40.95-21.76l-.89-1.09C128.25,14.58,127.59,15.41,127.59,15.41Zm59.17,107.81c-18.22,45.91-55.06,53.07-59.32,53.75-4.23-.71-41-8.22-58.78-54.33C51.89,79.12,62,44.88,64.46,37.81c7.18,2.38,39.12,10.79,63.74-18.41l0,0,0,0c24.33,29.43,56.36,21.34,63.55,19C194.17,45.53,204,79.87,186.76,123.22Zm-36.35-40.4h-5.9V67.55c0-8.3-7.43-15-16.55-15s-16.56,6.75-16.56,15V82.82h-5.9c-5,0-9,3.7-9,8.24v43.7c0,4.54,4,8.24,9,8.24h44.91c5,0,9-3.7,9-8.24V91.06C159.4,86.52,155.37,82.82,150.41,82.82Zm-36-15.27c0-6.65,6.08-12,13.56-12s13.55,5.4,13.55,12V82.82H114.4Zm42,67.21c0,2.89-2.69,5.24-6,5.24H105.5c-3.3,0-6-2.35-6-5.24V91.06c0-2.89,2.69-5.24,6-5.24h44.91c3.3,0,6,2.35,6,5.24Z"/><path id="icon-aboutus-03b" class="cls-2" d="M131.7,110.35v14.3a3.77,3.77,0,0,1-7.49,0v-14.3a6.65,6.65,0,0,1-3.74-5.81c0-3.72,3.35-6.74,7.49-6.74s7.48,3,7.48,6.74A6.65,6.65,0,0,1,131.7,110.35Z"/></svg>