<svg id="Layer_1" data-name="Layer 1" xmlns="http://www.w3.org/2000/svg" xmlns:xlink="http://www.w3.org/1999/xlink" viewBox="0 0 250 190"><defs><style>.cls-1{fill:#b3d6f2;}.cls-2{fill:url(#linear-gradient);}</style><linearGradient id="linear-gradient" x1="125.03" y1="12.67" x2="125.03" y2="182.22" gradientUnits="userSpaceOnUse"><stop offset="0" stop-color="#026bb5"/><stop offset="1" stop-color="#00a5e9"/></linearGradient></defs><title>icon-bt-03</title><polygon id="icon-bt-03a" class="cls-1" points="124 168.33 45.67 167.67 46 45.33 50 45 54.67 43 114 120.67 110 127.33 112 136.33 118 142 124 142.33 124 168.33"/><path id="icon-bt-03b" class="cls-2" d="M202.82,151.67a14.73,14.73,0,0,0-12.23,6.52,1.51,1.51,0,0,0-.5-.31l-54-20a14.73,14.73,0,0,0-22.13-19.21l-57-75.29a14.75,14.75,0,1,0-12.18,3.39V168.94H188.3a14.74,14.74,0,1,0,14.52-17.27Zm-78.81-34a11.75,11.75,0,1,1-11.74,11.74A11.76,11.76,0,0,1,124,117.65ZM35.5,32.25A11.75,11.75,0,1,1,47.25,44,11.76,11.76,0,0,1,35.5,32.25ZM47.73,47a14.64,14.64,0,0,0,6.73-1.87L111.92,121a14.73,14.73,0,0,0,22,19.29l.08,0,55,20.38.17,0a14.68,14.68,0,0,0-1.12,5.22H47.73Zm155.09,131.2a11.75,11.75,0,1,1,11.75-11.75A11.76,11.76,0,0,1,202.82,178.17Z"/></svg>