<?xml version="1.0" encoding="UTF-8"?>
<svg width="17px" height="19px" viewBox="0 0 17 19" version="1.1" xmlns="http://www.w3.org/2000/svg" xmlns:xlink="http://www.w3.org/1999/xlink">
    <!-- Generator: Sketch 57.1 (83088) - https://sketch.com -->
    <title>icon-clock</title>
    <desc>Created with Sketch.</desc>
    <g id="Page-1" stroke="none" stroke-width="1" fill="none" fill-rule="evenodd">
        <g id="desktop-bt" transform="translate(-906.000000, -620.000000)" fill="#FFFFFF">
            <g id="Group-5" transform="translate(821.000000, 620.000000)">
                <g id="Group-7" transform="translate(85.000000, 0.000000)">
                    <path d="M11.0872396,6.91911458 L7.70182292,9.62744792 C7.40932292,9.86171875 7.36260417,10.2876042 7.59619792,10.5794271 C7.73026042,10.7466667 7.92661458,10.8333333 8.125,10.8333333 C8.27328125,10.8333333 8.42291667,10.7852604 8.5475,10.6850521 L11.9329167,7.97671875 C12.2247396,7.743125 12.2721354,7.31723958 12.0385417,7.02541667 C11.805625,6.73291667 11.3804167,6.68484375 11.0872396,6.91911458 M8.80208333,16.8925521 L8.80208333,16.25 C8.80208333,15.8755729 8.49875,15.5729167 8.125,15.5729167 C7.75125,15.5729167 7.44791667,15.8755729 7.44791667,16.25 L7.44791667,16.8925521 C4.25411458,16.5743229 1.70692708,14.0271354 1.38869792,10.8333333 L2.03125,10.8333333 C2.405,10.8333333 2.70833333,10.5306771 2.70833333,10.15625 C2.70833333,9.78182292 2.405,9.47916667 2.03125,9.47916667 L1.38869792,9.47916667 C1.70692708,6.28536458 4.25411458,3.73817708 7.44791667,3.41994792 L7.44791667,4.0625 C7.44791667,4.43625 7.75125,4.73958333 8.125,4.73958333 C8.49875,4.73958333 8.80208333,4.43625 8.80208333,4.0625 L8.80208333,3.41994792 C11.9958854,3.73885417 14.5430729,6.28536458 14.8613021,9.47916667 L14.21875,9.47916667 C13.8443229,9.47916667 13.5416667,9.78182292 13.5416667,10.15625 C13.5416667,10.5306771 13.8443229,10.8333333 14.21875,10.8333333 L14.8613021,10.8333333 C14.5430729,14.0271354 11.9958854,16.5743229 8.80208333,16.8925521 M14.6202604,5.29546875 L15.3745736,4.54119792 C15.6392708,4.27645833 15.6392708,3.84854167 15.3745736,3.58380208 C15.1097917,3.3190625 14.681875,3.3190625 14.4171354,3.58380208 L13.7210937,4.27984375 C12.2619792,2.89046875 10.2936979,2.03125 8.125,2.03125 C3.64473958,2.03125 0,5.67598958 0,10.15625 C0,14.6365104 3.64473958,18.28125 8.125,18.28125 C12.6052604,18.28125 16.25,14.6365104 16.25,10.15625 C16.25,8.33286458 15.6385938,6.65302083 14.6202604,5.29546875 M9.47916667,1.35416667 L6.77083333,1.35416667 C6.39708333,1.35416667 6.09375,1.05083333 6.09375,0.677083333 C6.09375,0.303333333 6.39708333,0 6.77083333,0 L9.47916667,0 C9.85359375,0 10.15625,0.303333333 10.15625,0.677083333 C10.15625,1.05083333 9.85359375,1.35416667 9.47916667,1.35416667" id="icon-clock"></path>
                </g>
            </g>
        </g>
    </g>
</svg>