<svg id="Layer_1" data-name="Layer 1" xmlns="http://www.w3.org/2000/svg" xmlns:xlink="http://www.w3.org/1999/xlink" viewBox="0 0 250 190"><defs><style>.cls-1{fill:#b3d6f2;}.cls-2{fill:url(#linear-gradient);}</style><linearGradient id="linear-gradient" x1="125" y1="20.67" x2="125" y2="178.67" gradientUnits="userSpaceOnUse"><stop offset="0" stop-color="#026bb5"/><stop offset="1" stop-color="#00a5e9"/></linearGradient></defs><title>icon-ploan-01</title><path id="icon-ploan-01a" class="cls-1" d="M67.1,71.53H174.71v-6H67.1Zm0,21.56H174.71v-6H67.1Zm127,3.17v6h30.61v-6Zm0,19.85h30.61v-6H194.1Z"/><path id="icon-ploan-01b" class="cls-2" d="M236.56,52.21h-1.78v-20a12.61,12.61,0,0,0-12.6-12.6H27.82a12.61,12.61,0,0,0-12.6,12.6v129.4H4.59v5.49a12.61,12.61,0,0,0,12.6,12.6H236.56a8.86,8.86,0,0,0,8.85-8.85V61.06A8.86,8.86,0,0,0,236.56,52.21ZM105.16,164.62l5,7.67h28.29l5-7.67h30.49v6.24a8.81,8.81,0,0,0,2.22,5.85H17.19a9.62,9.62,0,0,1-9.6-9.6v-2.49Zm36.63-3-5,7.66h-25l-5-7.67H18.22V32.22a9.62,9.62,0,0,1,9.6-9.6H222.18a9.62,9.62,0,0,1,9.6,9.6v20H222V32H28V152.33H173.91v9.29ZM173.91,61.06v88.27H31V35H219V52.21H182.76A8.86,8.86,0,0,0,173.91,61.06Zm68.5,109.8a5.86,5.86,0,0,1-5.85,5.85h-53.8a5.85,5.85,0,0,1-5.85-5.85V61.06a5.85,5.85,0,0,1,5.85-5.85h53.8a5.86,5.86,0,0,1,5.85,5.85Zm-117-141a2.5,2.5,0,1,0-2.5-2.5A2.5,2.5,0,0,0,125.38,29.85ZM184,162.25h51.41V69.67H184Zm3-89.58h45.41v86.58H187Zm22.66,92.8a4,4,0,1,0,4,4A4,4,0,0,0,209.61,165.47ZM204.11,64.1h11a1.5,1.5,0,1,0,0-3h-11a1.5,1.5,0,0,0,0,3Zm-56.49,61.31H101v-16h46.66ZM225,139.86H194.35v-16H225Z"/></svg>