<svg id="Layer_1" data-name="Layer 1" xmlns="http://www.w3.org/2000/svg" xmlns:xlink="http://www.w3.org/1999/xlink" viewBox="0 0 250 190"><defs><style>.cls-1{fill:url(#linear-gradient);}.cls-2{fill:#b3d6f2;}</style><linearGradient id="linear-gradient" x1="125" y1="20.86" x2="125" y2="179.53" gradientUnits="userSpaceOnUse"><stop offset="0" stop-color="#026bb5"/><stop offset="1" stop-color="#00a5e9"/></linearGradient></defs><title>icon-ploan-02</title><path id="icon-ploan-02a" class="cls-1" d="M202.65,52.64h-47V28.71a8.86,8.86,0,0,0-8.85-8.85H47.35a8.86,8.86,0,0,0-8.85,8.85V171.29a8.86,8.86,0,0,0,8.85,8.85h155.3a8.86,8.86,0,0,0,8.85-8.85V61.49A8.86,8.86,0,0,0,202.65,52.64ZM140,171.29a8.8,8.8,0,0,0,2.23,5.85H47.35a5.85,5.85,0,0,1-5.85-5.85V28.71a5.85,5.85,0,0,1,5.85-5.85h99.47a5.86,5.86,0,0,1,5.85,5.85V52.64h-3.82A8.86,8.86,0,0,0,140,61.49Zm68.5,0a5.85,5.85,0,0,1-5.85,5.85h-53.8a5.86,5.86,0,0,1-5.85-5.85V61.49a5.86,5.86,0,0,1,5.85-5.85h53.8a5.85,5.85,0,0,1,5.85,5.85Zm-32.8-5.39a4,4,0,1,0,4,4A4,4,0,0,0,175.7,165.9ZM170.21,64.53h11a1.5,1.5,0,0,0,0-3h-11a1.5,1.5,0,0,0,0,3Zm15.89,41.79-13.85,16.32-5-4.89a2.22,2.22,0,0,0-3.09,3.2l8.45,8.18,16.92-19.93a2.22,2.22,0,0,0-3.39-2.88ZM150,162.68h51.42V70.1H150Zm3-89.58h45.42v86.58H153Z"/><path id="icon-ploan-02b" class="cls-2" d="M137.6,46.2H59v-6H137.6Zm-10,14.16H59v-6H127.6Zm0,14.17H59v-6H127.6Zm-10,42.5H59v-6H117.6Zm10-14.17H59v-6H127.6ZM97.6,88.7H59v-6H97.6Zm30,42.5H59v-6H127.6Zm0,14.16H59v-6H127.6Zm0,14.17H59v-6H127.6Z"/></svg>