<svg id="Layer_1" data-name="Layer 1" xmlns="http://www.w3.org/2000/svg" xmlns:xlink="http://www.w3.org/1999/xlink" viewBox="0 0 250 190"><defs><style>.cls-1{fill:url(#linear-gradient);}.cls-2{fill:#b3d6f2;}</style><linearGradient id="linear-gradient" x1="125" y1="12.62" x2="125" y2="180.73" gradientUnits="userSpaceOnUse"><stop offset="0" stop-color="#026bb5"/><stop offset="1" stop-color="#00a5e9"/></linearGradient></defs><title>icon-ploan-03</title><path id="icon-ploan-03a" class="cls-1" d="M222.52,89.39a40,40,0,0,1-4.32-3.23,8.46,8.46,0,0,0,4.52-2.31c1-1.14,2-3.23.9-6.68a6.3,6.3,0,0,0-6.31-4.39,6.61,6.61,0,0,0-6.38,4.6A7.81,7.81,0,0,0,212,83.56a45,45,0,0,1-6.87-.86c-5.82-16.21-19.64-30-39.37-38.66l-.89-.39-.72.65a27.68,27.68,0,0,1-43.24-8l-.43-.84-.93,0c-10,.17-15.61,1.3-17.43,1.74C88.26,28.94,74.59,25.11,60.4,25.5a5,5,0,0,0-.88.1l-.45.08-1.48.22.22,1.48c1.2,8.27,4.54,16,10.49,24.18l-.07,0C58.65,58.19,52,66.47,48.38,76.24c-1.24,3.35-3.16,4.43-5.87,5.08l-1.16.28a34.48,34.48,0,0,1-5.77,1.08c-4.9.35-8,2.6-9.46,6.89l-.07.19-.18,3.47,0,.18c.26,1.42.5,2.85.73,4.28.41,2.49.83,5.08,1.44,7.59,1.1,4.54,2.88,10.37,6.93,15.22a17.07,17.07,0,0,0,11.82,6.4c7,.64,26.57,10.47,33.66,47.82a6.64,6.64,0,0,0,6.5,5.42h18.88a6.61,6.61,0,0,0,6.26-4.48l3.71-10.91a89.17,89.17,0,0,0,10.29.39,111.84,111.84,0,0,0,12.06-.93l3.9,11.45a6.6,6.6,0,0,0,6.25,4.48h18.83a6.61,6.61,0,0,0,6.51-5.47c2.61-14.68,6.71-20,15.69-31.7,2.41-3.14,5.15-6.69,8.28-11a53.54,53.54,0,0,0,10.59-31.66,52,52,0,0,0-2-14.37,42.52,42.52,0,0,0,8.13.65,35.4,35.4,0,0,0,6.53,5.31,1.56,1.56,0,0,0,.82.24,1.5,1.5,0,0,0,.83-2.75Zm-27.29,40.82c-3.11,4.27-5.84,7.81-8.24,10.94-9,11.71-13.53,17.59-16.26,33a3.61,3.61,0,0,1-3.56,3H148.34a3.6,3.6,0,0,1-3.41-2.45l-4.7-13.8-1.23.18a107,107,0,0,1-12.94,1.07,86.54,86.54,0,0,1-11.09-.49l-1.19-.14-4.49,13.18a3.6,3.6,0,0,1-3.42,2.45H87a3.63,3.63,0,0,1-3.55-3c-6.65-35-25.37-49.24-36.33-50.25a14.16,14.16,0,0,1-9.8-5.34c-3.65-4.37-5.29-9.77-6.31-14-.59-2.4-1-4.92-1.4-7.36-.23-1.4-.45-2.8-.71-4.19L29,90.34c1.09-3,3.13-4.41,6.77-4.66a37.11,37.11,0,0,0,6.27-1.17l1.15-.28a10.16,10.16,0,0,0,8-7c3.38-9.17,9.68-17,18.74-23.2.32-.22.63-.46.95-.72l1.58-1.24-.89-1.18C65.78,43.24,62.4,36.06,61,28.48c13.59-.26,26.72,3.54,40.13,11.61l.56.34s6-1.69,17-2a30.67,30.67,0,0,0,46.74,8.7c18.61,8.36,31.6,21.52,37,36.85a1.57,1.57,0,0,0,.27.82,48.59,48.59,0,0,1,2.52,15.47A50.62,50.62,0,0,1,195.23,130.21Zm18.59-52a3.7,3.7,0,0,1,3.55-2.42h.09a3.32,3.32,0,0,1,3.31,2.33c.83,2.51,0,3.42-.27,3.72-.9,1-2.7,1.5-4.86,1.69C213.43,80.73,213.62,78.89,213.82,78.2ZM77.17,71.34A6.65,6.65,0,1,0,83.44,78,6.49,6.49,0,0,0,77.17,71.34Z"/><path id="icon-ploan-03b" class="cls-2" d="M168.08,23.76A22.45,22.45,0,1,1,145.64,1.32,22.45,22.45,0,0,1,168.08,23.76ZM153,26.32a6.74,6.74,0,0,0-1.55-2.08,9.2,9.2,0,0,0-2.19-1.46,13.23,13.23,0,0,0-2.5-.87,14.87,14.87,0,0,1-1.49-.47,5.12,5.12,0,0,1-1.34-.73,4,4,0,0,1-1-1.05,2.53,2.53,0,0,1-.35-1.35,2.19,2.19,0,0,1,.26-1.06,3,3,0,0,1,.73-.86,3.06,3.06,0,0,1,1-.55,3.35,3.35,0,0,1,2.49.08,3.71,3.71,0,0,1,1.1.79,4,4,0,0,1,.77,1.18,3.89,3.89,0,0,1,.28,1.5V20h3.74v-.59a8.68,8.68,0,0,0-.32-2.23,7.08,7.08,0,0,0-1.13-2.35,6.61,6.61,0,0,0-2.2-1.86,5.92,5.92,0,0,0-1.78-.59V10.62H144.4v1.74a6.51,6.51,0,0,0-1.05.28,7.22,7.22,0,0,0-2.23,1.27,6.46,6.46,0,0,0-1.58,1.95,5.15,5.15,0,0,0-.61,2.48,6.14,6.14,0,0,0,.56,2.63,6.77,6.77,0,0,0,1.45,2,8.07,8.07,0,0,0,2,1.42,9.65,9.65,0,0,0,2.29.82,16.59,16.59,0,0,1,1.64.5,6.26,6.26,0,0,1,1.5.77,4.15,4.15,0,0,1,1.09,1.12,2.51,2.51,0,0,1,.4,1.44,3,3,0,0,1-.28,1.33,3.12,3.12,0,0,1-.79.94,3.43,3.43,0,0,1-1.18.58,4.45,4.45,0,0,1-3.1-.16,4.18,4.18,0,0,1-1.28-1,4.47,4.47,0,0,1-.81-1.43,5.18,5.18,0,0,1-.29-1.69V27h-3.73v.59a7.59,7.59,0,0,0,.64,3.11,8.18,8.18,0,0,0,1.7,2.51,8.35,8.35,0,0,0,2.47,1.69,6.74,6.74,0,0,0,1.36.44v1.79h2.86v-1.7a9.18,9.18,0,0,0,1.61-.33,7.27,7.27,0,0,0,2.39-1.26,5.71,5.71,0,0,0,1.6-2.06,6.53,6.53,0,0,0,.57-2.79A6.13,6.13,0,0,0,153,26.32Z"/></svg>