<svg id="Layer_1" data-name="Layer 1" xmlns="http://www.w3.org/2000/svg" xmlns:xlink="http://www.w3.org/1999/xlink" viewBox="0 0 250 190"><defs><style>.cls-1{fill:url(#linear-gradient);}.cls-2{fill:#b3d6f2;}</style><linearGradient id="linear-gradient" x1="125" y1="7.25" x2="125" y2="179.55" gradientUnits="userSpaceOnUse"><stop offset="0" stop-color="#026bb5"/><stop offset="1" stop-color="#00a5e9"/></linearGradient></defs><title>icon-nodoc-01</title><path id="icon-nodoc-01a" class="cls-1" d="M181.55,119.47v-71a8.07,8.07,0,0,0-6.25-7.86,8.07,8.07,0,0,0-8.06-7.79H82.19a8.07,8.07,0,0,0-8.06,7.79,8.07,8.07,0,0,0-6.25,7.86V91.33a8.09,8.09,0,0,0-6.54,7.93v53.6h3.07V99.26a5,5,0,0,1,5-5H96.52a5.08,5.08,0,0,1,3.68,1.6l7.69,8.29a8.11,8.11,0,0,0,5.92,2.58h53.11a5,5,0,0,1,5,5c0,13.27-.11,38.24-.14,48.74,0,3,0,4.8,0,4.86h3.07c0-.07,0-1.88,0-4.85,0-10.5.11-35.48.14-48.75a8.06,8.06,0,0,0-8.08-8.09H113.81a5,5,0,0,1-3.67-1.61l-7.7-8.28a8.1,8.1,0,0,0-5.92-2.58H70.94V48.48a5,5,0,0,1,5-5h97.52a5,5,0,0,1,5,5V161.24h3.06V122.57a5,5,0,0,1,4,4.91v26.28h3.07V127.48A8.08,8.08,0,0,0,181.55,119.47ZM82.19,35.9h85.05a5,5,0,0,1,5,4.5h-95A5,5,0,0,1,82.19,35.9Zm73.48,23.82H94.33a1.54,1.54,0,0,1,0-3.07h61.34a1.54,1.54,0,0,1,0,3.07Zm0,13.18H94.33a1.53,1.53,0,1,1,0-3.06h61.34a1.53,1.53,0,1,1,0,3.06Zm0,13.18H94.33a1.53,1.53,0,0,1,0-3.06h61.34a1.53,1.53,0,1,1,0,3.06Z"/><path id="icon-nodoc-01b" class="cls-2" d="M125,5.54a88.09,88.09,0,1,0,88.08,88.09A88.19,88.19,0,0,0,125,5.54ZM42.54,93.63A82.41,82.41,0,0,1,180.88,33.05L64.43,149.5A82.09,82.09,0,0,1,42.54,93.63ZM125,176.09a82.15,82.15,0,0,1-56.34-22.33L185.13,37.28A82.4,82.4,0,0,1,125,176.09Z"/></svg>