<svg xmlns="http://www.w3.org/2000/svg" xmlns:xlink="http://www.w3.org/1999/xlink" width="66" height="70" viewBox="0 0 66 70">
  <defs>
    <polygon id="icon-no-branch-a" points=".171 .35 9.954 .35 9.954 29.315 .171 29.315"/>
    <linearGradient id="icon-no-branch-c" x1="50%" x2="50%" y1="-5.728%" y2="113.258%">
      <stop offset="0%" stop-color="#026BB5"/>
      <stop offset="100%" stop-color="#56B9FF"/>
    </linearGradient>
  </defs>
  <g fill="none" fill-rule="evenodd">
    <path fill="#B3D6F2" d="M2.2074071 38.716342C2.63855503 38.716342 2.98847219 38.3664249 2.98847219 37.9352769 2.98847219 31.798058 4.7970284 25.8771941 8.21809349 20.812768 8.4594426 20.4554308 8.36571479 19.9699988 8.00798698 19.7286497 7.65025917 19.4873006 7.16482722 19.5814189 6.92347811 19.9387562 3.32706391 25.2621053 1.42634201 31.4848509 1.42634201 37.9352769 1.42634201 38.3664249 1.77625917 38.716342 2.2074071 38.716342M7.10015503 53.2728178C6.8838 52.9002497 6.4061787 52.7725456 6.03282959 52.9885101 5.65948047 53.2048651 5.53216686 53.6828769 5.74852189 54.056226 6.90566982 56.0526284 8.28385917 57.9314805 9.84481775 59.6396698 9.99907811 59.8083799 10.2099657 59.8939065 10.4220249 59.8939065 10.609871 59.8939065 10.7988888 59.8263444 10.9484627 59.689658 11.2667467 59.3987112 11.2893976 58.9046876 10.9980604 58.586013 9.51286509 56.960226 8.20106627 55.172368 7.10015503 53.2728178"/>
    <g transform="translate(55.846 30.585)">
      <mask id="icon-no-branch-b" fill="#fff">
        <use xlink:href="#icon-no-branch-a"/>
      </mask>
      <path fill="#B3D6F2" d="M9.32283195,0.976331361 C9.23730533,0.552994083 8.82412189,0.281573964 8.40351834,0.364366864 C7.98018107,0.449112426 7.70602722,0.860733728 7.79116331,1.28368047 C8.18989704,3.26797633 8.39180237,5.30928994 8.39180237,7.35021302 C8.39180237,15.0171479 5.54482012,22.3533018 0.375731361,28.007432 C0.0847846154,28.325716 0.106654438,28.8197396 0.425328994,29.1110769 C0.575293491,29.2481538 0.76392071,29.3153254 0.951766864,29.3153254 C1.1634355,29.3153254 1.37471361,29.2301893 1.52897396,29.0614793 C6.96167219,23.118355 9.95393254,15.408071 9.95393254,7.35021302 C9.95393254,5.20579882 9.74148284,3.06138462 9.32283195,0.976331361" mask="url(#icon-no-branch-b)"/>
    </g>
    <path fill="#B3D6F2" d="M58.1481479 19.1088746C58.3192012 19.1088746 58.4918166 19.0526379 58.6359231 18.9378213 58.9725621 18.6679633 59.0272367 18.1766734 58.7577692 17.8396438 58.1059704 17.0253834 57.4076982 16.234555 56.6813077 15.4882473 55.1422189 13.9069811 53.4359822 12.4795846 51.6098521 11.2455018 51.2513432 11.0041527 50.7666923 11.0986615 50.5249527 11.4552178 50.2836036 11.8129456 50.3777219 12.298768 50.7350592 12.5401172 52.4733195 13.7144485 54.0971538 15.0727207 55.5616509 16.5778331 56.252503 17.2878213 56.9179704 18.040768 57.5381361 18.8159751 57.6920059 19.0085077 57.9192959 19.1088746 58.1481479 19.1088746M61.7285503 27.8477822C62.1596982 27.8477822 62.5096154 27.4978651 62.5096154 27.0667172L62.5096154 26.0415692C62.5096154 25.6104213 62.1596982 25.2605041 61.7285503 25.2605041 61.2974024 25.2605041 60.9474852 25.6104213 60.9474852 26.0415692L60.9474852 27.0667172C60.9474852 27.4978651 61.2974024 27.8477822 61.7285503 27.8477822M61.7285503 23.6171432C62.1596982 23.6171432 62.5096154 23.267226 62.5096154 22.8360781L62.5096154 21.8109302C62.5096154 21.3797822 62.1596982 21.0298651 61.7285503 21.0298651 61.2974024 21.0298651 60.9474852 21.3797822 60.9474852 21.8109302L60.9474852 22.8360781C60.9474852 23.267226 61.2974024 23.6171432 61.7285503 23.6171432M58.3193964 24.4390189C58.3193964 24.8701669 58.6693136 25.220084 59.1004615 25.220084L60.1256095 25.220084C60.5567574 25.220084 60.9066746 24.8701669 60.9066746 24.4390189 60.9066746 24.007871 60.5567574 23.6579538 60.1256095 23.6579538L59.1004615 23.6579538C58.6693136 23.6579538 58.3193964 24.007871 58.3193964 24.4390189M63.3311006 25.220084L64.3562485 25.220084C64.7873964 25.220084 65.1373136 24.8701669 65.1373136 24.4390189 65.1373136 24.007871 64.7873964 23.6579538 64.3562485 23.6579538L63.3311006 23.6579538C62.8999527 23.6579538 62.5500355 24.007871 62.5500355 24.4390189 62.5500355 24.8701669 62.8999527 25.220084 63.3311006 25.220084M3.40876331 46.7397941C2.97761538 46.7397941 2.62769822 47.0897112 2.62769822 47.5208592L2.62769822 48.5460071C2.62769822 48.977155 2.97761538 49.3270722 3.40876331 49.3270722 3.83991124 49.3270722 4.1898284 48.977155 4.1898284 48.5460071L4.1898284 47.5208592C4.1898284 47.0897112 3.83991124 46.7397941 3.40876331 46.7397941M3.40876331 42.509155C2.97761538 42.509155 2.62769822 42.8590722 2.62769822 43.2902201L2.62769822 44.315368C2.62769822 44.746516 2.97761538 45.0964331 3.40876331 45.0964331 3.83991124 45.0964331 4.1898284 44.746516 4.1898284 44.315368L4.1898284 43.2902201C4.1898284 42.8590722 3.83991124 42.509155 3.40876331 42.509155M1.80621302 45.1372438L.781065089 45.1372438C.34991716 45.1372438 0 45.4871609 0 45.9183089 0 46.3494568.34991716 46.699374.781065089 46.699374L1.80621302 46.699374C2.23736095 46.699374 2.58727811 46.3494568 2.58727811 45.9183089 2.58727811 45.4871609 2.23736095 45.1372438 1.80621302 45.1372438M6.81791716 45.9183089C6.81791716 45.4871609 6.468 45.1372438 6.03685207 45.1372438L5.01170414 45.1372438C4.58055621 45.1372438 4.23063905 45.4871609 4.23063905 45.9183089 4.23063905 46.3494568 4.58055621 46.699374 5.01170414 46.699374L6.03685207 46.699374C6.468 46.699374 6.81791716 46.3494568 6.81791716 45.9183089M36.9789408 32.5963456C37.3499467 32.458097 37.5389645 32.0456947 37.4003254 31.6746888 37.2620769 31.3032923 36.849284 31.1150556 36.4782781 31.2533041 36.1072722 31.3911621 35.918645 31.8043456 36.0568935 32.1753515 36.195142 32.5459669 36.6083254 32.7345941 36.9789408 32.5963456M40.8747373 29.6139657C40.5037314 29.7522142 40.3151041 30.1653976 40.4533527 30.536013 40.5916012 30.9074095 41.0047846 31.0960367 41.3754 30.9573976 41.7464059 30.8191491 41.9354237 30.4063562 41.7967846 30.0353503 41.6585361 29.6643444 41.2457432 29.4757172 40.8747373 29.6139657M23.0238852 64.0464C22.5700864 64.0464 22.2010331 63.6773467 22.2010331 63.2235479 22.2010331 62.7697491 22.5700864 62.4006959 23.0238852 62.4006959 23.4772935 62.4006959 23.8463467 62.7697491 23.8463467 63.2235479 23.8463467 63.6773467 23.4772935 64.0464 23.0238852 64.0464M23.0238852 60.8385657C21.7089621 60.8385657 20.638903 61.9082343 20.638903 63.2235479 20.638903 64.538471 21.7089621 65.6085302 23.0238852 65.6085302 24.3388083 65.6085302 25.4084769 64.538471 25.4084769 63.2235479 25.4084769 61.9082343 24.3388083 60.8385657 23.0238852 60.8385657"/>
    <path fill="url(#icon-no-branch-c)" d="M51.5014793,42.0061101 L50.1236805,44.9921219 C50.0760355,45.0944414 50.051432,45.2061337 50.051432,45.3189976 L50.051432,67.9956604 L27.2958817,67.9956604 C28.6072899,66.8201574 29.4387337,65.1193882 29.4387337,63.2233527 C29.4387337,59.6862994 26.5612899,56.8088556 23.0238462,56.8088556 C22.1677988,56.8088556 21.3515858,56.9806899 20.6041065,57.2864769 L20.6041065,45.3189976 C20.6041065,45.1846544 20.5693491,45.0518734 20.5029586,44.9347136 L18.8271834,41.9721337 L18.8271834,36.6753408 L51.5014793,36.6753408 L51.5014793,42.0061101 Z M18.1710888,63.2233527 C18.1710888,60.5482047 20.3483077,58.3709858 23.0238462,58.3709858 C25.6997751,58.3709858 27.8766036,60.5482047 27.8766036,63.2233527 C27.8766036,65.8992817 25.6997751,68.0761101 23.0238462,68.0761101 C20.3483077,68.0761101 18.1710888,65.8992817 18.1710888,63.2233527 Z M26.6944615,28.786974 L46.7213609,21.3207728 L49.9940237,30.0987728 L46.1695385,31.5246071 L43.7365207,24.9988083 C43.6642722,24.8047136 43.5178225,24.647329 43.3291953,24.5610213 C43.140568,24.4751041 42.9261657,24.467684 42.732071,24.539542 L31.8174675,28.6085006 C31.4132663,28.7592462 31.2074556,29.2091396 31.3582012,29.6133408 L33.408497,35.1132107 L29.0528876,35.1132107 L26.6944615,28.786974 Z M24.042355,26.9995065 L26.7827219,25.9782639 C26.7608521,26.615613 26.3570414,27.1865716 25.758355,27.4095657 C25.1381893,27.6399799 24.4656923,27.4560391 24.042355,26.9995065 Z M25.6849349,21.4683941 L26.2918225,24.4938497 L23.7029822,25.4592462 L23.5987101,23.8967254 L25.6849349,21.4683941 Z M14.6641065,31.8987373 L12.1397041,29.729329 L35.7290414,2.27332899 L38.2538343,4.44195621 L14.6641065,31.8987373 Z M12.9980947,24.8796959 C12.9551361,24.3095183 13.1363432,23.7569148 13.5089112,23.3230331 L29.6019763,4.59192071 C29.9745444,4.15842959 30.4935621,3.89560118 31.0637396,3.8526426 C31.4374793,3.82335266 31.8030178,3.90145917 32.1353609,4.05884379 L13.3636331,25.907968 C13.158213,25.6041337 13.0266036,25.2549976 12.9980947,24.8796959 Z M42.8234556,11.6711041 L46.7795503,16.8565953 L44.2629586,17.7946544 L40.7157515,12.4568556 L42.8234556,11.6711041 Z M30.936426,24.4298024 C30.9141657,25.0671515 30.5107456,25.6381101 29.9124497,25.8611041 C29.3137633,26.0837077 28.6346272,25.9169503 28.2011361,25.4490923 L30.936426,24.4298024 Z M43.397929,19.7844178 C43.3756686,20.4217669 42.9722485,20.9923349 42.3739527,21.2157195 C41.7752663,21.4383231 41.0961302,21.2711751 40.6622485,20.8040982 L43.397929,19.7844178 Z M39.2438343,21.3324888 C39.222355,21.9698379 38.8185444,22.5407964 38.2194675,22.7641811 C37.62,22.9871751 36.9420355,22.8196367 36.5085444,22.3525598 L39.2438343,21.3324888 Z M35.0905207,22.8809503 C35.0682604,23.5182994 34.6648402,24.0896485 34.0657633,24.3126426 C33.4662959,24.5352462 32.7883314,24.3680982 32.3552308,23.9010213 L35.0905207,22.8809503 Z M47.555929,18.2343941 C47.5348402,18.856903 47.1466509,19.4364533 46.5276568,19.667258 C45.9289704,19.889471 45.2498343,19.7227136 44.8163432,19.2552462 L47.555929,18.2343941 Z M39.2125917,13.0172698 L42.7594083,18.3546781 L40.1334675,19.3341337 L37.2853136,13.7354592 L39.2125917,13.0172698 Z M35.8118343,14.2849385 L38.6599882,19.883613 L35.9867929,20.879471 L33.5869704,15.1148201 L35.8118343,14.2849385 Z M32.1220828,15.6607846 L34.5219053,21.425826 L31.8678462,22.4154355 L30.0553846,16.3926426 C30.1291953,16.3875657 30.2033964,16.3758497 30.275645,16.348903 L32.1220828,15.6607846 Z M26.9959527,20.0624769 C26.9897041,20.0312343 26.9783787,20.003116 26.9690059,19.9742166 L28.8447337,17.7903586 L30.4010059,22.9621811 L27.774284,23.9412462 L26.9959527,20.0624769 Z M40.7118462,33.5588911 L38.5522012,27.7649503 L42.5453964,26.2762402 L44.7058225,32.0701811 L40.7118462,33.5588911 Z M35.0752899,35.1132107 L33.0945089,29.7996249 L37.0884852,28.3109148 L39.2481302,34.1048556 L36.9197751,34.9726189 L36.5433018,35.1132107 L35.0752899,35.1132107 Z M52.2825444,35.1132107 L41.0148994,35.1132107 L51.2710651,31.289897 C51.4651598,31.217258 51.6229349,31.0708083 51.7088521,30.8825716 C51.7951598,30.6939444 51.8025799,30.4791515 51.7303314,30.2850568 L48.0866627,20.5111988 C49.0098817,19.6711633 49.3840118,18.3226544 48.9224024,17.0842757 C48.8649941,16.9304059 48.7638462,16.805826 48.6388757,16.7179562 L43.7142604,10.2636249 C43.505716,9.98986154 43.140568,9.88558935 42.8203314,10.0054828 L32.0998225,14.0018024 L39.947574,4.86763669 C40.0826982,4.7106426 40.1498698,4.50639408 40.1342485,4.29941183 C40.1186272,4.09321065 40.0213846,3.90106864 39.8643905,3.76633491 L36.1547219,0.579589349 C35.8274556,0.297624852 35.3346036,0.336287574 35.0534201,0.662772781 L33.1776923,2.8458497 C31.6542249,1.89802722 29.621503,2.17218107 28.4174911,3.57380237 L12.324426,22.3049148 C11.6796568,23.0551278 11.3660592,24.011542 11.4406509,24.9976367 C11.5004024,25.7927609 11.8108757,26.5281337 12.3209112,27.1217432 L10.4459645,29.3040391 C10.1647811,29.6313053 10.2018817,30.1241574 10.5291479,30.4053408 L14.238426,33.5924769 C14.3805799,33.7151041 14.5613964,33.7811041 14.7476805,33.7811041 C14.7668166,33.7811041 14.7867337,33.7807136 14.8066509,33.7791515 C15.0128521,33.7635302 15.2049941,33.6666781 15.3397278,33.5092935 L22.1463195,25.5873408 L22.2142722,26.608974 C22.2150533,26.6195183 22.2189586,26.6288911 22.2197396,26.639045 C22.2013846,26.765187 22.2095858,26.8967964 22.2572308,27.0245006 C22.7192308,28.2632698 23.8834083,29.0345716 25.1315503,29.0654237 L27.3857041,35.1132107 L18.0461183,35.1132107 C17.6145799,35.1132107 17.2650533,35.4627373 17.2650533,35.8942757 L17.2650533,42.1775538 C17.2650533,42.3122876 17.2998107,42.4450686 17.3662012,42.5622284 L19.0419763,45.5248083 L19.0419763,58.2038379 C17.5622485,59.3797314 16.6089586,61.1906308 16.6089586,63.2233527 C16.6089586,66.7607964 19.4864024,69.6382402 23.0238462,69.6382402 C23.3987574,69.6382402 23.7639053,69.599187 24.1208521,69.5374828 C24.1763077,69.5495893 24.233716,69.5577905 24.2926864,69.5577905 L50.832497,69.5577905 C51.2640355,69.5577905 51.6135621,69.2078734 51.6135621,68.7767254 L51.6135621,45.490832 L52.9913609,42.5048201 C53.0393964,42.4025006 53.0636095,42.2908083 53.0636095,42.1775538 L53.0636095,35.8942757 C53.0636095,35.4627373 52.7136923,35.1132107 52.2825444,35.1132107 Z"/>
  </g>
</svg>
