<svg xmlns="http://www.w3.org/2000/svg" width="66" height="63" viewBox="0 0 66 63">
  <defs>
    <linearGradient id="icon-no=handling-fee-a" x1="50%" x2="50%" y1="-528.043%" y2="345.876%">
      <stop offset="0%" stop-color="#026BB5"/>
      <stop offset="100%" stop-color="#56B9FF"/>
    </linearGradient>
    <linearGradient id="icon-no=handling-fee-b" x1="50%" x2="50%" y1="-241.305%" y2="222.27%">
      <stop offset="0%" stop-color="#026BB5"/>
      <stop offset="100%" stop-color="#56B9FF"/>
    </linearGradient>
    <linearGradient id="icon-no=handling-fee-c" x1="50%" x2="50%" y1="0%" y2="100%">
      <stop offset="0%" stop-color="#026BB5"/>
      <stop offset="100%" stop-color="#56B9FF"/>
    </linearGradient>
    <linearGradient id="icon-no=handling-fee-d" x1="50%" x2="50%" y1="-469.655%" y2="2844.672%">
      <stop offset="0%" stop-color="#026BB5"/>
      <stop offset="100%" stop-color="#56B9FF"/>
    </linearGradient>
    <linearGradient id="icon-no=handling-fee-e" x1="50%" x2="50%" y1="-793.005%" y2="2421.796%">
      <stop offset="0%" stop-color="#026BB5"/>
      <stop offset="100%" stop-color="#56B9FF"/>
    </linearGradient>
    <linearGradient id="icon-no=handling-fee-f" x1="50%" x2="50%" y1="-1166.12%" y2="1916.263%">
      <stop offset="0%" stop-color="#026BB5"/>
      <stop offset="100%" stop-color="#56B9FF"/>
    </linearGradient>
    <linearGradient id="icon-no=handling-fee-g" x1="50%" x2="50%" y1="-1628.687%" y2="1625.923%">
      <stop offset="0%" stop-color="#026BB5"/>
      <stop offset="100%" stop-color="#56B9FF"/>
    </linearGradient>
  </defs>
  <g fill="none" fill-rule="evenodd">
    <path fill="url(#icon-no=handling-fee-a)" d="M35.8578,46.5956966 C35.9480759,46.4219724 35.9935931,46.2205586 35.9935931,45.9982828 C35.9935931,45.7832138 35.9461793,45.5874897 35.8524897,45.4160414 C35.7614552,45.2472483 35.6362828,45.0974207 35.4803862,44.9699724 C35.3275241,44.8463172 35.1511448,44.740869 34.9550414,44.6585586 C34.7634897,44.5777655 34.5605586,44.5148 34.355731,44.4719379 C34.2423172,44.4461448 34.1235931,44.4120069 33.9984207,44.3702828 C33.8812138,44.3312138 33.7769034,44.2803862 33.6786621,44.2136276 C33.5872483,44.1514207 33.5102483,44.0748 33.4491793,43.9883172 C33.3945586,43.9075241 33.3672483,43.8126966 33.3672483,43.6985241 C33.3672483,43.6150759 33.387731,43.540731 33.4294552,43.4732138 C33.4738345,43.4015241 33.5326276,43.3389379 33.6031793,43.2881103 C33.6767655,43.2357655 33.7586966,43.1966966 33.8531448,43.1697655 C34.0473517,43.1124897 34.2631793,43.1090759 34.4494207,43.1875931 C34.5484207,43.2289379 34.6368,43.2854552 34.7130414,43.3560069 C34.7892828,43.4261793 34.8514897,43.5119034 34.8981448,43.6109034 C34.9436621,43.7087655 34.9668,43.8164897 34.9668,43.9314207 L34.9668,44.058869 L35.863869,44.058869 L35.863869,43.9314207 C35.863869,43.7891793 35.8376966,43.6283517 35.7861103,43.4542483 C35.7333862,43.2755931 35.6419724,43.1060414 35.5141448,42.9497655 C35.3836621,42.7912138 35.2065241,42.6565586 34.9865241,42.5503517 C34.8643862,42.4908 34.7191103,42.4509724 34.5605586,42.4244207 L34.5605586,42.0519379 L33.783731,42.0519379 L33.783731,42.4244207 C33.6991448,42.4399724 33.6141793,42.4578 33.5314897,42.4843517 C33.3331103,42.5480759 33.1529379,42.6394897 32.9970414,42.7563172 C32.8400069,42.8742828 32.7121793,43.0150069 32.6181103,43.1739379 C32.5202483,43.3370414 32.4705586,43.5160759 32.4705586,43.7053517 C32.4705586,43.9113172 32.5160759,44.1009724 32.6071103,44.2701448 C32.6954897,44.4366621 32.8130759,44.5823172 32.9545586,44.7040759 C33.0941448,44.8239379 33.256869,44.9259724 33.4370414,45.0067655 C33.6141793,45.0860414 33.8000414,45.1455931 33.9881793,45.1839034 C34.1114552,45.2108345 34.2419379,45.245731 34.3800069,45.2901103 C34.5085931,45.3306966 34.630731,45.3864552 34.7403517,45.4554897 C34.8446621,45.5211103 34.9330414,45.6019034 35.0016966,45.6952138 C35.0658,45.7816966 35.0965241,45.8833517 35.0965241,46.004731 C35.0965241,46.115869 35.0741448,46.2114552 35.0293862,46.2876966 C34.9812138,46.3692483 34.9193862,46.4352483 34.8412483,46.4902483 C34.7612138,46.5456276 34.6656276,46.587731 34.5575241,46.6150414 C34.3155241,46.6753517 34.0318,46.6783862 33.8136966,46.5797655 C33.6961103,46.5259034 33.5936966,46.4545931 33.508731,46.3665931 C33.4237655,46.2789724 33.3581448,46.1754207 33.3133862,46.0593517 C33.267869,45.9410069 33.2443517,45.8192483 33.2443517,45.6971103 L33.2443517,45.5700414 L32.3480414,45.5700414 L32.3480414,45.6971103 C32.3480414,45.9326621 32.4000069,46.1572138 32.5016621,46.3646966 C32.6040759,46.5702828 32.7417655,46.7512138 32.9113172,46.9029379 C33.0827655,47.0546621 33.2819034,47.1764207 33.5034207,47.2644207 C33.6092483,47.3065241 33.7184897,47.336869 33.828869,47.3592483 L33.828869,47.742731 L34.5146621,47.742731 L34.5146621,47.3782138 C34.6481793,47.3630414 34.7779034,47.3414207 34.9004207,47.3069034 C35.1185241,47.2458345 35.3112138,47.1551793 35.4728,47.0379724 C35.6374207,46.9192483 35.7667655,46.7705586 35.8578,46.5956966"/>
    <path fill="url(#icon-no=handling-fee-b)" d="M41.4381759,46.5208586 C40.3252793,46.5208586 39.604969,45.1788586 39.6216586,42.5927207 C39.604969,39.9246517 40.3579,38.5989621 41.4381759,38.5989621 C42.6493138,38.5989621 43.2387621,40.0555138 43.2387621,42.5274793 C43.2387621,45.0806172 42.6166931,46.5208586 41.4381759,46.5208586 M41.4874862,37.0604793 C38.9995897,37.0604793 37.5915897,39.2866517 37.5915897,42.5927207 C37.6082793,45.8335483 38.9176586,48.0597207 41.3729345,48.0597207 C43.9101414,48.0597207 45.2521414,45.9154793 45.2521414,42.4944793 C45.2521414,39.3518931 44.0569345,37.0604793 41.4874862,37.0604793"/>
    <path fill="#B3D6F2" d="M58.1848793 29.5667103C58.1848793 30.0196069 57.8161897 30.3882966 57.3629138 30.3882966 56.9096379 30.3882966 56.5409483 30.0196069 56.5409483 29.5667103 56.5409483 29.1134345 56.9096379 28.7447448 57.3629138 28.7447448 57.8161897 28.7447448 58.1848793 29.1134345 58.1848793 29.5667103M55.0237069 29.5667103C55.0237069 30.8563655 56.0732586 31.9055379 57.3629138 31.9055379 58.652569 31.9055379 59.7021207 30.8563655 59.7021207 29.5667103 59.7021207 28.2770552 58.652569 27.2275034 57.3629138 27.2275034 56.0732586 27.2275034 55.0237069 28.2770552 55.0237069 29.5667103M62.4202586 41.0249552C62.0015 41.0249552 61.6616379 41.3648172 61.6616379 41.7835759L61.6616379 42.7792655C61.6616379 43.1980241 62.0015 43.5378862 62.4202586 43.5378862 62.8390172 43.5378862 63.1788793 43.1980241 63.1788793 42.7792655L63.1788793 41.7835759C63.1788793 41.3648172 62.8390172 41.0249552 62.4202586 41.0249552M62.4202586 36.9158483C62.0015 36.9158483 61.6616379 37.2557103 61.6616379 37.674469L61.6616379 38.6701586C61.6616379 39.0889172 62.0015 39.4287793 62.4202586 39.4287793 62.8390172 39.4287793 63.1788793 39.0889172 63.1788793 38.6701586L63.1788793 37.674469C63.1788793 37.2557103 62.8390172 36.9158483 62.4202586 36.9158483M60.8637586 39.4680759L59.868069 39.4680759C59.4493103 39.4680759 59.1094483 39.8079379 59.1094483 40.2266966 59.1094483 40.6454552 59.4493103 40.9853172 59.868069 40.9853172L60.8637586 40.9853172C61.2825172 40.9853172 61.6223793 40.6454552 61.6223793 40.2266966 61.6223793 39.8079379 61.2825172 39.4680759 60.8637586 39.4680759M64.9728276 39.4680759L63.9771379 39.4680759C63.5583793 39.4680759 63.2185172 39.8079379 63.2185172 40.2266966 63.2185172 40.6454552 63.5583793 40.9853172 63.9771379 40.9853172L64.9728276 40.9853172C65.3915862 40.9853172 65.7314483 40.6454552 65.7314483 40.2266966 65.7314483 39.8079379 65.3915862 39.4680759 64.9728276 39.4680759M3.31118966 29.6615379C3.72994828 29.6615379 4.06981034 29.3216759 4.06981034 28.9029172L4.06981034 27.9072276C4.06981034 27.488469 3.72994828 27.1486069 3.31118966 27.1486069 2.89243103 27.1486069 2.55256897 27.488469 2.55256897 27.9072276L2.55256897 28.9029172C2.55256897 29.3216759 2.89243103 29.6615379 3.31118966 29.6615379M3.31118966 25.5521276C3.72994828 25.5521276 4.06981034 25.2122655 4.06981034 24.7935069L4.06981034 23.7978172C4.06981034 23.3790586 3.72994828 23.0391966 3.31118966 23.0391966 2.89243103 23.0391966 2.55256897 23.3790586 2.55256897 23.7978172L2.55256897 24.7935069C2.55256897 25.2122655 2.89243103 25.5521276 3.31118966 25.5521276M2.51293103 26.3503862C2.51293103 25.9316276 2.17306897 25.5917655 1.75431034 25.5917655L.75862069 25.5917655C.339862069 25.5917655 0 25.9316276 0 26.3503862 0 26.7691448.339862069 27.1090069.75862069 27.1090069L1.75431034 27.1090069C2.17306897 27.1090069 2.51293103 26.7691448 2.51293103 26.3503862M5.86375862 27.1090069C6.28251724 27.1090069 6.62237931 26.7691448 6.62237931 26.3503862 6.62237931 25.9316276 6.28251724 25.5917655 5.86375862 25.5917655L4.86806897 25.5917655C4.44931034 25.5917655 4.10944828 25.9316276 4.10944828 26.3503862 4.10944828 26.7691448 4.44931034 27.1090069 4.86806897 27.1090069L5.86375862 27.1090069zM59.4672517 47.168C59.1152517 46.9407931 58.6460448 47.0413103 58.4180793 47.3933103 57.4322517 48.9177586 56.2984931 50.3621724 55.0490448 51.6852069 54.7611483 51.9897931 54.7748034 52.47 55.079769 52.7575172 55.2261828 52.8963448 55.4131828 52.9646207 55.6005621 52.9646207 55.8015966 52.9646207 56.002631 52.8849655 56.1520793 52.7267931 57.4652517 51.3366207 58.6562862 49.8193793 59.6925621 48.2171724 59.919769 47.8651724 59.8192517 47.3955862 59.4672517 47.168"/>
    <path fill="#B3D6F2" d="M63.9267655 32.0207724C64.3455241 32.0207724 64.6853862 31.6809103 64.6853862 31.2621517 64.6853862 14.0243931 50.6611448.000151724138 33.4233862.000151724138 21.0958.000151724138 9.88376552 7.27646207 4.86017931 18.5374276 4.68948966 18.9201517 4.86131724 19.3684966 5.24404138 19.5391862 5.6260069 19.7091172 6.07435172 19.5380483 6.2458 19.1553241 11.025869 8.44094483 21.6935931 1.5173931 33.4233862 1.5173931 49.8247655 1.5173931 63.1681448 14.8607724 63.1681448 31.2621517 63.1681448 31.6809103 63.5080069 32.0207724 63.9267655 32.0207724M17.4994069 56.3899828C9.72316552 51.4509828 4.59982069 43.0462241 3.79454483 33.9075 3.75737241 33.4906379 3.39323448 33.1841552 2.9722 33.2182931 2.55533793 33.2550862 2.24657931 33.6233966 2.28337241 34.0406379 3.12961379 43.6466724 8.51392414 52.480431 16.6857862 57.6709138 16.8120966 57.7509483 16.9528207 57.7888793 17.0920276 57.7888793 17.343131 57.7888793 17.5885448 57.6644655 17.7330621 57.4372586 17.9576138 57.0833621 17.8533034 56.6149138 17.4994069 56.3899828"/>
    <path fill="url(#icon-no=handling-fee-c)" d="M49.591869,14.5606241 C49.5884552,14.5894517 49.5869379,14.6179 49.5869379,14.6471069 L49.5869379,60.4791759 L46.9977655,58.6015897 C46.7212483,58.4005552 46.3430759,58.4104172 46.0764207,58.6251069 L43.1841793,60.9552103 L40.8210759,58.6706241 C40.5335586,58.391831 40.0806621,58.3853828 39.7848,58.6535552 L37.2441793,60.9555897 L34.5275586,58.6387621 C34.3856966,58.5177621 34.2104552,58.4574517 34.0352138,58.4574517 C33.8573172,58.4574517 33.6786621,58.5200379 33.5356621,58.6452103 L30.9722828,60.8880724 L28.052731,58.6167621 C27.7860759,58.4096586 27.414731,58.4035897 27.1416276,58.6015897 L24.5524552,60.4791759 L24.5524552,14.3626241 C24.5524552,13.7849345 24.3628,12.8647276 23.8913172,12.0867621 L47.0265931,12.0867621 C47.951731,12.0867621 48.6341103,12.3230724 49.0551448,12.7884862 C49.6923862,13.4936241 49.5926276,14.5545552 49.591869,14.5606241 M47.0265931,10.5695207 L21.8024552,10.5695207 C21.6685586,10.5695207 21.5426276,10.6040379 21.4333862,10.6651069 C20.4665241,10.6890034 18.4360759,11.1460724 18.4360759,14.5522793 L18.4360759,44.3755552 C18.4360759,44.4051414 18.438731,44.4423138 18.4425241,44.4719 C18.4432828,44.4787276 18.5176276,45.1508655 18.130731,45.5863138 C17.8659724,45.8840724 17.4108,46.0350379 16.7765931,46.0350379 C16.1678,46.0350379 15.7016276,45.8745897 15.3921103,45.5582448 C14.8675241,45.0222793 14.8796621,44.168831 14.8800414,44.1384862 L14.8800414,16.922969 L16.3972828,16.922969 C16.8164207,16.922969 17.1559034,16.5831069 17.1559034,16.1643483 C17.1559034,15.7452103 16.8164207,15.4057276 16.3972828,15.4057276 L14.1214207,15.4057276 C13.7026621,15.4057276 13.3628,15.7452103 13.3628,16.1643483 L13.3631793,44.1111759 C13.3582483,44.2621414 13.3385241,45.6147621 14.2932483,46.6043828 C14.9001448,47.2332793 15.7353862,47.5522793 16.7765931,47.5522793 C17.8735586,47.5522793 18.7160069,47.2237966 19.2804207,46.5763138 C20.0322138,45.7141414 19.9821448,44.6221069 19.9533172,44.3326931 L19.9533172,14.5522793 C19.9533172,12.1815897 21.0499034,12.1815897 21.5179724,12.1815897 C22.6718345,12.1815897 23.0352138,13.8816586 23.0352138,14.3626241 L23.0352138,61.9660724 C23.0352138,62.2509345 23.1952828,62.5119 23.4490414,62.6416241 C23.7035586,62.7717276 24.0085241,62.7474517 24.2391448,62.5801759 L27.5710069,60.1647276 L30.5353172,62.4701759 C30.8216966,62.692831 31.2268,62.6814517 31.5006621,62.4417276 L34.0416621,60.2182103 L36.7670069,62.5430034 C37.0568,62.7903138 37.4865586,62.7846241 37.7687655,62.5282103 L40.2771448,60.2550034 L42.6118,62.5111414 C42.7578345,62.6526241 42.947869,62.7246931 43.1386621,62.7246931 C43.3070759,62.7246931 43.4751103,62.6689345 43.6146966,62.5566586 L46.576731,60.1704172 L49.9002483,62.5801759 C50.1312483,62.7470724 50.4365931,62.770969 50.6903517,62.6416241 C50.9441103,62.5119 51.1041793,62.2509345 51.1041793,61.9660724 L51.1041793,14.6804862 C51.1284552,14.3793138 51.1883862,12.9007621 50.1945931,11.7867276 C49.4735241,10.9791759 48.4080414,10.5695207 47.0265931,10.5695207"/>
    <path fill="url(#icon-no=handling-fee-d)" d="M44.6560172,18.2504034 L29.2939483,18.2504034 C28.8751897,18.2504034 28.5353276,18.5902655 28.5353276,19.0090241 C28.5353276,19.4277828 28.8751897,19.7676448 29.2939483,19.7676448 L44.6560172,19.7676448 C45.0747759,19.7676448 45.4146379,19.4277828 45.4146379,19.0090241 C45.4146379,18.5902655 45.0747759,18.2504034 44.6560172,18.2504034"/>
    <path fill="url(#icon-no=handling-fee-e)" d="M44.6560172,23.9611483 L29.2939483,23.9611483 C28.8751897,23.9611483 28.5353276,24.3010103 28.5353276,24.719769 C28.5353276,25.1385276 28.8751897,25.4783897 29.2939483,25.4783897 L44.6560172,25.4783897 C45.0747759,25.4783897 45.4146379,25.1385276 45.4146379,24.719769 C45.4146379,24.3010103 45.0747759,23.9611483 44.6560172,23.9611483"/>
    <path fill="url(#icon-no=handling-fee-f)" d="M44.6560172,29.671931 L29.2939483,29.671931 C28.8751897,29.671931 28.5353276,30.0117931 28.5353276,30.4305517 C28.5353276,30.8493103 28.8751897,31.1891724 29.2939483,31.1891724 L44.6560172,31.1891724 C45.0747759,31.1891724 45.4146379,30.8493103 45.4146379,30.4305517 C45.4146379,30.0117931 45.0747759,29.671931 44.6560172,29.671931"/>
    <path fill="url(#icon-no=handling-fee-g)" d="M35.1732586,36.1413345 C35.1732586,35.7225759 34.8333966,35.3827138 34.4146379,35.3827138 L29.2939483,35.3827138 C28.8751897,35.3827138 28.5353276,35.7225759 28.5353276,36.1413345 C28.5353276,36.5600931 28.8751897,36.8999552 29.2939483,36.8999552 L34.4146379,36.8999552 C34.8333966,36.8999552 35.1732586,36.5600931 35.1732586,36.1413345"/>
    <polygon fill="#40A5EC" points="28.598 54.032 30.495 54.032 30.495 52.135 28.598 52.135"/>
    <polygon fill="#40A5EC" points="32.139 54.032 34.035 54.032 34.035 52.135 32.139 52.135"/>
    <polygon fill="#40A5EC" points="35.679 54.032 37.576 54.032 37.576 52.135 35.679 52.135"/>
    <polygon fill="#40A5EC" points="39.219 54.032 41.116 54.032 41.116 52.135 39.219 52.135"/>
    <polygon fill="#40A5EC" points="42.759 54.032 44.656 54.032 44.656 52.135 42.759 52.135"/>
  </g>
</svg>
