<svg xmlns="http://www.w3.org/2000/svg" width="66" height="62" viewBox="0 0 66 62">
  <defs>
    <linearGradient id="icon-one-go-a" x1="50%" x2="50%" y1="0%" y2="163.988%">
      <stop offset="0%" stop-color="#026BB5"/>
      <stop offset="100%" stop-color="#56B9FF"/>
    </linearGradient>
    <linearGradient id="icon-one-go-b" x1="50%" x2="50%" y1="-67.034%" y2="100%">
      <stop offset="0%" stop-color="#026BB5"/>
      <stop offset="100%" stop-color="#56B9FF"/>
    </linearGradient>
  </defs>
  <g fill="none" fill-rule="evenodd">
    <path fill="#B3D6F2" d="M19.1260457 17.7561497C18.70968 17.7561497 18.37176 17.4182297 18.37176 17.001864L18.37176 16.011864C18.37176 15.5954983 18.70968 15.2575783 19.1260457 15.2575783 19.5424114 15.2575783 19.8803314 15.5954983 19.8803314 16.011864L19.8803314 17.001864C19.8803314 17.4182297 19.5424114 17.7561497 19.1260457 17.7561497M19.1260457 13.6705611C18.70968 13.6705611 18.37176 13.3326411 18.37176 12.9162754L18.37176 11.9262754C18.37176 11.5099097 18.70968 11.1719897 19.1260457 11.1719897 19.5424114 11.1719897 19.8803314 11.5099097 19.8803314 11.9262754L19.8803314 12.9162754C19.8803314 13.3326411 19.5424114 13.6705611 19.1260457 13.6705611M17.5780629 15.218544L16.5880629 15.218544C16.1716971 15.218544 15.8337771 14.880624 15.8337771 14.4642583 15.8337771 14.0478926 16.1716971 13.7099726 16.5880629 13.7099726L17.5780629 13.7099726C17.9944286 13.7099726 18.3323486 14.0478926 18.3323486 14.4642583 18.3323486 14.880624 17.9944286 15.218544 17.5780629 15.218544M21.6640286 15.218544L20.6740286 15.218544C20.2576629 15.218544 19.9197429 14.880624 19.9197429 14.4642583 19.9197429 14.0478926 20.2576629 13.7099726 20.6740286 13.7099726L21.6640286 13.7099726C22.0803943 13.7099726 22.4183143 14.0478926 22.4183143 14.4642583 22.4183143 14.880624 22.0803943 15.218544 21.6640286 15.218544M46.8066343 51.0942583C46.3902686 51.0942583 46.0523486 50.7563383 46.0523486 50.3399726L46.0523486 49.3499726C46.0523486 48.9336069 46.3902686 48.5956869 46.8066343 48.5956869 47.223 48.5956869 47.56092 48.9336069 47.56092 49.3499726L47.56092 50.3399726C47.56092 50.7563383 47.223 51.0942583 46.8066343 51.0942583M46.8066343 47.0082926C46.3902686 47.0082926 46.0523486 46.6703726 46.0523486 46.2540069L46.0523486 45.2640069C46.0523486 44.8476411 46.3902686 44.5097211 46.8066343 44.5097211 47.223 44.5097211 47.56092 44.8476411 47.56092 45.2640069L47.56092 46.2540069C47.56092 46.6703726 47.223 47.0082926 46.8066343 47.0082926M45.2590286 48.5562754L44.2690286 48.5562754C43.8526629 48.5562754 43.5147429 48.2183554 43.5147429 47.8019897 43.5147429 47.385624 43.8526629 47.047704 44.2690286 47.047704L45.2590286 47.047704C45.6753943 47.047704 46.0133143 47.385624 46.0133143 47.8019897 46.0133143 48.2183554 45.6753943 48.5562754 45.2590286 48.5562754M49.3446171 48.5562754L48.3546171 48.5562754C47.9382514 48.5562754 47.6003314 48.2183554 47.6003314 47.8019897 47.6003314 47.385624 47.9382514 47.047704 48.3546171 47.047704L49.3446171 47.047704C49.7609829 47.047704 50.0989029 47.385624 50.0989029 47.8019897 50.0989029 48.2183554 49.7609829 48.5562754 49.3446171 48.5562754M15.6312137 23.1024514L17.1375223 23.1888171C17.1650537 22.7038114 17.2084251 22.21164 17.2649966 21.7247486L15.766608 21.5493771C15.7062651 22.0656857 15.6606309 22.5884057 15.6312137 23.1024514M25.6118846 4.430184L26.4928903 5.655144C26.8866274 5.37190971 27.2958274 5.09885829 27.7087989 4.84428686L26.9160446 3.56011543C26.4729017 3.83392114 26.0342846 4.126584 25.6118846 4.430184M15.6356263 26.2193863L17.1411806 26.128872C17.1121406 25.6453749 17.0970549 25.1505634 17.0963006 24.6587691L15.5877291 24.661032C15.5884834 25.1822434 15.6047006 25.7068491 15.6356263 26.2193863M25.335288 6.54942514L24.371688 5.38857943C23.9738023 5.71895657 23.5804423 6.06932229 23.2017909 6.42949371L24.2419509 7.52169943C24.5953337 7.185288 24.9634251 6.857928 25.335288 6.54942514"/>
    <path fill="url(#icon-one-go-a)" d="M54.2872629,34.6056857 L44.84436,25.3803943 L48.7293086,25.3803943 C49.1456743,25.3803943 49.4835943,25.0428514 49.4835943,24.6261086 C49.4835943,14.2331829 43.3965086,5.34656571 34.8689314,1.90362857 C42.8994343,2.12765143 49.0728857,4.47234857 53.2305086,8.88190286 C59.4288514,15.4555029 58.97364,24.4907143 58.96836,24.5812286 C58.9562914,24.7886571 59.0298343,24.9923143 59.1723943,25.1431714 C59.3149543,25.2944057 59.5133314,25.3803943 59.7211371,25.3803943 L63.1746343,25.3803943 L54.2872629,34.6056857 Z M65.6430343,24.3311829 C65.5246114,24.0528514 65.2511829,23.8718229 64.9490914,23.8718229 L60.4901314,23.8718229 C60.4758,21.4056857 59.9455371,13.8153086 54.3411943,7.8606 C49.66764,2.89513714 42.6837086,0.377331429 33.5832514,0.377331429 L27.0880971,0.377331429 C27.0673543,0.376954286 27.0443486,0.377331429 27.0228514,0.377331429 C14.6378571,0.377331429 4.56210857,11.2552629 4.56210857,24.6261086 C4.56210857,25.0428514 4.90002857,25.3803943 5.31639429,25.3803943 C5.73313714,25.3803943 6.07068,25.0428514 6.07068,24.6261086 C6.07068,12.08724 15.4698343,1.88590286 27.0228514,1.88590286 C38.3431714,1.88590286 47.5956171,11.6810571 47.9633314,23.8718229 L42.9929657,23.8718229 C42.6859714,23.8718229 42.41028,24.0573771 42.29412,24.3413657 C42.1787143,24.6253543 42.2462229,24.9512057 42.46572,25.1658 L53.7766114,36.2157086 C53.9176629,36.3533657 54.1066114,36.4303029 54.30348,36.4303029 L54.3147943,36.4303029 C54.5158114,36.4272857 54.7070229,36.3439371 54.8465657,36.1994914 L65.4921771,25.1495829 C65.7022457,24.9315943 65.7614571,24.6095143 65.6430343,24.3311829 Z"/>
    <path fill="#B3D6F2" d="M40.3248686 55.2888411L41.2854514 56.4519497C41.6863543 56.1208183 42.0816 55.7712069 42.4602514 55.412544L41.4231086 54.3173211C41.0693486 54.6526011 40.6997486 54.979584 40.3248686 55.2888411M49.9335634 40.2775371C49.9942834 39.7638686 50.040672 39.2400171 50.0708434 38.7210686L48.5645349 38.6335714C48.5362491 39.1223486 48.4928777 39.6156514 48.4351749 40.0999029L49.9335634 40.2775371zM37.9426834 56.991528L38.730912 58.2775851C39.1748091 58.0056651 39.615312 57.7137566 40.040352 57.4097794L39.1627406 56.1825566C38.7667406 56.4657909 38.356032 56.738088 37.9426834 56.991528M50.1154971 37.159848C50.11512 36.6416537 50.09928 36.1162937 50.0683543 35.5980994L48.5628 35.6882366C48.59184 36.1770137 48.6065486 36.6722023 48.6069257 37.1606023L50.1154971 37.159848z"/>
    <path fill="url(#icon-one-go-b)" d="M12.4726423,52.9214023 C6.27429943,46.3478023 6.72951086,37.3125909 6.73479086,37.2220766 C6.74685943,37.014648 6.67331657,36.8109909 6.53075657,36.6601337 C6.38819657,36.5088994 6.18981943,36.4229109 5.98201371,36.4229109 L2.52851657,36.4229109 L11.415888,27.1976194 L20.8587909,36.4229109 L16.9742194,36.4229109 C16.5574766,36.4229109 16.2199337,36.7604537 16.2199337,37.1771966 C16.2199337,47.5701223 22.3066423,56.4567394 30.8345966,59.8996766 C22.8040937,59.6756537 16.6302651,57.3309566 12.4726423,52.9214023 M60.3867566,36.4229109 C59.9700137,36.4229109 59.6324709,36.7604537 59.6324709,37.1771966 C59.6324709,49.7160651 50.2333166,59.9174023 38.6802994,59.9174023 C27.3603566,59.9174023 18.1075337,50.122248 17.7398194,37.9314823 L22.7105623,37.9314823 C23.0171794,37.9314823 23.2928709,37.745928 23.4090309,37.4619394 C23.5248137,37.1779509 23.456928,36.8520994 23.2374309,36.6375051 L11.9269166,25.5875966 C11.7832251,25.4476766 11.5829623,25.3794137 11.3883566,25.3730023 C11.1873394,25.3760194 10.996128,25.459368 10.8565851,25.6038137 L0.210973714,36.6537223 C0.00128228571,36.8717109 -0.0583062857,37.1937909 0.0601165714,37.4721223 C0.178539429,37.7504537 0.451968,37.9314823 0.754436571,37.9314823 L5.21301943,37.9314823 C5.22735086,40.3976194 5.75761371,47.9879966 11.3623337,53.9427051 C16.0355109,58.908168 23.0194423,61.4259737 32.1202766,61.4259737 L38.6146766,61.4259737 C38.6384366,61.4255966 38.6595566,61.4263509 38.6802994,61.4259737 C51.0652937,61.4259737 61.1410423,50.5480423 61.1410423,37.1771966 C61.1410423,36.7604537 60.8031223,36.4229109 60.3867566,36.4229109"/>
    <path fill="#B3D6F2" d="M27.5057074,32.957496 L27.5057074,33.3885703 C27.5057074,34.187736 27.6810789,34.9488103 28.027296,35.6525589 C28.3735131,36.349896 28.840416,36.9638846 29.4163131,37.4779303 C29.9963589,37.9938617 30.6721989,38.4068331 31.4234674,38.7036446 C31.784016,38.8465817 32.153616,38.9510503 32.528496,39.0264789 L32.528496,40.328376 L34.8532046,40.328376 L34.8532046,39.0909703 C35.3072846,39.040056 35.7477874,38.9650046 36.1618903,38.8484674 C36.9018446,38.6406617 37.555056,38.3336674 38.1049303,37.936536 C38.6619703,37.5337474 39.1005874,37.0295074 39.4090903,36.4366389 C39.7164617,35.8467874 39.8707131,35.164536 39.8707131,34.4098731 C39.8707131,33.6812331 39.7104274,33.0163303 39.392496,32.434776 C39.083616,31.8630274 38.6581989,31.3538846 38.1290674,30.9224331 C37.6116274,30.5015417 37.0131017,30.145896 36.3481989,29.8656789 C35.699136,29.591496 35.0097189,29.377656 34.3150217,29.2339646 C33.9310903,29.1457131 33.5283017,29.0303074 33.1028846,28.8881246 C32.705376,28.7557474 32.351616,28.5815074 32.0182217,28.3571074 C31.7078331,28.1451531 31.4457189,27.8871874 31.2409303,27.593016 C31.0546217,27.3192103 30.9622217,26.9975074 30.9622217,26.6105589 C30.9622217,26.3261931 31.0319931,26.0746389 31.1734217,25.845336 C31.3235246,25.6017017 31.5230331,25.3901246 31.7625189,25.2181474 C32.0125646,25.0397589 32.2893874,24.9077589 32.6095817,24.8153589 C33.2680731,24.6222617 34.0008617,24.609816 34.6329531,24.876456 C34.9682331,25.0171303 35.2695703,25.2087189 35.527536,25.4478274 C35.7855017,25.6861817 35.9963246,25.9769589 36.1543474,26.3118617 C36.308976,26.6445017 36.3877989,27.0099531 36.3877989,27.3999189 L36.3877989,27.8302389 L39.4298331,27.8302389 L39.4298331,27.3999189 C39.4298331,26.9156674 39.3415817,26.370696 39.1665874,25.7812217 C38.9878217,25.1743989 38.677056,24.5988789 38.244096,24.0689931 C37.8017074,23.5315646 37.2009189,23.0755989 36.4553074,22.7154274 C36.039696,22.5129017 35.5471474,22.3786389 35.0104731,22.2873703 L35.0104731,21.024696 L32.3749989,21.024696 L32.3749989,22.2873703 C32.0868617,22.3405474 31.8002331,22.4008903 31.5196389,22.4906503 C30.8453074,22.7075074 30.2354674,23.0182731 29.7067131,23.4135189 C29.1738103,23.8140446 28.7408503,24.2911303 28.420656,24.8293131 C28.0895246,25.3840903 27.9220731,25.990536 27.9220731,26.6331874 C27.9220731,27.3309017 28.0763246,27.9750617 28.3829417,28.5490731 C28.6842789,29.1129017 29.0814103,29.6080903 29.5615131,30.0195531 C30.0359589,30.4276217 30.5877189,30.7727074 31.1994446,31.046136 C31.8002331,31.315416 32.430816,31.5183189 33.0689417,31.6484331 C33.486816,31.7385703 33.9292046,31.8581246 34.3961074,32.0067189 C34.8351017,32.1466389 35.2469417,32.3359646 35.619936,32.5690389 C35.973696,32.7919303 36.2727703,33.0653589 36.5062217,33.3814046 C36.7227017,33.6759531 36.8283017,34.0199074 36.8283017,34.433256 C36.8283017,34.8100217 36.7513646,35.1339874 36.6005074,35.3930846 C36.4368274,35.6680217 36.2278903,35.8927989 35.9623817,36.077976 C35.691216,36.2673017 35.3676274,36.4102389 35.0002903,36.5018846 C34.1777417,36.706296 33.2160274,36.716856 32.4779589,36.3823303 C32.0766789,36.2001703 31.7300846,35.9576674 31.4423246,35.6597246 C31.1541874,35.3621589 30.9320503,35.0110389 30.7796846,34.6173017 C30.625056,34.2160217 30.5462331,33.8030503 30.5462331,33.3885703 L30.5462331,32.957496 L27.5057074,32.957496 Z"/>
  </g>
</svg>
