<svg xmlns="http://www.w3.org/2000/svg" width="66" height="69" viewBox="0 0 66 69">
  <defs>
    <linearGradient id="icon-online-a" x1="50%" x2="50%" y1="-5.728%" y2="113.258%">
      <stop offset="0%" stop-color="#026BB5"/>
      <stop offset="100%" stop-color="#56B9FF"/>
    </linearGradient>
  </defs>
  <g fill="none" fill-rule="evenodd" transform="translate(0 -2)">
    <path fill="#B3D6F2" d="M36.8900556 65.8292592C35.1166473 66.1494959 33.2963751 66.3119574 31.4796178 66.3119574 22.0638781 66.3119574 13.3534402 62.0367976 7.5821503 54.5819219 7.3181503 54.240987 6.82725089 54.1785018 6.48631598 54.4428923 6.14538107 54.7068923 6.08289586 55.1970107 6.34728639 55.5383361 12.4165527 63.3782769 21.576884 67.8740876 31.4796178 67.8740876 33.3893219 67.8740876 35.3033219 67.7034249 37.1677243 67.3663953 37.5922331 67.2894604 37.8745882 66.8833065 37.7972627 66.4587976 37.7207183 66.0346793 37.3157361 65.7503716 36.8900556 65.8292592M62.1045941 40.9118379C61.6793041 40.8337314 61.2731503 41.1164769 61.1966059 41.5405953 60.945884 42.9207373 60.5955763 44.2942402 60.1542746 45.623613 60.0183692 46.0332817 60.2401917 46.4753645 60.6494698 46.6112698 60.7310911 46.6382166 60.813884 46.6511041 60.8955053 46.6511041 61.2231621 46.6511041 61.528168 46.4433408 61.6371266 46.115684 62.1010793 44.7167964 62.4701325 43.2714355 62.7333515 41.819826 62.8106769 41.3953172 62.529103 40.9887728 62.1045941 40.9118379M55.905632 17.0256568C55.5592296 17.2826272 55.4869811 17.7719645 55.744342 18.1183669 58.4206615 21.7222012 60.2221882 25.7728047 61.0981527 30.1580947 61.1719633 30.5294911 61.498058 30.786071 61.8632059 30.786071 61.9139751 30.786071 61.9655254 30.7813846 62.0166852 30.7708402 62.439632 30.6864852 62.7145669 30.2752544 62.6298213 29.8523077 61.7081645 25.2385562 59.8136911 20.9774556 56.998342 17.1869467 56.7413716 16.8409349 56.2520343 16.7679053 55.905632 17.0256568"/>
    <path fill="url(#icon-online-a)" d="M36.8931408,46.1295089 C36.5686083,46.839497 35.7270107,47.1515325 35.017413,46.8273905 L29.1488805,44.1409172 C29.3574249,43.6586095 29.5323834,43.1848935 29.6764899,42.7201598 L30.7719337,43.2216036 C30.877768,43.2700296 30.9878982,43.2922899 31.0968568,43.2922899 C31.3928805,43.2922899 31.6764071,43.1235799 31.807626,42.8365385 C31.9868805,42.4440533 31.8146556,41.9808817 31.4225609,41.8012367 L30.0564781,41.1756036 C30.1416142,40.6979822 30.1939456,40.2320769 30.2193302,39.777497 L38.1408923,43.4035917 L36.8931408,46.1295089 Z M26.6326793,30.410574 C28.1393538,29.3198166 31.5584663,26.804787 33.8797917,24.7865148 C35.6301586,23.2646095 35.5887621,21.4939349 34.771768,20.414503 C34.0613893,19.4760533 32.7261586,18.9347751 31.1499692,19.2233787 L34.8986911,11.0335207 L49.8291408,17.8678402 L47.0696379,23.8968817 L44.4823598,24.9431183 C43.7083243,25.2563254 43.1022178,25.8518876 42.7761231,26.6208462 C42.4500284,27.3894142 42.4433893,28.2388225 42.7565964,29.0136391 C42.8878154,29.3373905 43.0740994,29.6295089 43.2990462,29.8880414 C42.7733893,30.1754734 42.3402888,30.6074024 42.0501231,31.1471183 C41.6545136,31.8824911 41.5693775,32.7279941 41.8099456,33.5274142 C41.9419456,33.9659822 42.1657207,34.3600296 42.4601822,34.6935444 L41.389342,34.9266923 C39.7049751,35.2937929 38.6337444,36.9625385 39.0004544,38.6469053 C39.1137089,39.1643609 39.3507621,39.6337811 39.6877917,40.0235325 L38.7907385,41.9832249 L30.1888686,38.0462663 C29.8389515,34.3248817 27.750774,31.6153669 26.6326793,30.410574 Z M37.6785018,8.36032544 L50.0357325,14.0167988 C50.3794012,14.174574 50.6414485,14.4557574 50.773058,14.8103609 C50.9046675,15.1641834 50.8906083,15.5484675 50.7332237,15.8921361 L50.4793775,16.4474734 L35.5489278,9.61354438 L35.802774,9.0582071 C36.1273065,8.34939053 36.9677325,8.0357929 37.6785018,8.36032544 Z M50.6063006,24.6459231 C50.9909751,24.8091657 51.2889515,25.1122189 51.445555,25.4996272 C51.6021586,25.886645 51.5986438,26.3119349 51.4354012,26.6962189 C51.2721586,27.0808935 50.9694959,27.3788698 50.617626,27.5221953 L48.877413,28.1294734 C48.8215669,28.149 48.769626,28.1755562 48.7212,28.2060178 C48.6095077,28.226716 48.4982059,28.2528817 48.3880757,28.2860769 L44.9627148,29.3155207 C44.9123361,29.2487396 44.8529751,29.1870355 44.7791645,29.1374379 C44.5210225,28.9636509 44.3218509,28.7180059 44.2046911,28.4274497 C44.047697,28.040432 44.0512118,27.615142 44.2144544,27.2304675 C44.377697,26.8461834 44.6803598,26.5478166 45.0681586,26.3916036 L47.5761586,25.3773905 C47.5863124,25.3777811 47.5964663,25.3805148 47.6066201,25.3805148 C47.8171172,25.3805148 48.018632,25.2918639 48.1662533,25.1387751 L49.4097089,24.6361598 C49.7971172,24.4795562 50.2220166,24.4834615 50.6063006,24.6459231 Z M49.7385373,32.7772012 L49.7381467,32.7772012 L45.7437799,33.9780888 L44.7955669,34.1842899 C44.5432828,34.1835089 44.2921704,34.1284438 44.0625373,34.0050355 C43.6950462,33.8070355 43.4263598,33.4778166 43.3056852,33.0775207 C43.1854012,32.6776154 43.2283598,32.2546686 43.4259692,31.886787 C43.6235787,31.5189053 43.9527976,31.2498284 44.353484,31.1299349 L48.8379692,29.7818166 C48.9867621,29.7369053 49.1386793,29.7150355 49.2902059,29.7150355 C49.5448331,29.7150355 49.7978982,29.7779112 50.028703,29.9021006 C50.3965846,30.0997101 50.6656615,30.4293195 50.7859456,30.8288343 C51.0339337,31.6552012 50.5641231,32.5288225 49.7385373,32.7772012 Z M46.297555,35.4558639 C46.4092473,35.4312604 46.5205491,35.4199349 46.6306793,35.4199349 C47.3496497,35.4199349 47.9991053,35.9198166 48.1588331,36.6508935 C48.247484,37.0586095 48.1725018,37.4772604 47.946774,37.8287396 C47.7210462,38.1806095 47.3715195,38.4231302 46.963413,38.5117811 L42.3879337,39.5092012 C41.9809988,39.5974615 41.5615669,39.5232604 41.2100876,39.297142 C40.8582178,39.0714142 40.615697,38.7222781 40.5270462,38.3141716 C40.3434959,37.4717929 40.8793065,36.6368343 41.7216852,36.453284 L44.9900521,35.7405621 C45.229058,35.7261124 45.4680639,35.6917456 45.703555,35.6210592 L46.1343124,35.4914024 L46.297555,35.4558639 Z M42.0485609,41.108432 C42.2719456,41.108432 42.4972828,41.0842189 42.7206675,41.0354024 L47.2961467,40.0379822 C48.1119692,39.8602899 48.8098509,39.3756391 49.260916,38.6726805 C49.7119811,37.9701124 49.8627266,37.1339822 49.6850343,36.3177692 C49.5444426,35.6737811 49.2120994,35.1203964 48.7622059,34.701355 L50.1876497,34.2729408 C51.8388213,33.7769645 52.7780521,32.0301124 52.2816852,30.3793314 C52.1075077,29.7997811 51.774774,29.2956036 51.3260521,28.9105385 C52.0231527,28.5828817 52.5706793,28.0212959 52.8737325,27.3062308 C53.1998272,26.5376627 53.2064663,25.6878639 52.8940402,24.9138284 C52.5808331,24.1397929 51.985271,23.5340769 51.2163124,23.2079822 C50.5586556,22.929142 49.8420284,22.8857929 49.1640639,23.0744201 L52.1535905,16.5423728 C52.4847621,15.819497 52.5144426,15.0107041 52.2371645,14.2651775 C51.9598864,13.5200414 51.408845,12.927213 50.6855787,12.5968225 L38.3283479,6.93995858 C36.8361231,6.25691716 35.0654485,6.91535503 34.3824071,8.40797041 L33.8774485,9.51161538 C33.8415195,9.55808876 33.8087148,9.60807692 33.7829396,9.66431361 C33.757555,9.7205503 33.7407621,9.77795858 33.7290462,9.83536686 L29.0418746,20.0755207 C28.9957917,20.1044201 28.9500994,20.1290237 28.9040166,20.1590947 C25.3923479,22.4597219 19.1500757,26.7770592 17.7441586,28.0427751 C16.6967503,28.9851302 16.4018982,32.1503964 16.1000166,36.5200651 C16.0078509,37.8474852 15.9211527,39.1010947 15.8086793,39.6646331 C15.535697,41.0275917 12.2700639,48.1649645 10.141271,52.6303136 C9.95576805,53.0196746 10.1209633,53.4855799 10.5103243,53.6714734 C10.6188923,53.7226331 10.7333183,53.7472367 10.8461822,53.7472367 C11.1379101,53.7472367 11.4179219,53.583213 11.551484,53.3020296 C12.1021349,52.1472249 16.9420047,41.9617456 17.3403479,39.9712012 C17.4723479,39.3092485 17.5543598,38.1259349 17.6582414,36.6274615 C17.7992237,34.5865385 18.1300047,29.8072012 18.7892237,29.2034379 C20.0010462,28.113071 25.8344308,24.0374734 29.7596734,21.4658166 C31.4311527,20.3711538 32.9472,20.5929763 33.5263598,21.356858 C33.9953893,21.9770237 33.7380284,22.8393195 32.8546438,23.607497 C29.9240876,26.1553314 25.0232947,29.643568 24.9740876,29.678716 C24.7768686,29.8185266 24.6558036,30.0426923 24.6464308,30.2848225 C24.6366675,30.5265621 24.739768,30.7593195 24.925271,30.9143609 C25.2279337,31.1670355 32.2590817,37.2042781 26.3405609,46.0221124 C26.0996024,46.3802308 26.1948923,46.8652722 26.5534012,47.1054497 C26.9119101,47.3471893 27.3969515,47.2503373 27.637129,46.8922189 C27.9433065,46.4360769 28.2131645,45.9869645 28.4588095,45.542929 L33.1998746,47.7135089 C31.3335195,50.631568 26.9618982,50.3699112 26.9150343,50.3644438 C26.6045609,50.3441361 26.3097089,50.5058166 26.1656024,50.7823136 L21.4792118,59.7645621 C21.2800402,60.1468935 21.4280521,60.6190473 21.810774,60.8182189 C21.9259811,60.8787515 22.0493893,60.9068698 22.1712355,60.9068698 C22.4528095,60.9068698 22.7250107,60.7541716 22.8644308,60.4870473 L27.325484,51.9367278 C28.7622533,51.9308698 32.7312355,51.6004793 34.6327385,48.3524201 C34.9486793,48.4629408 35.2763361,48.519568 35.6051645,48.519568 C35.9554722,48.519568 36.3065609,48.4570828 36.6443716,48.3313314 C37.3895077,48.0540533 37.9823361,47.5034024 38.3135077,46.7797456 L40.9972473,40.9155089 C41.3354485,41.0385266 41.6888805,41.108432 42.0485609,41.108432 Z"/>
    <path fill="#B3D6F2" d="M8.4383929 39.2974544C7.97170651 39.2974544 7.59210888 38.9178568 7.59210888 38.4511704 7.59210888 37.9848746 7.97170651 37.6052769 8.4383929 37.6052769 8.90468876 37.6052769 9.28428639 37.9848746 9.28428639 38.4511704 9.28428639 38.9178568 8.90468876 39.2974544 8.4383929 39.2974544M8.4383929 36.0431467C7.11058225 36.0431467 6.0299787 37.1233598 6.0299787 38.4511704 6.0299787 39.7789811 7.11058225 40.8595846 8.4383929 40.8595846 9.76620355 40.8595846 10.8464166 39.7789811 10.8464166 38.4511704 10.8464166 37.1233598 9.76620355 36.0431467 8.4383929 36.0431467M3.6215645 50.1591408C3.19041657 50.1591408 2.84049941 50.509058 2.84049941 50.9402059L2.84049941 51.9653538C2.84049941 52.3965018 3.19041657 52.7464189 3.6215645 52.7464189 4.05271243 52.7464189 4.40262959 52.3965018 4.40262959 51.9653538L4.40262959 50.9402059C4.40262959 50.509058 4.05271243 50.1591408 3.6215645 50.1591408M3.6215645 45.9285018C3.19041657 45.9285018 2.84049941 46.2784189 2.84049941 46.7095669L2.84049941 47.7347148C2.84049941 48.1658627 3.19041657 48.5157799 3.6215645 48.5157799 4.05271243 48.5157799 4.40262959 48.1658627 4.40262959 47.7347148L4.40262959 46.7095669C4.40262959 46.2784189 4.05271243 45.9285018 3.6215645 45.9285018M2.0190142 48.5562L.993866272 48.5562C.562718343 48.5562.212801183 48.9061172.212801183 49.3372651.212801183 49.768413.562718343 50.1183302.993866272 50.1183302L2.0190142 50.1183302C2.45016213 50.1183302 2.80007929 49.768413 2.80007929 49.3372651 2.80007929 48.9061172 2.45016213 48.5562 2.0190142 48.5562M7.03071834 49.3372651C7.03071834 48.9061172 6.68080118 48.5562 6.24965325 48.5562L5.22450533 48.5562C4.7933574 48.5562 4.44344024 48.9061172 4.44344024 49.3372651 4.44344024 49.768413 4.7933574 50.1183302 5.22450533 50.1183302L6.24965325 50.1183302C6.68080118 50.1183302 7.03071834 49.768413 7.03071834 49.3372651M62.2258544 36.6693657C61.7947065 36.6693657 61.4447893 37.0192828 61.4447893 37.4504308L61.4447893 38.4755787C61.4447893 38.9067266 61.7947065 39.2566438 62.2258544 39.2566438 62.6570024 39.2566438 63.0069195 38.9067266 63.0069195 38.4755787L63.0069195 37.4504308C63.0069195 37.0192828 62.6570024 36.6693657 62.2258544 36.6693657M62.2258544 32.4387266C61.7947065 32.4387266 61.4447893 32.7886438 61.4447893 33.2197917L61.4447893 34.2449396C61.4447893 34.6760876 61.7947065 35.0260047 62.2258544 35.0260047 62.6570024 35.0260047 63.0069195 34.6760876 63.0069195 34.2449396L63.0069195 33.2197917C63.0069195 32.7886438 62.6570024 32.4387266 62.2258544 32.4387266M60.6233041 35.0668154L59.5981562 35.0668154C59.1670083 35.0668154 58.8170911 35.4167325 58.8170911 35.8478805 58.8170911 36.2790284 59.1670083 36.6289456 59.5981562 36.6289456L60.6233041 36.6289456C61.0544521 36.6289456 61.4043692 36.2790284 61.4043692 35.8478805 61.4043692 35.4167325 61.0544521 35.0668154 60.6233041 35.0668154M64.8539432 35.0668154L63.8287953 35.0668154C63.3976473 35.0668154 63.0477302 35.4167325 63.0477302 35.8478805 63.0477302 36.2790284 63.3976473 36.6289456 63.8287953 36.6289456L64.8539432 36.6289456C65.2850911 36.6289456 65.6350083 36.2790284 65.6350083 35.8478805 65.6350083 35.4167325 65.2850911 35.0668154 64.8539432 35.0668154M50.8245302 67.079432C45.5218793 67.079432 41.2076663 62.7652189 41.2076663 57.462568 41.2076663 52.1599172 45.5218793 47.8457041 50.8245302 47.8457041 56.1271811 47.8457041 60.4413941 52.1599172 60.4413941 57.462568 60.4413941 62.7652189 56.1271811 67.079432 50.8245302 67.079432M50.8245302 46.283574C44.6603645 46.283574 39.6455361 51.2984024 39.6455361 57.462568 39.6455361 63.6267337 44.6603645 68.6415621 50.8245302 68.6415621 56.9886959 68.6415621 62.0035243 63.6267337 62.0035243 57.462568 62.0035243 51.2984024 56.9886959 46.283574 50.8245302 46.283574"/>
    <path fill="#B3D6F2" d="M53.985032 57.6376047C53.6167598 57.3380663 53.1906888 57.0850012 52.7177538 56.8854391 52.2553633 56.6901728 51.7648544 56.5382556 51.2708308 56.4359361 50.9978485 56.3730604 50.7108071 56.2910485 50.4081444 56.1899006 50.1250083 56.0957822 49.8735053 55.9715929 49.6360615 55.8118651 49.4154107 55.660729 49.2287361 55.4771787 49.0830675 55.2682438 48.9502864 55.073368 48.8846769 54.844516 48.8846769 54.5691905 48.8846769 54.3665041 48.9342746 54.1876402 49.0346414 54.0240071 49.1420379 53.8513917 49.2838012 53.7002556 49.4540734 53.5780189 49.6321562 53.4510959 49.8289846 53.357368 50.0566651 53.291368 50.5260852 53.1542911 51.0470556 53.1453089 51.4973396 53.3347172 51.7355645 53.435084 51.9499669 53.5717704 52.1335172 53.7412615 52.3170675 53.9111432 52.467032 54.1181254 52.5795053 54.3567408 52.6896355 54.593013 52.7458722 54.8534982 52.7458722 55.1307763L52.7458722 55.4369538 54.9105941 55.4369538 54.9105941 55.1307763C54.9105941 54.7863266 54.8481089 54.3985278 54.723529 53.9787053 54.5958249 53.5467763 54.3747834 53.1374982 54.0670438 52.7602438 53.751884 52.3775219 53.3246414 52.0529893 52.7939077 51.7968 52.497884 51.6526935 52.1475763 51.5574036 51.7656355 51.4925751L51.7656355 50.5939598 49.8902982 50.5939598 49.8902982 51.4925751C49.6848781 51.5300663 49.4810201 51.5730249 49.281458 51.6370722 48.801884 51.7913325 48.3676118 52.0127645 47.9907479 52.2935574 47.6119314 52.5790367 47.3038012 52.9184095 47.0761207 53.3015219 46.8402391 53.6959598 46.7207361 54.1278888 46.7207361 54.5852024 46.7207361 55.0815692 46.8308663 55.5400544 47.049174 55.9485515 47.2635763 56.3496284 47.5463219 56.7018888 47.8880379 56.9947882 48.225458 57.2857349 48.6179432 57.5309893 49.053387 57.7254746 49.4810201 57.917226 49.929742 58.0613325 50.3835408 58.1542793 50.6811266 58.2183266 50.9962864 58.3030722 51.3282391 58.409297 51.6406651 58.5084923 51.933955 58.643226 52.1991266 58.8092024 52.4510201 58.9677586 52.6642509 59.1622438 52.8302272 59.3875811 52.984097 59.597297 53.0594698 59.8421609 53.0594698 60.1358414 53.0594698 60.4041373 53.0044047 60.634942 52.8973988 60.8188828 52.7806296 61.0145396 52.6318367 61.1750485 52.4432095 61.306658 52.2502864 61.4410012 52.0198722 61.5429302 51.7586059 61.6081491 51.1731976 61.7538178 50.4882036 61.7608473 49.9633278 61.523013 49.6778485 61.3929657 49.4314225 61.2207408 49.2263929 61.0090722 49.0213633 60.797013 48.8635882 60.5470722 48.7546296 60.2670604 48.6448899 59.9815811 48.5886533 59.6875101 48.5886533 59.3922675L48.5886533 59.0856994 46.425103 59.0856994 46.425103 59.3922675C46.425103 59.9608828 46.5496828 60.502942 46.7961089 61.0032142 47.0429254 61.4999716 47.3748781 61.9369775 47.7849373 62.302516 48.1977302 62.6700071 48.6784757 62.9636876 49.2127243 63.1749657 49.4693041 63.2765041 49.7325231 63.3510959 49.9992568 63.4049893L49.9992568 64.3313325 51.6539432 64.3313325 51.6539432 63.4506817C51.9765231 63.4143621 52.2901207 63.3608592 52.5849728 63.2776757 53.1118012 63.1300544 53.5765349 62.9117467 53.9678485 62.6290012 54.3642391 62.3423503 54.6766651 61.9834509 54.8961444 61.5616757 55.1144521 61.1418533 55.2241917 60.6560308 55.2241917 60.1190485 55.2241917 59.6004213 55.1105467 59.1274864 54.8840379 58.7139124 54.664168 58.3069775 54.3615053 57.9445633 53.985032 57.6376047M1.10255148 41.4789692C1.1400426 41.4789692 1.17792426 41.4762355 1.21619645 41.470768 1.64304852 41.4086734 1.93868166 41.0126734 1.87658698 40.5854308 1.66765207 39.1506142 1.56220828 37.6826024 1.56220828 36.2231822 1.56220828 19.6634308 15.0348 6.19083905 31.594942 6.19083905 32.0264805 6.19083905 32.3760071 5.84092189 32.3760071 5.40977396 32.3760071 4.9782355 32.0264805 4.62870888 31.594942 4.62870888 14.1736757 4.62870888.0000781065089 18.801916.0000781065089 36.2231822.0000781065089 37.7579751.111379882 39.3009692.330468639 40.8103775.387486391 41.1989574.721001183 41.4789692 1.10255148 41.4789692"/>
  </g>
</svg>
