<svg xmlns="http://www.w3.org/2000/svg" width="17" height="22" viewBox="0 0 17 22">
  <path fill="#FFF" fill-rule="evenodd" d="M300.199153,51.3501815 C299.289242,51.3501815 298.549335,50.6096689 298.549335,49.699758 C298.549335,48.7904521 299.289242,48.0499395 300.199153,48.0499395 C301.109064,48.0499395 301.849577,48.7904521 301.849577,49.699758 C301.849577,50.6096689 301.109064,51.3501815 300.199153,51.3501815 M288.649214,42 C288.649214,41.0900891 289.389726,40.3501815 290.299637,40.3501815 C291.209548,40.3501815 291.949456,41.0900891 291.949456,42 C291.949456,42.3696513 291.823012,42.7078429 291.616709,42.9831152 C291.613079,42.9885601 291.606424,42.9903751 291.601584,42.995215 C291.597954,43.000055 291.597349,43.0061049 291.593719,43.0109449 C291.291222,43.396931 290.826587,43.6498185 290.299637,43.6498185 C289.389726,43.6498185 288.649214,42.9099109 288.649214,42 M300.199153,32.6504235 C301.109064,32.6504235 301.849577,33.3903311 301.849577,34.300242 C301.849577,35.2095479 301.109064,35.9500605 300.199153,35.9500605 C299.289242,35.9500605 298.549335,35.2095479 298.549335,34.300242 C298.549335,33.3903311 299.289242,32.6504235 300.199153,32.6504235 M300.199153,46.400121 C299.407821,46.400121 298.691508,46.6905181 298.122814,47.1545485 L293.323397,43.3158618 C293.49945,42.9123309 293.599274,42.4682653 293.599274,42 C293.599274,41.5184248 293.49098,41.0640744 293.305247,40.6514685 L298.093774,36.8212518 C298.666703,37.300407 299.394511,37.599879 300.199153,37.599879 C302.022,37.599879 303.499395,36.1224838 303.499395,34.300242 C303.499395,32.4780002 302.022,31 300.199153,31 C298.376911,31 296.899516,32.4780002 296.899516,34.300242 C296.899516,34.7176878 296.985425,35.1133539 297.126389,35.4811902 L292.269497,39.3664613 C291.717743,38.9538555 291.040755,38.700363 290.299637,38.700363 C288.47679,38.700363 287,40.1777582 287,42 C287,43.8228468 288.47679,45.300242 290.299637,45.300242 C291.054669,45.300242 291.741943,45.0364646 292.297932,44.6093389 L297.137884,48.4813002 C296.987845,48.8588164 296.899516,49.2690023 296.899516,49.699758 C296.899516,51.5226048 298.376911,53 300.199153,53 C302.022,53 303.499395,51.5226048 303.499395,49.699758 C303.499395,47.8775162 302.022,46.400121 300.199153,46.400121" transform="translate(-287 -31)"/>
</svg>
